<svg xmlns="http://www.w3.org/2000/svg" xmlns:xlink="http://www.w3.org/1999/xlink" width="749.992" height="643.604" viewBox="0 0 749.992 643.604">
  <defs>
    <clipPath id="clip-path">
      <path id="Trazado_397" data-name="Trazado 397" d="M111.45,249.718l37.533-21.8L276.78,301.7l-37.533,21.818Z" transform="translate(-111.45 -227.92)" fill="none"/>
    </clipPath>
  </defs>
  <g id="_26981_Convertido_" data-name="26981 [Convertido]" transform="translate(0 -0.017)">
    <path id="Trazado_333" data-name="Trazado 333" d="M408.49,204.292,291.17,136.555V74.71l117.32,67.736Z" transform="translate(267.549 68.633)" fill="#141414"/>
    <path id="Trazado_334" data-name="Trazado 334" d="M396.912,173.948V177L295.25,118.3V91.34l2.84,1.631V116.88Z" transform="translate(271.298 83.914)" fill="#2f2f2f"/>
    <path id="Trazado_335" data-name="Trazado 335" d="M395.552,149.257v23.909L296.73,116.1V92.19Z" transform="translate(272.658 84.695)" fill="#050505"/>
    <path id="Trazado_336" data-name="Trazado 336" d="M408.49,152.943,291.17,85.206V74.71l117.32,67.736Z" transform="translate(267.549 68.633)" fill="#050505"/>
    <path id="Trazado_337" data-name="Trazado 337" d="M352.31,190.656V128.81L420.3,89.55V151.4Z" transform="translate(323.729 82.27)" fill="#202020"/>
    <path id="Trazado_338" data-name="Trazado 338" d="M352.31,139.306v-10.5L420.3,89.55v10.5Z" transform="translate(323.729 82.27)" fill="#0a0a0a"/>
    <path id="Trazado_339" data-name="Trazado 339" d="M412.921,156.409,288.06,84.317V64.38l124.861,72.092Z" transform="translate(264.691 59.141)" fill="#141414"/>
    <path id="Trazado_340" data-name="Trazado 340" d="M353.13,141.891V121.954L425.51,80.18V100.1Z" transform="translate(324.482 73.66)" fill="#202020"/>
    <path id="Trazado_341" data-name="Trazado 341" d="M412.921,156.476,288.06,84.384,360.44,42.61,485.3,114.7Z" transform="translate(264.691 39.138)" fill="#353535"/>
    <path id="Trazado_342" data-name="Trazado 342" d="M418.334,87.687l-3.3,1.9L356.777,55.968l-31.3,18.057-3.32-1.919L356.777,52.13Z" transform="translate(296.025 47.885)" fill="#161616"/>
    <path id="Trazado_343" data-name="Trazado 343" d="M377.889,74.2,353.5,88.3l-3.32-1.919,27.709-16Z" transform="translate(321.771 64.655)" fill="#161616"/>
    <path id="Trazado_344" data-name="Trazado 344" d="M413.444,87.749l-31.3,18.076-4.49-2.59,24.389-14.1V85.312L356.108,58.793,328.4,74.777l-4.509-2.59,31.3-18.057Z" transform="translate(297.614 49.723)"/>
    <path id="Trazado_345" data-name="Trazado 345" d="M332.274,46.47l-6.044,3.358V81.816l6.044-3.339Z" transform="translate(299.764 42.684)" fill="#ebc11d"/>
    <path id="Trazado_346" data-name="Trazado 346" d="M322.16,41.72V81.671l7.81,4.509V54.193l45.957,26.519v32.007l7.81,4.509V77.258Z" transform="translate(296.025 38.32)" fill="#bc7400"/>
    <path id="Trazado_347" data-name="Trazado 347" d="M360.294,98.47l-6.044,3.339V61.839l6.044-3.339Z" transform="translate(325.511 53.739)" fill="#da8b08"/>
    <path id="Trazado_348" data-name="Trazado 348" d="M389.781,75.527l-6.044,3.339L322.16,43.328,328.2,39.97Z" transform="translate(296.025 36.712)" fill="#ffc71e"/>
    <path id="Trazado_349" data-name="Trazado 349" d="M330.587,113.834V93.916l16.886-9.767V81.29L326.73,93.225v22.815Z" transform="translate(300.224 74.68)" fill="#da8b08"/>
    <path id="Trazado_350" data-name="Trazado 350" d="M342.525,119.441V96.625L309.54,77.59v22.815Z" transform="translate(284.428 71.28)" fill="#b36a00"/>
    <path id="Trazado_351" data-name="Trazado 351" d="M342.525,102.341,309.54,83.305,330.3,71.37l32.966,19.035Z" transform="translate(284.428 65.564)" fill="#ffc71e"/>
    <path id="Trazado_352" data-name="Trazado 352" d="M154.792,116.483a4.47,4.47,0,0,1,.288,1.535,9.844,9.844,0,0,1-4.452,7.675,4.03,4.03,0,0,1-1.478.518c.614,1.669,2.245,2.168,4.183,1.036a9.786,9.786,0,0,0,4.452-7.676C157.785,117.328,156.538,116.176,154.792,116.483Z" transform="translate(73.286 46.567)" fill="#2e2e2e"/>
    <path id="Trazado_353" data-name="Trazado 353" d="M147.73,130.812c1.017,2.725,3.7,3.531,6.908,1.689a16.272,16.272,0,0,0,7.368-12.741c0-4.7-3.3-6.6-7.368-4.26a16.445,16.445,0,0,0-6.908,9.594Zm6.908-1.689c-2.456,1.42-4.433.269-4.433-2.552a9.767,9.767,0,0,1,4.433-7.675c2.456-1.42,4.452-.269,4.452,2.552a9.786,9.786,0,0,1-4.452,7.6Z" transform="translate(71.981 44.787)" fill="#4a4a4a"/>
    <path id="Trazado_354" data-name="Trazado 354" d="M161.99,114.293a1.919,1.919,0,0,0-.326-.192l-.249-.154h0a5.392,5.392,0,0,0-4.74.691,16.311,16.311,0,0,0-6.908,9.594l-.288,1.132h0L142.59,129.2l.9,7.177,7.963-4.509a1.917,1.917,0,0,0,.307.23h0l2.437,1.42a3.991,3.991,0,0,1-1.727-2.168v-5.546a16.445,16.445,0,0,1,6.908-9.594,5.181,5.181,0,0,1,5.2-.518Z" transform="translate(67.258 44.037)" fill="#2e2e2e"/>
    <path id="Trazado_355" data-name="Trazado 355" d="M145.792,152.865,62.551,200.933,28.76,181.418,112,133.35Z" transform="translate(26.427 122.516)" fill="#2e2e2e"/>
    <path id="Trazado_356" data-name="Trazado 356" d="M36.57,175.09,49.906,140.8l17.615,10.17-3.128,8.04Z" transform="translate(33.603 129.362)" fill="#ae3100"/>
    <path id="Trazado_357" data-name="Trazado 357" d="M36.672,154.31l-2.322,5.968,4.26,2.4,2.878-7.426Z" transform="translate(31.563 141.776)" fill="#ff6900"/>
    <path id="Trazado_358" data-name="Trazado 358" d="M46.54,96.45v20.474L62.006,108v-2.629Z" transform="translate(42.764 88.61)" fill="#ae3100"/>
    <path id="Trazado_359" data-name="Trazado 359" d="M44.3,92.22v26.116l4.3,2.475V100.337l15.466,8.923v20.474l4.989,2.878V106.5Z" transform="translate(40.706 84.723)" fill="#fb5200"/>
    <path id="Trazado_360" data-name="Trazado 360" d="M102.442,96.446,69.053,115.731,44.3,101.455,77.708,82.17Z" transform="translate(40.706 75.488)" fill="#ff7101"/>
    <path id="Trazado_361" data-name="Trazado 361" d="M130.865,92.67,58.85,190.187l15.447,8.9,72.015-97.5Z" transform="translate(54.076 85.136)" fill="#fb5200"/>
    <path id="Trazado_362" data-name="Trazado 362" d="M14.14,140.15l72.188,13.989,15.428,8.923L29.587,149.073Z" transform="translate(12.993 128.765)" fill="#fb5200"/>
    <path id="Trazado_363" data-name="Trazado 363" d="M138.915,97.32,66.9,194.818l5.334,6.083,72.015-97.517Z" transform="translate(61.473 89.409)" fill="#ff7418"/>
    <path id="Trazado_364" data-name="Trazado 364" d="M24.735,144.8,96.9,158.789l-5.3,12.242L19.42,157.042Z" transform="translate(17.845 133.037)" fill="#ff7418"/>
    <path id="Trazado_365" data-name="Trazado 365" d="M173.418,117.659h0a4.989,4.989,0,0,0-2.744-.748H161.33l-2.283,6.658-61.826.461,20.378,8.884,56.914-.345,2.264-6.754,11.724.461Z" transform="translate(25.569 47.003)" fill="#ff7418"/>
    <path id="Trazado_366" data-name="Trazado 366" d="M173.031,95.94,20.02,184.285l4.548,5.066,149.365-86.234Z" transform="translate(18.396 88.141)" fill="#2e2e2e"/>
    <path id="Trazado_367" data-name="Trazado 367" d="M178.724,121.55h-9.345l-2.283,6.659-61.845.48v12.3l57.566-.422-2.245,6.793h9.345c4.874,0,10.784-5.757,13.183-12.76l.1-.269C185.593,127.172,183.6,121.512,178.724,121.55Z" transform="translate(32.947 51.267)" fill="#ff8c2a"/>
    <path id="Trazado_368" data-name="Trazado 368" d="M147.539,131.17c-1.151,3.4-4.01,6.179-6.39,6.2a2.4,2.4,0,0,1-2.379-1.708,1.44,1.44,0,0,0,.4,0c2.379,0,5.238-2.821,6.409-6.217a6.447,6.447,0,0,0,.192-4.413C147.846,125.356,148.633,127.947,147.539,131.17Z" transform="translate(63.748 54.465)" fill="#8c3100"/>
    <path id="Trazado_369" data-name="Trazado 369" d="M145.719,129.484c-1.171,3.4-4.03,6.2-6.409,6.217a1.44,1.44,0,0,1-.4,0,6.678,6.678,0,0,1,.192-4.413c1.171-3.435,4.049-6.2,6.409-6.236a.9.9,0,0,1,.4,0,6.448,6.448,0,0,1-.192,4.433Z" transform="translate(63.611 54.463)" fill="#b34404"/>
    <path id="Trazado_370" data-name="Trazado 370" d="M120.424,128.8l-63.15,72.917-3.838-2.207-9.345,10.746c-4.855,5.6-6.85,13.586-4.413,17.788v.173a5.2,5.2,0,0,0,1.573,1.708h0a3.971,3.971,0,0,0,.48.288l15.677,9.038,10.707-28.706,3.109,1.8L133.127,141v-4.931Z" transform="translate(-28.261 57.929)" fill="#ff7101"/>
    <path id="Trazado_371" data-name="Trazado 371" d="M53.469,184.368a5.219,5.219,0,0,0-2.341-4.068,1.669,1.669,0,0,0-1.689-.154h0L33.57,189.319l3.4,5.757,15.869-9.153h0a1.669,1.669,0,0,0,.633-1.554Z" transform="translate(-32.918 104.963)" fill="#2e2e2e"/>
    <path id="Trazado_372" data-name="Trazado 372" d="M37.912,189.1c0,1.5-1.055,2.111-2.341,1.362A5.162,5.162,0,0,1,33.23,186.4c0-1.5,1.036-2.111,2.341-1.362a5.219,5.219,0,0,1,2.341,4.068Z" transform="translate(-33.23 109.307)" fill="#070707"/>
    <path id="Trazado_373" data-name="Trazado 373" d="M52.1,213.258l9.326-10.765,2.3,4.01,61.9-71.344V147.5L68.065,213.93l2.3,3.991-9.326,10.765c-4.855,5.6-10.765,6.735-13.2,2.514v-.154C45.326,226.825,47.245,218.861,52.1,213.258Z" transform="translate(-20.822 63.773)" fill="#ff8521"/>
    <path id="Trazado_374" data-name="Trazado 374" d="M56.269,186.355c-2.36,2.725-5.239,3.262-6.409,1.228a3.436,3.436,0,0,1-.23-.461,5.757,5.757,0,0,0,4.663-2.418,9.23,9.23,0,0,0,2.379-8.174,2.168,2.168,0,0,1,1.727,1.19C59.589,179.773,58.61,183.63,56.269,186.355Z" transform="translate(-18.16 101.787)" fill="#8c3100"/>
    <path id="Trazado_375" data-name="Trazado 375" d="M54.432,184.7a5.757,5.757,0,0,1-4.663,2.418c-.825-2.149.154-5.642,2.36-8.174a5.757,5.757,0,0,1,4.682-2.418,9.23,9.23,0,0,1-2.379,8.174Z" transform="translate(-18.3 101.787)" fill="#b34404"/>
    <path id="Trazado_376" data-name="Trazado 376" d="M90.588,115.726,57.2,135.011V108.895L90.588,89.61Z" transform="translate(52.56 82.325)" fill="#ff8521"/>
    <path id="Trazado_377" data-name="Trazado 377" d="M116.7,154.972,47.99,194.635l15.524-39.874,37.667-21.741Z" transform="translate(44.097 122.213)" fill="#ff8521"/>
    <path id="Trazado_378" data-name="Trazado 378" d="M45.436,136.63,39.18,152.71l4.816.921,2.84-7.273,17.769,10.266L51.845,188.939l4.241,2.379,15.524-39.874Z" transform="translate(36.002 125.53)" fill="#fb5200"/>
    <path id="Trazado_379" data-name="Trazado 379" d="M99.528,183.778a11.206,11.206,0,0,1-5.047,8.731c-2.168,1.247-3.991.729-4.7-1.075a4.087,4.087,0,0,0,2.744-.614,11.149,11.149,0,0,0,5.027-8.712,4.644,4.644,0,0,0-.345-1.919C98.607,180.439,99.528,181.744,99.528,183.778Z" transform="translate(18.732 105.15)" fill="#8c3100"/>
    <path id="Trazado_380" data-name="Trazado 380" d="M97.709,182.137a11.149,11.149,0,0,1-5.027,8.712,4.087,4.087,0,0,1-2.744.614,4.8,4.8,0,0,1-.326-1.919,11.091,11.091,0,0,1,5.027-8.712,4.279,4.279,0,0,1,2.725-.652,4.644,4.644,0,0,1,.345,1.957Z" transform="translate(18.575 105.122)" fill="#b34404"/>
    <path id="Trazado_381" data-name="Trazado 381" d="M102.129,135.168A11.149,11.149,0,0,1,97.12,143.9c-2.188,1.247-4.03.729-4.72-1.075a3.837,3.837,0,0,0,2.744-.614,11.11,11.11,0,0,0,5.047-8.712,4.605,4.605,0,0,0-.345-1.919C101.227,131.868,102.129,133.153,102.129,135.168Z" transform="translate(21.14 60.484)" fill="#8c3100"/>
    <path id="Trazado_382" data-name="Trazado 382" d="M100.347,133.441a11.11,11.11,0,0,1-5.047,8.712,3.838,3.838,0,0,1-2.744.614,4.759,4.759,0,0,1-.326-1.823,11.034,11.034,0,0,1,5.047-8.616,3.953,3.953,0,0,1,2.725-.652,4.605,4.605,0,0,1,.345,1.765Z" transform="translate(20.983 60.542)" fill="#b34404"/>
    <path id="Trazado_383" data-name="Trazado 383" d="M110.869,130.137a11.053,11.053,0,0,1-5.047,8.712c-2.13,1.228-3.972.748-4.663-1.036a3.991,3.991,0,0,0,2.725-.652,11.091,11.091,0,0,0,5.008-8.712,4.8,4.8,0,0,0-.326-1.919C109.948,126.837,110.869,128.1,110.869,130.137Z" transform="translate(29.189 55.843)" fill="#8c3100"/>
    <path id="Trazado_384" data-name="Trazado 384" d="M109.069,128.448a11.091,11.091,0,0,1-5.008,8.712,3.991,3.991,0,0,1-2.725.652,4.336,4.336,0,0,1-.365-1.919A11.11,11.11,0,0,1,106,127.2a3.991,3.991,0,0,1,2.744-.633,4.8,4.8,0,0,1,.326,1.881Z" transform="translate(29.013 55.845)" fill="#b34404"/>
    <path id="Trazado_385" data-name="Trazado 385" d="M113.6,175.657a11.149,11.149,0,0,1-5.027,8.712c-2.168,1.228-3.991.748-4.7-1.036a3.953,3.953,0,0,0,2.725-.652,11.033,11.033,0,0,0,5.047-8.712,4.759,4.759,0,0,0-.326-1.919C112.7,172.357,113.6,173.623,113.6,175.657Z" transform="translate(31.679 97.671)" fill="#8c3100"/>
    <path id="Trazado_386" data-name="Trazado 386" d="M111.809,173.973a11.033,11.033,0,0,1-5.047,8.712,3.953,3.953,0,0,1-2.725.652,4.471,4.471,0,0,1-.345-1.919,11.053,11.053,0,0,1,5.047-8.712,3.838,3.838,0,0,1,2.744-.614,4.759,4.759,0,0,1,.326,1.881Z" transform="translate(31.512 97.667)" fill="#b34404"/>
    <path id="Trazado_387" data-name="Trazado 387" d="M129.611,146.993,46.37,195.042v-3.454l83.241-48.068Z" transform="translate(42.608 131.861)" fill="#141414"/>
    <path id="Trazado_388" data-name="Trazado 388" d="M111.647,101.041,96.2,92.138l2.283-6.678,15.447,8.923Z" transform="translate(88.396 78.511)" fill="#ff963e"/>
    <path id="Trazado_389" data-name="Trazado 389" d="M68.613,161.928,42.44,147.114,80.376,125.22l25.9,14.967Z" transform="translate(38.997 115.046)" fill="#ff7101"/>
    <path id="Trazado_390" data-name="Trazado 390" d="M62.551,181.369,28.76,161.854V158.4l33.791,19.515Z" transform="translate(26.427 145.534)" fill="#070707"/>
    <path id="Trazado_391" data-name="Trazado 391" d="M42.1,358.536c0,6.332,4.145,12.684,12.453,17.5l86.081,49.66V406.009c0-3.32,2.092-6.582,6.14-9.249l-30.069-17.27c-3.3-1.919-4.989-4.452-4.97-6.985l.115-40.45c0-2.475,1.631-4.97,4.874-6.85L450.975,130.861a26.557,26.557,0,0,1,23.909,0L554.268,176.7V160.086a4.644,4.644,0,0,1,2.706-3.838,14.737,14.737,0,0,1,13.317,0l56.741,32.774a4.8,4.8,0,0,1,2.821,3.838l-.1,27.421,41.39,23.89c3.339,1.919,4.989,4.452,4.989,6.985v24.178l35.192-20.455c8.155-4.72,12.242-10.957,12.262-17.27q0,20.263-.134,40.45c0,6.275-4.087,12.511-12.242,17.27l-402.023,233.7c-16.464,9.594-43.367,9.594-59.888,0L54.363,416.467c-8.309-4.8-12.492-11.129-12.473-17.481C41.948,385.5,41.967,372.045,42.1,358.536Z" transform="translate(-25.273 57.211)" fill="#a8abad"/>
    <path id="Trazado_392" data-name="Trazado 392" d="M83.215,325.128,417.483,130.861a26.557,26.557,0,0,1,23.909,0l196.32,113.348c6.62,3.838,6.659,10.036,0,13.854L303.54,452.273a26.5,26.5,0,0,1-23.909,0L83.292,339.059C76.749,335.221,76.653,328.947,83.215,325.128Z" transform="translate(8.219 57.211)" fill="#07c8c3"/>
    <g id="Grupo_46" data-name="Grupo 46" transform="translate(150.094 376.928)">
      <g id="Grupo_45" data-name="Grupo 45" clip-path="url(#clip-path)">
        <path id="Trazado_393" data-name="Trazado 393" d="M160.183,234.27a27.363,27.363,0,0,0-7.675-2.9,31.7,31.7,0,0,0-8.328-.748,36.671,36.671,0,0,0-8.6,1.458,37.647,37.647,0,0,0-8.4,3.608l-2.4,1.4a26,26,0,0,0-6.256,4.836,9.422,9.422,0,0,0-2.533,4.97,6.7,6.7,0,0,0,1.286,4.778,15.16,15.16,0,0,0,5.143,4.375A30.492,30.492,0,0,0,129.481,259a31.127,31.127,0,0,0,7.138,1.094,29.67,29.67,0,0,0,6.927-.633,27.112,27.112,0,0,0,6.39-2.245l-7.56-4.375a17.271,17.271,0,0,1-3.473,1.3,12.032,12.032,0,0,1-6.793-.134,16.7,16.7,0,0,1-3.492-1.554,7.023,7.023,0,0,1-2.725-2.4,2.878,2.878,0,0,1-.192-2.59,7.925,7.925,0,0,1,2.264-2.84,31.084,31.084,0,0,1,4.548-3.128l2.456-1.42a27.65,27.65,0,0,1,10.477-3.838,13.432,13.432,0,0,1,8.481,1.689,11.034,11.034,0,0,1,2.763,2.092,2.974,2.974,0,0,1,.844,1.919,3.051,3.051,0,0,1-.844,1.919,11.341,11.341,0,0,1-2.3,2.015l7.56,4.375a15.044,15.044,0,0,0,3.838-3.838,6.351,6.351,0,0,0,1.209-4.03,7.388,7.388,0,0,0-1.784-4.164,18.71,18.71,0,0,0-5.123-4.068Z" transform="translate(-107.318 -225.462)" fill="#fff"/>
        <path id="Trazado_394" data-name="Trazado 394" d="M155.66,255.083l18.248-5.315L164.852,260.4Zm30.99-8.654-7-4.049L129.41,255.812l8.059,4.644,10.055-2.917,13.279,7.675-4.97,5.757,8.059,4.663,22.758-29.186Z" transform="translate(-94.947 -214.633)" fill="#fff"/>
        <path id="Trazado_395" data-name="Trazado 395" d="M161.165,223.225l-7.58-4.375L117.05,240.092l23.66,13.662,6.044-3.512-16.08-9.287,30.491-17.73Z" transform="translate(-42.54 -175.848)" fill="#fff"/>
        <path id="Trazado_396" data-name="Trazado 396" d="M176.865,232.3l-7.58-4.375L132.75,249.143l23.679,13.682,6.044-3.531-16.1-9.287L176.865,232.3Z" transform="translate(-28.114 -167.514)" fill="#fff"/>
      </g>
    </g>
    <path id="Trazado_398" data-name="Trazado 398" d="M134.995,269.725c-9.594-5.546-25.08-5.565-34.54,0s-9.441,14.507.154,20.033l35.346,20.417c9.594,5.526,25.06,5.565,34.54,0s9.441-14.507-.154-20.033Z" transform="translate(22.046 183.593)" fill="#223040"/>
    <path id="Trazado_399" data-name="Trazado 399" d="M711.077,233.389,516.158,120.866c-16.521-9.594-43.5-9.594-59.926,0l-11.091,6.447-7.426,4.26-45.381,26.365-7.522,4.375L54.227,354.508c-16.464,9.594-16.33,25.156.192,34.712L249.281,501.743c16.541,9.594,43.462,9.594,59.907,0L711.269,268.1C727.676,258.564,727.6,242.868,711.077,233.389Zm-154.1-63.956a14.737,14.737,0,0,1,13.317,0l56.741,32.774c3.723,2.13,3.742,5.584,0,7.676a14.68,14.68,0,0,1-13.317,0l-56.741-32.736C553.365,175.016,553.346,171.562,556.973,169.432ZM217.754,449.742c-9.594,5.546-24.945,5.507-34.54,0l-35.4-20.436c-9.594-5.526-9.71-14.487-.154-20.033s24.945-5.526,34.54,0l35.346,20.417C227.195,435.235,227.291,444.2,217.754,449.742ZM671.242,271.286,336.974,465.457a26.5,26.5,0,0,1-23.909,0L116.725,352.244c-6.543-3.838-6.639-10.017,0-13.835L402.388,172.388l7.522-4.375,41.083-23.871a20.052,20.052,0,0,1,4.836-1.919,28.4,28.4,0,0,1,15.466.365,17.52,17.52,0,0,1,3.608,1.573l196.32,113.348c6.543,3.684,6.582,9.921.019,13.739Z" transform="translate(-25.214 44.027)" fill="#fff"/>
    <path id="Trazado_400" data-name="Trazado 400" d="M324.966,143.481a14.737,14.737,0,0,0-13.317,0c-3.627,2.13-3.608,5.584,0,7.675l56.895,32.794a14.68,14.68,0,0,0,13.317,0c3.684-2.149,3.665-5.6,0-7.676Z" transform="translate(220.109 69.959)" fill="#223040"/>
    <path id="Trazado_401" data-name="Trazado 401" d="M235.187,98.162c16.924-2.4,35.307,16.214,35.307,16.214,11,7.675,19.745,67.295,23.43,106.824a22.7,22.7,0,0,1-11.245,21.741l-31.163,17.98S222.445,105.166,235.187,98.162Z" transform="translate(149.375 29.581)" fill="#e39800"/>
    <path id="Trazado_402" data-name="Trazado 402" d="M158.65,177.487c11.168-16.56,52.232-47.972,52.232-47.972s50.14-37.3,91.665-31.124l.288.192a64.532,64.532,0,0,1,28.476,54.189L330.2,255.393,205.087,328.31c.154-9-2.59-102.525-4.145-108.9C198.236,191.111,158.65,177.487,158.65,177.487Z" transform="translate(82.015 29.352)" fill="#f8bc07"/>
    <path id="Trazado_403" data-name="Trazado 403" d="M257.76,205.909s3.339-54.918-14.468-76.275S210,107.97,206.43,106.607c15.485-7.042,22.508-7.675,22.508-7.675s16.963-3.492,31.527,16.56c20.474,23.564,18.287,78.117,18.287,78.117Z" transform="translate(125.919 30.27)" fill="#032f5b"/>
    <path id="Trazado_404" data-name="Trazado 404" d="M199.527,160.386c17.078,13.432,40.968,14.065,53.364,1.535s8.616-33.523-8.443-46.9c-10.669-8.347-23.545-11.513-27.555-9.594-6.486,1.8-32.41,19.822-32.41,19.822C181.8,136.938,187.189,150.677,199.527,160.386Z" transform="translate(105.132 35.956)" fill="#e39800"/>
    <path id="Trazado_405" data-name="Trazado 405" d="M253.912,127.523s11.609,56.588-36.631,42.618c-32.026-13.183-31.22-33.926-31.22-33.926V96.36Z" transform="translate(107.201 28.121)" fill="#f0be77"/>
    <path id="Trazado_406" data-name="Trazado 406" d="M194.582,148.919,189.44,103.73l-9.94,5.162,8.29,43.942Z" transform="translate(164.938 95.299)" fill="#e39800"/>
    <path id="Trazado_407" data-name="Trazado 407" d="M195.081,131.844s-13.432-16.656-13.778-23.468S174.28,65.47,174.28,65.47h135.2s3.588,106.747-38.857,113.693C228.814,184.9,195.081,131.844,195.081,131.844Z" transform="translate(96.377 -0.263)" fill="#ffd9a3"/>
    <path id="Trazado_408" data-name="Trazado 408" d="M200.876,99.278s-2.168-22.105-15.85-12.626,3.185,33.734,10.458,32.141C202.315,117.315,200.876,99.278,200.876,99.278Z" transform="translate(101.481 17.029)" fill="#ffd9a3"/>
    <path id="Trazado_409" data-name="Trazado 409" d="M196.416,58.271C231.685,1.76,325.211,43.438,314.926,102.5c-30.951,42.215-94.37,4.452-95.234,12.473-3.358,21.491-3.358,20.263-11.705,38.665-.633-15.907-6.064-21.875-15.562-18.479-11.36,6.965,2.207,27.478,2.207,27.478s-21.894-22.624-22.8-52.731C171.355,93.655,173.773,70.437,196.416,58.271Z" transform="translate(94.083 -31.48)" fill="#161616"/>
    <path id="Trazado_410" data-name="Trazado 410" d="M186.19,46.367c-2.552,2.571,19.189,17.941,19.189,17.941S188.761,43.8,186.19,46.367Z" transform="translate(107.129 -18.021)" fill="#020202"/>
    <path id="Trazado_411" data-name="Trazado 411" d="M150.66,186.67l123.921-72.61-.787,65.875L151.255,251.355Z" transform="translate(138.438 104.791)" fill="#075598"/>
    <path id="Trazado_412" data-name="Trazado 412" d="M164.27,207.23l75.047-43.347V138.63L164.27,181.958Z" transform="translate(150.943 127.368)" fill="#032f5b"/>
    <path id="Trazado_413" data-name="Trazado 413" d="M170.816,139.28a42.522,42.522,0,0,1,8.884,2.053,55.647,55.647,0,0,1,37.092,44.729c5.757,37.744,3.051,102.545,3.051,102.545l-27.977,16.138a30.7,30.7,0,0,1-30.453.173l-.326-.173a30.7,30.7,0,0,1-15.581-29.205C149.306,228.181,149,148.337,170.816,139.28Z" transform="translate(69.849 67.559)" fill="#e39800"/>
    <path id="Trazado_414" data-name="Trazado 414" d="M212.972,231.4s.652-46.053-17.155-67.468S165,139.866,165,139.866l17.865-16.2s7.906-.652,30.107,26.116,21.012,69.31,21.012,69.31Z" transform="translate(87.85 53.215)" fill="#032f5b"/>
    <path id="Trazado_415" data-name="Trazado 415" d="M287.56,142.63v13.989a3.646,3.646,0,0,0,2.149,2.993,11.513,11.513,0,0,0,10.324,0,3.627,3.627,0,0,0,2.13-2.993V142.63Z" transform="translate(200.467 70.637)" fill="#1c1c1c"/>
    <path id="Trazado_416" data-name="Trazado 416" d="M300.03,147.621a11.379,11.379,0,0,1-10.323,0c-2.859-1.631-2.859-4.3,0-5.949a11.379,11.379,0,0,1,10.324,0C302.87,143.323,302.87,145.99,300.03,147.621Z" transform="translate(200.47 68.62)" fill="#373737"/>
    <path id="Trazado_417" data-name="Trazado 417" d="M282.94,125.13v33.292c0,2.4,1.593,4.778,4.74,6.6a25.252,25.252,0,0,0,22.854,0c3.166-1.823,4.74-4.2,4.74-6.6V125.13Z" transform="translate(196.222 54.557)" fill="#0a0a0a"/>
    <path id="Trazado_418" data-name="Trazado 418" d="M310.531,136.194a25.252,25.252,0,0,1-22.854,0c-6.313-3.646-6.313-9.594,0-13.2a25.368,25.368,0,0,1,22.854,0C316.844,126.638,316.844,132.548,310.531,136.194Z" transform="translate(196.224 50.094)" fill="#373737"/>
    <path id="Trazado_419" data-name="Trazado 419" d="M279.9,123.38v6.351c0,3.262,2.149,6.505,6.447,9,8.6,4.951,22.528,4.951,31.124,0,4.3-2.495,6.447-5.757,6.447-9V123.38Z" transform="translate(193.429 52.949)" fill="#1c1c1c"/>
    <ellipse id="Elipse_4" data-name="Elipse 4" cx="22.009" cy="12.703" rx="22.009" ry="12.703" transform="translate(473.329 163.626)" fill="#373737"/>
    <path id="Trazado_420" data-name="Trazado 420" d="M279.9,118.93v6.351c0,3.243,2.149,6.5,6.447,8.98,8.6,4.951,22.528,4.951,31.124,0,4.3-2.475,6.447-5.757,6.447-8.98V118.93Z" transform="translate(193.429 48.86)" fill="#1c1c1c"/>
    <path id="Trazado_421" data-name="Trazado 421" d="M317.472,134c-8.6,4.951-22.528,4.951-31.124,0s-8.6-13.01,0-17.98,22.528-4.951,31.124,0S326.145,128.993,317.472,134Z" transform="translate(193.429 42.769)" fill="#373737"/>
    <path id="Trazado_422" data-name="Trazado 422" d="M279.9,111.81v11.321c0,3.262,2.149,6.5,6.447,9,8.6,4.951,22.528,4.951,31.124,0,4.3-2.495,6.447-5.757,6.447-9V111.81Z" transform="translate(193.429 42.318)" fill="#1c1c1c"/>
    <path id="Trazado_423" data-name="Trazado 423" d="M317.472,126.876c-8.6,4.97-22.528,4.97-31.124,0s-8.6-12.991,0-17.961,22.528-4.97,31.124,0S326.145,121.925,317.472,126.876Z" transform="translate(193.429 36.232)" fill="#373737"/>
    <path id="Trazado_424" data-name="Trazado 424" d="M283.56,84.41v52a7.426,7.426,0,0,0,4.394,6.1,23.41,23.41,0,0,0,21.108,0,7.426,7.426,0,0,0,4.375-6.1v-52Z" transform="translate(196.792 17.14)" fill="#b9b9b9"/>
    <path id="Trazado_425" data-name="Trazado 425" d="M309.1,94.647a23.411,23.411,0,0,1-21.108,0c-5.852-3.377-5.852-8.846,0-12.223a23.41,23.41,0,0,1,21.108,0C314.933,85.839,314.933,91.27,309.1,94.647Z" transform="translate(196.831 13.005)" fill="#fff"/>
    <path id="Trazado_426" data-name="Trazado 426" d="M287.56,81.56v4.778a3.646,3.646,0,0,0,2.149,2.974,11.379,11.379,0,0,0,10.324,0,3.627,3.627,0,0,0,2.13-2.974V81.56Z" transform="translate(200.467 14.522)" fill="#1c1c1c"/>
    <path id="Trazado_427" data-name="Trazado 427" d="M300.03,86.551a11.379,11.379,0,0,1-10.323,0c-2.859-1.65-2.859-4.317,0-5.948a11.379,11.379,0,0,1,10.324,0C302.87,82.234,302.87,84.9,300.03,86.551Z" transform="translate(200.47 12.504)" fill="#373737"/>
    <path id="Trazado_428" data-name="Trazado 428" d="M290,75V87.146a1.286,1.286,0,0,0,.748,1.036,3.953,3.953,0,0,0,3.588,0,1.286,1.286,0,0,0,.748-1.036V75Z" transform="translate(202.709 8.494)" fill="#1c1c1c"/>
    <path id="Trazado_429" data-name="Trazado 429" d="M294.374,76.739a3.953,3.953,0,0,1-3.588,0,1.094,1.094,0,0,1,0-2.072,3.953,3.953,0,0,1,3.588,0,1.094,1.094,0,0,1,0,2.072Z" transform="translate(202.748 7.791)" fill="#373737"/>
    <path id="Trazado_430" data-name="Trazado 430" d="M225.28,194.886l16.2-9.326v11.628l-16.2,9.326Z" transform="translate(207.004 170.491)" fill="#b3b3b5"/>
    <path id="Trazado_431" data-name="Trazado 431" d="M233.72,197.188l6.659.556V186.116l-6.659-.556Z" transform="translate(214.759 170.491)" fill="#969697"/>
    <path id="Trazado_432" data-name="Trazado 432" d="M223.94,206.048l-16.08,7.119V201.52l16.08-7.1Z" transform="translate(190.997 178.632)" fill="#969697"/>
    <path id="Trazado_433" data-name="Trazado 433" d="M234.2,206.125l-17.961-.077V194.42l17.961.077Z" transform="translate(198.697 178.632)" fill="#b3b3b5"/>
    <path id="Trazado_434" data-name="Trazado 434" d="M294.312,215.31l-57.2,23.026,7.675,4.413,16.061-7.1,13.586,2.053a4.605,4.605,0,0,0,4.375-1.919l-.614-7.676,16.272-9.556,6.659.576Z" transform="translate(154.11 137.421)" fill="#fff"/>
    <path id="Trazado_435" data-name="Trazado 435" d="M259.455,199.318,219.6,232.342V220.714l39.855-33.024Z" transform="translate(201.785 172.448)" fill="#969697"/>
    <path id="Trazado_436" data-name="Trazado 436" d="M275.173,230c0,.614-.768,1.19-1.919,1.727l-53.306,24.638a8.808,8.808,0,0,1-7.464-.23l-6.1-3.531a2.648,2.648,0,0,1-1.631-2.437h0V262.1h0a2.821,2.821,0,0,0,1.612,2.13l6.1,3.531a8.884,8.884,0,0,0,7.464.249l53.326-24.581c1.17-.537,2.015-1.132,1.919-1.746h0V230Z" transform="translate(124.375 150.919)" fill="#e9880b"/>
    <path id="Trazado_437" data-name="Trazado 437" d="M206.388,256.4l6.1,3.531a8.808,8.808,0,0,0,7.464.23l53.306-24.638c1.65-.768,2.725-1.65,1.228-2.514L262.842,226.3a3.512,3.512,0,0,0-2.859-.154h0c-.959.384-1.247,1.113-.691,1.689h0c1.094,1.132.5,2.571-1.343,3.3l-50.793,20.321C204.278,252.6,203.913,254.982,206.388,256.4Z" transform="translate(124.368 147.16)" fill="#ffcb03"/>
    <path id="Trazado_438" data-name="Trazado 438" d="M284.212,238a.921.921,0,0,1-.384.787h0a3.358,3.358,0,0,1-2.917.4h0a6.582,6.582,0,0,0-5.757.787L240.02,269.3a8.4,8.4,0,0,1-8.558.441l-6.121-3.531a2.782,2.782,0,0,1-1.631-2.245h0v11.667h0a2.859,2.859,0,0,0,1.631,2.226l6.121,3.531a8.443,8.443,0,0,0,8.558-.461l35.135-29.32a6.639,6.639,0,0,1,5.757-.787h0a3.358,3.358,0,0,0,2.917-.384h0a1,1,0,0,0,.365-.71h0V238Z" transform="translate(141.797 158.27)" fill="#e9880b"/>
    <path id="Trazado_439" data-name="Trazado 439" d="M231.435,273.548l-6.121-3.531c-2.015-1.151-2.187-3.013-.422-4.3l42.695-30.7a3.838,3.838,0,0,1,4.375-.71l11.628,6.716c.768.461.883,1.151.269,1.65h0a3.358,3.358,0,0,1-2.917.4h0a6.582,6.582,0,0,0-5.757.787l-35.135,29.32a8.4,8.4,0,0,1-8.616.365Z" transform="translate(141.767 154.518)" fill="#ffcb03"/>
    <path id="Trazado_440" data-name="Trazado 440" d="M237.19,189.611V185.85l.365,3.55Z" transform="translate(217.948 170.757)" fill="#969697"/>
    <path id="Trazado_441" data-name="Trazado 441" d="M223.731,201.5l-3.761-7.944V194.9l3.3,6.966Z" transform="translate(202.125 177.842)" fill="#969697"/>
    <path id="Trazado_442" data-name="Trazado 442" d="M296.37,220.852,256.5,253.875l-7.675-4.413,12.108-9.383-3.838-7.963c0-1.209,1.4-2.264,3.454-2.514l13.816.576,16.157-9.307-.365-3.531Z" transform="translate(164.87 139.286)" fill="#fff"/>
    <path id="Trazado_443" data-name="Trazado 443" d="M259.574,226.242a1.17,1.17,0,0,0-.556-.537,3.4,3.4,0,0,0-3.2,0,1.267,1.267,0,0,0-.556.537c-.249-.441,0-.94.556-1.286a3.492,3.492,0,0,1,3.2,0C259.631,225.4,259.8,225.8,259.574,226.242Z" transform="translate(170.695 145.927)" fill="#b3b3b5"/>
    <path id="Trazado_444" data-name="Trazado 444" d="M259.527,225.89a1.286,1.286,0,0,1-.557.556,3.492,3.492,0,0,1-3.2,0,1.286,1.286,0,0,1-.556-.556,1.267,1.267,0,0,1,.557-.537,3.4,3.4,0,0,1,3.2,0A1.17,1.17,0,0,1,259.527,225.89Z" transform="translate(170.742 146.28)" fill="#969697"/>
    <path id="Trazado_445" data-name="Trazado 445" d="M245.809,201.467a3.838,3.838,0,0,0-1.689,2.974c0,1.094.768,1.554,1.727.959a3.627,3.627,0,0,0,1.689-2.955C247.593,201.352,246.864,200.949,245.809,201.467Z" transform="translate(160.551 124.495)" fill="#9e2212"/>
    <path id="Trazado_446" data-name="Trazado 446" d="M245.992,199.706l-5.162,3.013v8.021l2.744-1.612v-4.855l5.085-2.993a2.418,2.418,0,0,1,2.437-.211l-2.763-1.612A2.514,2.514,0,0,0,245.992,199.706Z" transform="translate(157.528 122.688)" fill="#9e2212"/>
    <path id="Trazado_447" data-name="Trazado 447" d="M247.435,200.53l-5.085,2.993V211.6l5.123-3.032a7.676,7.676,0,0,0,3.416-5.968h0C250.831,200.338,249.239,199.494,247.435,200.53Zm.192,5.929c-.959.595-1.727.134-1.727-.959a3.838,3.838,0,0,1,1.689-2.974c1-.518,1.727-.115,1.727.979a3.626,3.626,0,0,1-1.785,2.955Z" transform="translate(158.925 123.437)" fill="#e73f2e"/>
    <path id="Trazado_448" data-name="Trazado 448" d="M213.02,168.74Z" transform="translate(195.739 155.035)" fill="#0f0f0f"/>
    <path id="Trazado_449" data-name="Trazado 449" d="M267.249,205.012a10.285,10.285,0,0,0-14.18-3.742L216.61,222.531l10.573,18.133L263.642,219.4a10.3,10.3,0,0,0,3.723-14.219Z" transform="translate(135.273 123.196)" fill="#fa4836"/>
    <path id="Trazado_450" data-name="Trazado 450" d="M222.848,212.408c-4.145-2.379-7.464-.441-7.388,4.241a16.234,16.234,0,0,0,7.464,12.895c4.145,2.322,7.464.4,7.388-4.317a16.1,16.1,0,0,0-7.464-12.818Z" transform="translate(134.216 133.818)" fill="#9e2212"/>
    <path id="Trazado_451" data-name="Trazado 451" d="M223.1,212.93a5.181,5.181,0,0,0-5.3-.461l-4.663,2.667,10.592,18.229,4.644-2.725a5.315,5.315,0,0,0,2.188-4.816A16.406,16.406,0,0,0,223.1,212.93Z" transform="translate(132.085 134.333)" fill="#fa4836"/>
    <path id="Trazado_452" data-name="Trazado 452" d="M219.427,214.382c-4.126-2.36-7.445-.422-7.407,4.3a16.368,16.368,0,0,0,7.464,12.876c4.087,2.341,7.445.422,7.445-4.317a16.426,16.426,0,0,0-7.5-12.856Z" transform="translate(131.055 135.644)" fill="#9e2212"/>
    <path id="Trazado_453" data-name="Trazado 453" d="M154.283,223.245l-6.083.672-5.91,6.524v2.706l1.9,1.113v-2.706l6.006-6.543,6.006-.691,64.282-37.437-1.976-1.132Z" transform="translate(130.747 170.665)" fill="#fff"/>
    <path id="Trazado_454" data-name="Trazado 454" d="M149.286,224.468l-6.006,6.543v2.706l6.064-.518,5.948-6.255,64.282-37.456V186.34l-64.282,37.437Z" transform="translate(131.656 171.207)" fill="#b2b2b2"/>
    <path id="Trazado_455" data-name="Trazado 455" d="M241.026,205.1a1.919,1.919,0,0,0-2.571-.691l-.844.461a1.919,1.919,0,0,1,2.571.729h0a1.919,1.919,0,0,1-.729,2.552l.825-.461a1.919,1.919,0,0,0,.691-2.61Z" transform="translate(154.57 127.181)" fill="#b2b2b2"/>
    <path id="Trazado_456" data-name="Trazado 456" d="M252.3,205.369a1.919,1.919,0,0,0-2.571-.729l-24.293,14.123a1.892,1.892,0,0,0,1.919,3.262l24.178-14.1a1.919,1.919,0,0,0,.729-2.552Z" transform="translate(142.548 127.406)" fill="#fff"/>
    <path id="Trazado_457" data-name="Trazado 457" d="M252.848,208.41v.307a3.838,3.838,0,0,1-1.573,2.84L226.233,226.14c-.461.269-.844.307-1.113,0,0,.863.748,1.19,1.573.748l25.06-14.564a3.493,3.493,0,0,0,1.669-2.782h0a1.363,1.363,0,0,0-.576-1.132Z" transform="translate(143.093 131.081)" fill="#fff"/>
    <path id="Trazado_458" data-name="Trazado 458" d="M226.73,223.154a3.588,3.588,0,0,0-1.65,2.821h0v.211a1.988,1.988,0,0,0,1.113,0L251.234,211.6a3.838,3.838,0,0,0,1.573-2.84v-.307a1.19,1.19,0,0,0-1.113.154Z" transform="translate(143.056 131.054)" fill="#fff"/>
    <path id="Trazado_459" data-name="Trazado 459" d="M249.685,202.37a3.358,3.358,0,0,0-3.243,0L221.5,216.934c-.844.48-.9,1.228-.192,1.727a1.075,1.075,0,0,1,.652-.921l24.945-14.6a3.838,3.838,0,0,1,3.3,0h0c.1,0,.154,0,.192.211a.94.94,0,0,0-.652-.959Z" transform="translate(139.136 125.147)" fill="#b2b2b2"/>
    <path id="Trazado_460" data-name="Trazado 460" d="M249.938,202.769a3.838,3.838,0,0,0-3.3,0l-24.945,14.6a1.075,1.075,0,0,0-.652.921s0,.134.192.173h0a3.684,3.684,0,0,0,3.262,0L249.439,203.9c.461-.307.652-.595.652-.883s0-.154-.192-.211Z" transform="translate(139.344 125.554)" fill="#fff"/>
    <path id="Trazado_461" data-name="Trazado 461" d="M292.116,173.1a6.716,6.716,0,0,0,0,10.746,16,16,0,0,0,2.111,1.593,27.209,27.209,0,0,1,25.751.115,14.681,14.681,0,0,0,2.168-1.535,6.716,6.716,0,0,0,0-10.727C315.1,166.809,299.255,166.732,292.116,173.1Z" transform="translate(202.186 94.296)" fill="#9e2212"/>
    <path id="Trazado_462" data-name="Trazado 462" d="M358.15,183.482a16.791,16.791,0,0,0-3.838-5.757c-.249-.211-.441-.441-.672-.614l11.782-6.754-11.245-6.582-11.763,6.735a50.64,50.64,0,0,0-11-2.686V158.23H315.4v9.594a54.322,54.322,0,0,0-10.957,2.552l-11.763-6.831-11.341,6.486,11.705,6.831c-.23.192-.441.441-.614.614a18.266,18.266,0,0,0-3.991,5.757H271.82v9.1h16.617a15.347,15.347,0,0,0,1.19,2.3,19.323,19.323,0,0,0,3.32,4.068l-11.8,6.735,1.286.729,9.805,5.757h.211l11.782-6.7c1.055.4,2.188.71,3.281,1.055a60.986,60.986,0,0,0,7.676,1.631v9.575l16.042.1v-9.594a58.352,58.352,0,0,0,7.675-1.516l3.3-1.036,11.648,6.831h.269l9.863-5.642,1.266-.748-11.744-6.812a17.27,17.27,0,0,0,3.358-4.03,12.221,12.221,0,0,0,1.228-2.3h16.656V183.5H364.08Zm-19.86,9.863a14.685,14.685,0,0,1-2.168,1.535,27.325,27.325,0,0,1-25.751-.115,16.005,16.005,0,0,1-2.111-1.593,6.716,6.716,0,0,1,0-10.746c7.138-6.371,23.026-6.294,30.03.192a6.716,6.716,0,0,1,0,10.727Z" transform="translate(186.004 84.972)" fill="#ff4f3d"/>
    <path id="Trazado_463" data-name="Trazado 463" d="M243.41,165.2l11.3,6.582.077-13.874-11.3-6.582Z" transform="translate(223.663 139.038)" fill="#d62412"/>
    <path id="Trazado_464" data-name="Trazado 464" d="M249.3,171.85l11.782-6.735.058-13.854-11.763,6.716Z" transform="translate(229.075 138.973)" fill="#9e2212"/>
    <path id="Trazado_465" data-name="Trazado 465" d="M261.12,171.514l16,.1.115-13.873L261.2,157.66Z" transform="translate(239.936 144.854)" fill="#d62412"/>
    <path id="Trazado_466" data-name="Trazado 466" d="M288.66,196.625a52.981,52.981,0,0,0,10.976,2.686l.1-13.835a70.023,70.023,0,0,1-11-2.686Z" transform="translate(201.478 107.539)" fill="#d62412"/>
    <path id="Trazado_467" data-name="Trazado 467" d="M238.54,158.324l9.422.038v-.729l7.234-4.126.058-8.961-16.617-.077Z" transform="translate(219.188 132.734)" fill="#9e2212"/>
    <path id="Trazado_468" data-name="Trazado 468" d="M280.45,184.951l4.548-2.59a17.826,17.826,0,0,1-4.509-6.371Z" transform="translate(193.934 101.291)" fill="#d62412"/>
    <path id="Trazado_469" data-name="Trazado 469" d="M275.23,165.215l11.724,6.85.019-13.854-11.667-6.831Z" transform="translate(252.902 139.084)" fill="#d62412"/>
    <path id="Trazado_470" data-name="Trazado 470" d="M281.34,171.9l11.379-6.467.019-13.873-11.379,6.486Z" transform="translate(258.516 139.249)" fill="#c12815"/>
    <path id="Trazado_471" data-name="Trazado 471" d="M302.806,185.433s0,13.029-.1,13.854a49.411,49.411,0,0,0,11.034-2.571s.134-14.775,0-13.835a61.3,61.3,0,0,1-10.938,2.552Z" transform="translate(214.388 107.583)" fill="#9e2212"/>
    <path id="Trazado_472" data-name="Trazado 472" d="M283.53,153.652l7.2,4.2v.748l9.422.019.077-13.835-16.656-.077Z" transform="translate(260.528 132.955)" fill="#d62412"/>
    <path id="Trazado_473" data-name="Trazado 473" d="M314.39,182.522l4.548,2.61V176.19A20.244,20.244,0,0,1,314.39,182.522Z" transform="translate(225.121 101.475)" fill="#9e2212"/>
    <path id="Trazado_474" data-name="Trazado 474" d="M319.006,177.7h7.2V164.52l-11.782,6.754A17.6,17.6,0,0,1,319.006,177.7Z" transform="translate(225.148 90.751)" fill="#9e2212"/>
    <path id="Trazado_475" data-name="Trazado 475" d="M276.74,177.454h7.177a19.189,19.189,0,0,1,4.605-6.313l-11.705-6.831Z" transform="translate(190.525 90.558)" fill="#9e2212"/>
    <path id="Trazado_476" data-name="Trazado 476" d="M303.1,207.921a3.838,3.838,0,0,0,0,6.255,11.781,11.781,0,0,0,1.209.921,15.792,15.792,0,0,1,14.967,0,8.629,8.629,0,0,0,1.247-.9,3.838,3.838,0,0,0,0-6.236C316.458,204.294,307.248,204.236,303.1,207.921Z" transform="translate(213.266 128.116)" fill="#9e2212"/>
    <path id="Trazado_477" data-name="Trazado 477" d="M341.4,213.95a9.69,9.69,0,0,0-2.245-3.32,3.357,3.357,0,0,0-.384-.365l6.831-3.838L339.1,202.59l-6.85,3.838a30.335,30.335,0,0,0-6.371-1.554V199.29h-9.307v5.565a32.277,32.277,0,0,0-6.352,1.478l-6.812-3.953-6.582,3.838,6.774,3.953-.345.365a10.938,10.938,0,0,0-2.322,3.3H291.3v5.392h9.594a10.953,10.953,0,0,0,.672,1.343,11.918,11.918,0,0,0,1.919,2.36l-6.85,3.838.748.422,5.757,3.339h.115l6.831-3.838c.614.23,1.266.422,1.919.614a32.925,32.925,0,0,0,4.471.94v5.565h9.307v-5.565a37.578,37.578,0,0,0,4.471-.883l1.919-.595,6.774,3.953h.153l5.757-3.262.748-.441-6.908-4.03a10.21,10.21,0,0,0,1.919-2.341,6.039,6.039,0,0,0,.71-1.343h9.594v-5.373h-9.594Zm-11.513,5.757a8.635,8.635,0,0,1-1.247.9,15.907,15.907,0,0,1-14.967,0,11.774,11.774,0,0,1-1.209-.921,3.838,3.838,0,0,1,0-6.256c4.145-3.684,13.432-3.627,17.423.115a3.838,3.838,0,0,1-.019,6.14Z" transform="translate(203.904 122.701)" fill="#ff4f3d"/>
    <path id="Trazado_478" data-name="Trazado 478" d="M260.87,190.13l6.543,3.819.058-8.04-6.562-3.819Z" transform="translate(239.707 167.302)" fill="#d62412"/>
    <path id="Trazado_479" data-name="Trazado 479" d="M264.28,193.995l6.85-3.915.038-8.04-6.831,3.915Z" transform="translate(242.84 167.256)" fill="#9e2212"/>
    <path id="Trazado_480" data-name="Trazado 480" d="M271.15,193.8l9.287.058.058-8.059-9.306-.038Z" transform="translate(249.153 170.674)" fill="#d62412"/>
    <path id="Trazado_481" data-name="Trazado 481" d="M301.079,221.57a31.409,31.409,0,0,0,6.371,1.554v-8.04a39.19,39.19,0,0,1-6.39-1.554Z" transform="translate(212.872 135.785)" fill="#d62412"/>
    <path id="Trazado_482" data-name="Trazado 482" d="M258.04,186.14l5.469.038v-.422l4.2-2.4.019-5.2-9.652-.058Z" transform="translate(237.106 163.636)" fill="#9e2212"/>
    <path id="Trazado_483" data-name="Trazado 483" d="M296.3,214.81l2.648-1.5a10.4,10.4,0,0,1-2.61-3.7Z" transform="translate(208.498 132.183)" fill="#d62412"/>
    <path id="Trazado_484" data-name="Trazado 484" d="M279.34,190.15l6.793,3.972.019-8.04-6.774-3.972Z" transform="translate(256.678 167.321)" fill="#d62412"/>
    <path id="Trazado_485" data-name="Trazado 485" d="M282.88,194.021l6.6-3.761.019-8.04-6.6,3.761Z" transform="translate(259.931 167.422)" fill="#9e2212"/>
    <path id="Trazado_486" data-name="Trazado 486" d="M309.26,215.09v8.04a28.438,28.438,0,0,0,6.39-1.5s0-8.577,0-8.021A35.348,35.348,0,0,1,309.26,215.09Z" transform="translate(220.407 135.837)" fill="#9e2212"/>
    <path id="Trazado_487" data-name="Trazado 487" d="M284.15,183.421l4.183,2.456v.441H293.8l.058-8.04-9.671-.038Z" transform="translate(261.098 163.765)" fill="#d62412"/>
    <path id="Trazado_488" data-name="Trazado 488" d="M316,213.4l2.629,1.516v-5.2A12.089,12.089,0,0,1,316,213.4Z" transform="translate(226.6 132.285)" fill="#9e2212"/>
    <path id="Trazado_489" data-name="Trazado 489" d="M318.706,210.605h4.183V202.93L316,206.9a10.381,10.381,0,0,1,2.706,3.7Z" transform="translate(226.6 126.045)" fill="#9e2212"/>
    <path id="Trazado_490" data-name="Trazado 490" d="M294.15,210.448h4.164a11.167,11.167,0,0,1,2.667-3.665l-6.774-3.953Z" transform="translate(206.523 125.953)" fill="#9e2212"/>
    <path id="Trazado_491" data-name="Trazado 491" d="M334.742,195.449a2.648,2.648,0,0,0,0,4.221,6.722,6.722,0,0,0,.825.633,10.65,10.65,0,0,1,10.132,0,5.6,5.6,0,0,0,.844-.614,2.648,2.648,0,0,0,0-4.222,10.17,10.17,0,0,0-11.8-.019Z" transform="translate(242.858 117.446)" fill="#9e2212"/>
    <path id="Trazado_492" data-name="Trazado 492" d="M360.7,199.557a6.448,6.448,0,0,0-1.516-2.264l-.269-.249,4.644-2.648-4.413-2.59-4.644,2.648a20.589,20.589,0,0,0-4.318-1.055V189.56h-6.275V193.4a21.948,21.948,0,0,0-4.3,1l-4.72-2.706-4.375,2.552,4.605,2.686-.249.249a7.37,7.37,0,0,0-1.573,2.245H326.77v3.627h6.524a8.051,8.051,0,0,0,.461.9,8.813,8.813,0,0,0,1.3,1.593l-4.624,2.648.5.288,3.838,2.264h0L339.4,208.1l1.3.422a21.47,21.47,0,0,0,3.013.633v3.838h6.294v-3.838a25.666,25.666,0,0,0,3.032-.595l1.286-.4,4.586,2.686h.115l3.838-2.226.5-.288-4.605-2.686a7.04,7.04,0,0,0,1.324-1.573,5.3,5.3,0,0,0,.48-.921H367.1v-3.627h-6.543Zm-7.81,3.838a5.6,5.6,0,0,1-.844.614,10.823,10.823,0,0,1-10.132,0,6.727,6.727,0,0,1-.825-.633,2.648,2.648,0,0,1,0-4.221,10.17,10.17,0,0,1,11.8,0,2.648,2.648,0,0,1,0,4.279Z" transform="translate(236.496 113.76)" fill="#ff4f3d"/>
    <path id="Trazado_493" data-name="Trazado 493" d="M295.44,173.23l4.433,2.591.038-5.469-4.452-2.571Z" transform="translate(271.472 154.153)" fill="#d62412"/>
    <path id="Trazado_494" data-name="Trazado 494" d="M297.75,175.848l4.644-2.667.019-5.43-4.625,2.629Z" transform="translate(273.595 154.126)" fill="#9e2212"/>
    <path id="Trazado_495" data-name="Trazado 495" d="M302.4,175.71l6.294.038.038-5.45-6.313-.038Z" transform="translate(277.868 156.432)" fill="#d62412"/>
    <path id="Trazado_496" data-name="Trazado 496" d="M333.39,204.68a21.242,21.242,0,0,0,4.318,1.055v-5.45a27,27,0,0,1-4.318-1.055Z" transform="translate(242.579 122.646)" fill="#d62412"/>
    <path id="Trazado_497" data-name="Trazado 497" d="M293.52,170.51l3.7.038v-.288l2.84-1.631.019-3.531-6.524-.019Z" transform="translate(269.708 151.672)" fill="#9e2212"/>
    <path id="Trazado_498" data-name="Trazado 498" d="M330.16,200.092l1.785-1.017a7.139,7.139,0,0,1-1.765-2.495Z" transform="translate(239.611 120.211)" fill="#d62412"/>
    <path id="Trazado_499" data-name="Trazado 499" d="M307.94,173.23l4.605,2.686.019-5.43-4.586-2.686Z" transform="translate(282.958 154.171)" fill="#d62412"/>
    <path id="Trazado_500" data-name="Trazado 500" d="M310.34,175.853l4.49-2.533v-5.45l-4.471,2.552Z" transform="translate(285.164 154.236)" fill="#9e2212"/>
    <path id="Trazado_501" data-name="Trazado 501" d="M338.93,200.284v5.45a20.109,20.109,0,0,0,4.337-1.017s0-5.757,0-5.43a24.414,24.414,0,0,1-4.337,1Z" transform="translate(247.67 122.685)" fill="#9e2212"/>
    <path id="Trazado_502" data-name="Trazado 502" d="M311.21,168.7l2.821,1.65v.288h3.7l.038-5.43-6.563-.038Z" transform="translate(285.963 151.755)" fill="#d62412"/>
    <path id="Trazado_503" data-name="Trazado 503" d="M343.5,199.195l1.785,1.036V196.7a8.231,8.231,0,0,1-1.785,2.495Z" transform="translate(251.869 120.321)" fill="#9e2212"/>
    <path id="Trazado_504" data-name="Trazado 504" d="M345.314,197.251h2.84V192.07l-4.644,2.648a6.965,6.965,0,0,1,1.8,2.533Z" transform="translate(251.878 116.066)" fill="#9e2212"/>
    <path id="Trazado_505" data-name="Trazado 505" d="M328.7,197.161h2.821a7.56,7.56,0,0,1,1.823-2.495l-4.605-2.686Z" transform="translate(238.27 115.984)" fill="#9e2212"/>
    <path id="Trazado_506" data-name="Trazado 506" d="M176.565,403.271v-.211c0-5.6-3.492-12.146-7.81-14.641L52.682,321.411A5.468,5.468,0,0,0,48,320.74h0l4.126-2.188h0a5.315,5.315,0,0,1,4.72.672L172.88,386.212c4.317,2.495,7.81,9.057,7.81,14.66v.192c0,3.224-1.151,5.411-2.936,6.236h0l-4.049,2.149C175.432,408.586,176.565,406.418,176.565,403.271Z" transform="translate(-19.658 232.034)" fill="#610000"/>
    <path id="Trazado_507" data-name="Trazado 507" d="M178.072,402.232v-.211c0-5.6-3.492-12.146-7.81-14.641L54.189,320.373c-4.317-2.495-7.829,0-7.829,5.642v.192c0,5.6,3.512,12.166,7.829,14.66l116.034,66.988C174.541,410.349,178.072,407.835,178.072,402.232Z" transform="translate(-21.165 233.073)" fill="#d31b08"/>
    <path id="Trazado_508" data-name="Trazado 508" d="M53.794,387.275l57.566-91.991c2.034-3.243.192-10-4.087-15.082l-.154-.192c-3.454-4.03-7.58-5.949-9.978-4.625h0l5.507-3.128h0c2.475-1.286,6.543.48,10.055,4.663l.154.192c4.279,5.1,6.1,11.859,4.087,15.082L59.378,384.185a3.435,3.435,0,0,1-1.458,1.324l-5.45,3.109h0a3.568,3.568,0,0,0,1.324-1.343Z" transform="translate(-15.551 189.37)" fill="#3e0000"/>
    <path id="Trazado_509" data-name="Trazado 509" d="M49.467,382.261l.173.173c4.279,5.1,9.383,6.62,11.417,3.4l57.566-91.991c2.034-3.243.192-10-4.087-15.082l-.154-.192c-4.279-5.1-9.4-6.62-11.513-3.377L45.4,367.178C43.365,370.421,45.187,377.156,49.467,382.261Z" transform="translate(-22.813 190.872)" fill="#d31b08"/>
    <path id="Trazado_510" data-name="Trazado 510" d="M47.71,326.773a5.584,5.584,0,0,0,2.475,4.413c1.4.825,2.552.154,2.552-1.458a5.757,5.757,0,0,0-2.552-4.433C48.842,324.489,47.71,325.142,47.71,326.773Z" transform="translate(-19.925 238.167)" fill="#3b0000"/>
    <path id="Trazado_511" data-name="Trazado 511" d="M145.522,452.72c2.667-1.42,3.531-5.354,1.919-9.863L89.088,284.377c-2.053-5.565-7.177-9.921-11.513-9.729h-.154a4.988,4.988,0,0,0-2.111.556h0a63.884,63.884,0,0,1,6.025-2.322h.153c4.26-.192,9.383,4.164,11.513,9.729l58.315,158.5c1.612,4.375.825,8.213-1.669,9.729l-2.245,1.036Z" transform="translate(5.436 190.318)" fill="#400"/>
    <path id="Trazado_512" data-name="Trazado 512" d="M144.657,452.45H144.5c-4.26.211-9.383-4.145-11.513-9.729L74.752,284.242c-2.034-5.565-.249-10.228,4.03-10.439h.154c4.26-.192,9.383,4.164,11.513,9.729l58.315,158.48C150.72,447.6,148.917,452.258,144.657,452.45Z" transform="translate(4.152 191.163)" fill="#f2402d"/>
    <path id="Trazado_513" data-name="Trazado 513" d="M107.41,361.243a5.584,5.584,0,0,0,2.552,4.413c1.4.825,2.552.153,2.552-1.458a5.757,5.757,0,0,0-2.552-4.433C108.542,358.959,107.41,359.612,107.41,361.243Z" transform="translate(34.932 269.84)" fill="#3b0000"/>
    <path id="Trazado_514" data-name="Trazado 514" d="M77.31,279.489a5.757,5.757,0,0,0,2.552,4.433c1.42.806,2.552.154,2.552-1.478a5.584,5.584,0,0,0-2.552-4.413C78.461,277.206,77.31,277.858,77.31,279.489Z" transform="translate(7.274 194.726)" fill="#3b0000"/>
  </g>
</svg>
