<svg id="_60401_Convertido_" data-name="60401 [Convertido]" xmlns="http://www.w3.org/2000/svg" xmlns:xlink="http://www.w3.org/1999/xlink" width="324.765" height="324.765" viewBox="0 0 324.765 324.765">
  <defs>
    <linearGradient id="linear-gradient" x1="0.5" x2="0.5" y2="1" gradientUnits="objectBoundingBox">
      <stop offset="0" stop-color="#2d2d2e"/>
      <stop offset="0.241" stop-color="#e22223"/>
      <stop offset="0.619" stop-color="#ff2e0d"/>
      <stop offset="1" stop-color="#e8630d"/>
    </linearGradient>
  </defs>
  <rect id="Rectángulo_406" data-name="Rectángulo 406" width="324.765" height="324.765" fill="none"/>
  <path id="Trazado_106" data-name="Trazado 106" d="M307.939,230.2,253.779,193.04,199.62,230.2h24.618V409.809h59.083V230.2Z" transform="translate(-169.059 -163.486)" fill="url(#linear-gradient)"/>
  <path id="Trazado_107" data-name="Trazado 107" d="M629.752,1687.382H430.108L360.12,1608.94h59.129Z" transform="translate(-304.987 -1362.617)" fill="#dadada"/>
  <path id="Trazado_108" data-name="Trazado 108" d="M658.337,1124.481l-40.387-13.975,8.779-25.366,40.387,13.978Z" transform="translate(-523.344 -919.009)" fill="#203a6f"/>
  <path id="Trazado_109" data-name="Trazado 109" d="M748.876,1087.5l-3.426,9.9,1.5.517,2.736-7.9,11.867,4.106-2.736,7.906,1.5.519,3.425-9.9Z" transform="translate(-631.324 -921.008)" fill="#203a6f"/>
  <path id="Trazado_110" data-name="Trazado 110" d="M657.23,1137.34c.432,1.4.879,2.8,1.288,4.206l-.074-.078q2.246.724,4.475,1.494l4.46,1.54q4.455,1.555,8.861,3.246-4.513-1.39-8.973-2.926c-1.491-.5-2.976-1.018-4.457-1.545s-2.967-1.047-4.44-1.592l-.058-.021-.015-.057C657.919,1140.2,657.582,1138.764,657.23,1137.34Z" transform="translate(-556.611 -963.217)" fill="#71cbf4"/>
  <path id="Trazado_111" data-name="Trazado 111" d="M802.747,1208.89c-1.156.9-2.3,1.814-3.475,2.694l-.046.035-.06-.018q-2.246-.726-4.475-1.494c-1.491-.5-2.979-1.012-4.46-1.54q-4.455-1.554-8.861-3.247,4.513,1.39,8.971,2.927c1.493.5,2.976,1.018,4.458,1.545s2.967,1.047,4.44,1.592l-.106.017C800.331,1210.545,801.545,1209.723,802.747,1208.89Z" transform="translate(-661.745 -1020.79)" fill="#71cbf4"/>
  <rect id="Rectángulo_407" data-name="Rectángulo 407" width="2.691" height="10.184" transform="translate(114.373 184.126) rotate(-70.92)" fill="#fff"/>
  <rect id="Rectángulo_408" data-name="Rectángulo 408" width="3.183" height="2.691" transform="translate(117.577 186.342) rotate(-70.92)" fill="#fff"/>
  <path id="Trazado_112" data-name="Trazado 112" d="M1473.057,550.105c.565.138,2.806,4.155,3.243,5.738l2.388,5.052-4.134.739s-1.684-4.1-1.719-4.1a2.142,2.142,0,0,1-1.519-.426c-.6-.4-3.037-3.491-2.218-4.62a13.166,13.166,0,0,1,2.062-1.935A5.605,5.605,0,0,1,1473.057,550.105Z" transform="translate(-1244.043 -465.873)" fill="#dbf0fd"/>
  <path id="Trazado_113" data-name="Trazado 113" d="M1261.76,711.078c14.791-7.122,43.593,6.5,48.072,8.166,5.035,1.874,4.036,9.32-2.3,9.043-2.021-.089-37.786-6.439-39.6-7.22" transform="translate(-1068.589 -600.481)" fill="#203a6f"/>
  <path id="Trazado_114" data-name="Trazado 114" d="M1500.2,626.888c-2.909-6.268-7.582-26.542-9.388-31.026-.631-1.563-1.79-1.3-.943-2.848a6.728,6.728,0,0,1,3.249-2.5,3.777,3.777,0,0,1,1.912-.369c.833.181.684,1.828,1.168,2.459,1.9,2.483,13.73,29.143,12.565,31.29-.586,1.081-2.45,2.3-3.437,2.958C1503.839,627.84,1500.875,628.338,1500.2,626.888Z" transform="translate(-1261.523 -499.772)" fill="#203a6f"/>
  <path id="Trazado_115" data-name="Trazado 115" d="M1364.412,535.331l-.282-1.139,16.671-5.406,20.8-5.766,1.179,4.775-21.092,4.568Z" transform="translate(-1155.287 -442.948)" fill="#203a6f"/>
  <path id="Trazado_116" data-name="Trazado 116" d="M1475.32,553.376s.144,1.358,2.273,1.049a1.5,1.5,0,0,0,1.225-2.264A7.876,7.876,0,0,0,1475.32,553.376Z" transform="translate(-1249.454 -467.626)" fill="#dbf0fd"/>
  <path id="Trazado_117" data-name="Trazado 117" d="M1267.383,677.725s1.139,4.68-2.747,4.89c-4.134.222-4.783-4.486-4.783-4.486l-.6-11.245,7.528-.4Z" transform="translate(-1066.464 -564.444)" fill="#dbf0fd"/>
  <path id="Trazado_118" data-name="Trazado 118" d="M1098.84,1149.385s7.362,3.243,13.878,2.344c8.549-1.177,4.65-16.351,4.65-16.351s-5.758-1.487-7.716.847S1098.84,1149.385,1098.84,1149.385Z" transform="translate(-930.612 -961.161)" fill="#71cbf4"/>
  <path id="Trazado_119" data-name="Trazado 119" d="M796.527,1061.5s.214-1.016.231-1.318a2.522,2.522,0,0,0-.612-1.51c-.018-.026,2.286-3.082,2.286-3.082l-2.368-2.745-2.707,4a19.762,19.762,0,0,0-2.736,3.549c-1.026,1.99.49,2.276,1.8,2.73a2.446,2.446,0,0,0,1.661-.243,12.243,12.243,0,0,0,.868-2.029C795.042,1061.462,796.527,1061.5,796.527,1061.5Z" transform="translate(-669.294 -891.663)" fill="#dbf0fd"/>
  <path id="Trazado_120" data-name="Trazado 120" d="M956.7,715.622c-16.285-2.081-39.978,19.264-43.02,22.948-2.414,2.92-.88,10.12,5.035,7.854,1.891-.723,33.817-16.046,37.083-17.453" transform="translate(-772.873 -605.942)" fill="#203a6f"/>
  <path id="Trazado_121" data-name="Trazado 121" d="M826.58,864.467c-3.7,1.837-12.577,24.572-15.218,28.62-.919,1.413-2.007.919-1.476,2.6a6.778,6.778,0,0,0,2.7,3.083,3.779,3.779,0,0,0,1.8.73c.851-.017,1.024-1.661,1.623-2.186,2.345-2.067,19.114-25.931,18.385-28.263-.364-1.176-1.958-2.734-2.8-3.567A4.84,4.84,0,0,0,826.58,864.467Z" transform="translate(-685.777 -731.84)" fill="#203a6f"/>
  <path id="Trazado_122" data-name="Trazado 122" d="M1151.133,785.766l-23.52,1.263s-19.472-59.388-4.287-68.74c2.728-1.684,28.038-1.046,30.673,7.842C1162.8,755.841,1151.133,785.766,1151.133,785.766Z" transform="translate(-946.443 -607.696)" fill="#ededed"/>
  <path id="Trazado_123" data-name="Trazado 123" d="M1127.974,712.893s5.548,32.27-5.323,50.522-23.811,27.15-23.811,27.15,9.471-12.707,6.5-26.411-7.767-48.475,1.973-51.687C1116.44,709.466,1127.974,712.893,1127.974,712.893Z" transform="translate(-930.612 -602.348)" fill="#203a6f"/>
  <path id="Trazado_124" data-name="Trazado 124" d="M1316.135,802.8s14.024-37.986,2.868-62.157c-.919-1.99-2.45-4.674-6.833-4.44.081.066,19.024,6.753,3.729,65.766Z" transform="translate(-1111.282 -623.479)" fill="#203a6f"/>
  <path id="Trazado_125" data-name="Trazado 125" d="M1304.151,731.52l-1.4,2.9,3.293,3.566.383-4.1Z" transform="translate(-1103.304 -619.527)" fill="#e51f2f"/>
  <path id="Trazado_126" data-name="Trazado 126" d="M1294.921,761.877a122.514,122.514,0,0,1-4.391,40.7q1.378,2.886,2.6,5.909,2.379-2.381,4.663-4.946a127.116,127.116,0,0,0-2.3-42.02Z" transform="translate(-1092.954 -644.934)" fill="#e51f2f"/>
  <path id="Trazado_127" data-name="Trazado 127" d="M1172.083,1164.717c1.883,2.577,9.719,5.035,12.906,4.862,3.137-.168,11.6-4.2,12.318-6.707.5-1.705-.478-13.232-.478-13.232l-25.843,1.387S1169.206,1160.775,1172.083,1164.717Z" transform="translate(-991.251 -973.634)" fill="#203a6f"/>
  <path id="Trazado_128" data-name="Trazado 128" d="M1520,1748.1s-3.65,5.182-.989,6.462,14.581,7.987,15.431,5.4c.2-.6-4.541-5.873-8-9.129A10.331,10.331,0,0,0,1520,1748.1Z" transform="translate(-1285.63 -1480.472)" fill="#203a6f"/>
  <path id="Trazado_129" data-name="Trazado 129" d="M1541.781,1637.8c-.674,3.746-5.854,15.856-6.917,16-.906.119-5.037-1.58-4.951-2.185.324-2.266,4.57-15.79,4.57-15.79s1.082-2.67,3.569-2.223C1541.7,1634.253,1542.058,1636.25,1541.781,1637.8Z" transform="translate(-1295.688 -1383.46)" fill="#dbf0fd"/>
  <path id="Trazado_130" data-name="Trazado 130" d="M1294.935,1150.17s45.56,22.38,55.713,35.7c3.169,4.157-5.135,11.609-5.358,11.758l-59.159-30.258Z" transform="translate(-1089.229 -974.083)" fill="#203a6f"/>
  <path id="Trazado_131" data-name="Trazado 131" d="M1556.939,1375.373c-13.615,42.3-18.372,48.137-20.7,53.06-.318.672-7.212-3.275-7.212-3.275l14.356-50.719s3.827-5.155,7.22-4.1C1554.736,1371.622,1557.654,1373.162,1556.939,1375.373Z" transform="translate(-1294.941 -1160.426)" fill="#203a6f"/>
  <path id="Trazado_132" data-name="Trazado 132" d="M815.961,1780.937c-2.37-1.872-5.469.153-5.469.153s-1.378,9.845,1.419,11.683c3.1,2.041,6.171,3.667,6.782,2.474.185-.36-2.082-3.313-2.316-4.671s.8-3.6,1.174-4.933C818.55,1782.069,817.653,1782.273,815.961,1780.937Z" transform="translate(-686.122 -1507.609)" fill="#203a6f"/>
  <path id="Trazado_133" data-name="Trazado 133" d="M859,1708.494c-2.335,2.946-11.86,11.121-12.632,10.767-.657-.306-2.515-3.636-2.156-4.123,1.359-1.819,10.983-11.635,10.983-11.635s2.061-1.837,3.472-.323C860.739,1705.382,859.969,1707.275,859,1708.494Z" transform="translate(-714.932 -1441.923)" fill="#dbf0fd"/>
  <path id="Trazado_134" data-name="Trazado 134" d="M1109.177,1171.28s-17.88,49.407-28.912,61.482c-3.445,3.772-12.3-3.729-12.465-3.951l15.953-53.172s1.937-1.852,5.952-1.167C1096.518,1175.636,1109.177,1171.28,1109.177,1171.28Z" transform="translate(-904.324 -991.961)" fill="#203a6f"/>
  <path id="Trazado_135" data-name="Trazado 135" d="M895.959,1519.871c-30.736,30.2-37.294,32.7-41.472,35.769-.571.419-4.287-7.162-4.287-7.162l35.263-37.356s5.5-2.413,7.739.518C895.931,1515.212,897.562,1518.3,895.959,1519.871Z" transform="translate(-720.038 -1278.985)" fill="#203a6f"/>
  <path id="Trazado_136" data-name="Trazado 136" d="M1262.412,712.969l-7.292-3.523.778-3.256,7.915,3.878Z" transform="translate(-1062.966 -598.075)" fill="#fff"/>
  <path id="Trazado_137" data-name="Trazado 137" d="M1313.489,721l-2.275-2.37-.124-2.33,3.325,1.875Z" transform="translate(-1110.367 -606.637)" fill="#fff"/>
  <path id="Trazado_138" data-name="Trazado 138" d="M1260.542,547.387c2.2,6.6,4.553,12.491,1.614,14.376-2.328,1.494-8.734,1.482-8.734,1.482s-5.126-.009-7.94-6.363-3.022-12.626,1.837-14.778c4.216-1.869,8.573-3.714,11.312.72A39.2,39.2,0,0,1,1260.542,547.387Z" transform="translate(-1053.117 -457.397)" fill="#dbf0fd"/>
  <path id="Trazado_139" data-name="Trazado 139" d="M1246.045,517.063c.02-.057.04-.115.06-.17a5.556,5.556,0,0,0,.251-3.1c.035.5-.488.937-.838,1.225a5.381,5.381,0,0,0-.06-3.8c-.072,1.652-2.194,2.082-3.46,1.82-5.068-1.05-8.518.651-12.488,3.711-2.668,2.059-3.755,5.928-3.131,8.09.994,3.446,3.267,10.983,5.139,12.483,1.369,1.1,1.725-3.2,1.782-3.887.124-1.484.248-4.786,2.414-4.767.818.009.807,2,1.194,2.67.268.459,2.176-.343,2.176-.343l-3.249-7.655a8.163,8.163,0,0,1,3.368-3.079c1.927-.862,2.941.172,4.939-.75A3.674,3.674,0,0,0,1246.045,517.063Z" transform="translate(-1038.48 -432.946)" fill="#203a6f"/>
  <path id="Trazado_140" data-name="Trazado 140" d="M1275.921,624.013c.378,1.274-.077,2.531-1.014,2.808s-2-.53-2.379-1.8.078-2.531,1.015-2.808S1275.55,622.744,1275.921,624.013Z" transform="translate(-1077.597 -526.906)" fill="#dbf0fd"/>
  <path id="Trazado_141" data-name="Trazado 141" d="M1357.79,599.45a21.327,21.327,0,0,0,3.047,4.112c.435.346-2.047.859-2.047.859Z" transform="translate(-1149.917 -507.676)" fill="#dbf0fd"/>
</svg>
