<svg id="Capa_2" data-name="Capa 2" xmlns="http://www.w3.org/2000/svg" xmlns:xlink="http://www.w3.org/1999/xlink" width="277.564" height="83.021" viewBox="0 0 277.564 83.021">
  <defs>
    <linearGradient id="linear-gradient" x1="0.733" y1="-0.19" x2="0.132" y2="1.094" gradientUnits="objectBoundingBox">
      <stop offset="0" stop-color="#e8630d"/>
      <stop offset="0.34" stop-color="#e22223"/>
      <stop offset="1" stop-color="#e8630d"/>
    </linearGradient>
    <linearGradient id="linear-gradient-2" x1="124.236" y1="172.231" x2="123.635" y2="173.514" gradientUnits="objectBoundingBox">
      <stop offset="0" stop-color="#e0062c"/>
      <stop offset="0.34" stop-color="#e22223"/>
      <stop offset="1" stop-color="#e8630d"/>
    </linearGradient>
  </defs>
  <g id="LANDING_EN_WEB" data-name="LANDING EN WEB">
    <path id="Trazado_1" data-name="Trazado 1" d="M108.76,73.28h1.14a1.7,1.7,0,0,1,1,.4,2.14,2.14,0,0,1,.37,2.09c-.4,1.88-1.42,2.81-3.08,2.81h-1.27L106,82.86h-1.32l2-9.58Zm-1,1.08-.66,3.19h1.08a1.64,1.64,0,0,0,1.22-.43,2.77,2.77,0,0,0,.5-1.23,1.4,1.4,0,0,0-.13-1.18,1.48,1.48,0,0,0-1.14-.35Z" fill="#fff"/>
    <path id="Trazado_2" data-name="Trazado 2" d="M115.32,73.28h.79a4.12,4.12,0,0,1,.82.09c.93.19,1.27,1,1,2.3a3.39,3.39,0,0,1-.71,1.61,2.81,2.81,0,0,1-1.6.7,2.13,2.13,0,0,1,.91.25.92.92,0,0,1,.36.84,6.58,6.58,0,0,1-.1.88l-.18,1.13c-.06.43-.09.77-.1,1s0,.43,0,.77h-1.37v-.61a4.569,4.569,0,0,1,.06-.66l.13-.86.14-.9c.08-.69-.1-1.1-.55-1.24a2.62,2.62,0,0,0-.67-.08h-.91l-.9,4.35h-1.32l2-9.58Zm-1.1,1.08-.63,3.07h.94a4,4,0,0,0,.74-.06,1.4,1.4,0,0,0,1-.6,3.08,3.08,0,0,0,.37-1.06,1.073,1.073,0,0,0-.21-1.11,2,2,0,0,0-1.16-.24Z" fill="#fff"/>
    <path id="Trazado_3" data-name="Trazado 3" d="M119.41,76.37a6.93,6.93,0,0,1,.53-1.72,2.54,2.54,0,0,1,1.41-1.24,4.09,4.09,0,0,1,1.46-.26,3.24,3.24,0,0,1,1.34.26,1.48,1.48,0,0,1,.91,1.24,6.681,6.681,0,0,1-.18,1.72l-.66,3.21c-.12.58-.25,1.08-.38,1.5a2.82,2.82,0,0,1-3,1.92c-1.16,0-1.88-.3-2.15-.89a4.63,4.63,0,0,1,.08-2.53Zm.65,3.2a5.77,5.77,0,0,0-.18,1.57.86.86,0,0,0,.4.57,1.32,1.32,0,0,0,.72.21,1.77,1.77,0,0,0,.73-.17,1.64,1.64,0,0,0,.91-1.1q.14-.45.27-1.08l.66-3.21a3.84,3.84,0,0,0,.11-1.46c-.12-.45-.48-.68-1.09-.68a1.73,1.73,0,0,0-.7.15,1.58,1.58,0,0,0-1,1.11,7.631,7.631,0,0,0-.21.88Z" fill="#fff"/>
    <path id="Trazado_4" data-name="Trazado 4" d="M128.8,77.48l2.33-4.2h1.32l-3.33,5.6-.83,4H127l.82-4-1-5.6h1.49Z" fill="#fff"/>
    <path id="Trazado_5" data-name="Trazado 5" d="M133.74,73.28h4.31l-.22,1.08h-3l-.63,3H137l-.23,1.08H134l-.68,3.3h3.09l-.23,1.08h-4.4Z" fill="#fff"/>
    <path id="Trazado_6" data-name="Trazado 6" d="M143,75.82l.09-.45c.12-.77-.17-1.15-.88-1.15a1.54,1.54,0,0,0-1.35.61,1.44,1.44,0,0,0-.29.58l-.18.79-.74,3.8a3.419,3.419,0,0,0-.11,1.32.93.93,0,0,0,1,.62A1.5,1.5,0,0,0,142,80.69l.18-.62.06-.32h1.32l-.07.33-.13.6a3.19,3.19,0,0,1-.94,1.64,2.4,2.4,0,0,1-.87.5,3.83,3.83,0,0,1-1.18.18,4,4,0,0,1-1-.12c-1-.25-1.39-1.14-1.08-2.68l.79-3.82a11.559,11.559,0,0,1,.29-1.16,2.93,2.93,0,0,1,.58-1.08,3.12,3.12,0,0,1,2.47-1c1.52,0,2.22.6,2.09,1.78a6.378,6.378,0,0,1-.12.75l-.08.38H143Z" fill="#fff"/>
    <path id="Trazado_7" data-name="Trazado 7" d="M151.94,73.28l-.23,1.08H149.5l-1.75,8.5h-1.32l1.75-8.5H146l.22-1.08Z" fill="#fff"/>
    <path id="Trazado_8" data-name="Trazado 8" d="M152.64,76.37a7.3,7.3,0,0,1,.54-1.72,2.54,2.54,0,0,1,1.41-1.24,4.09,4.09,0,0,1,1.46-.26,3.24,3.24,0,0,1,1.34.26,1.45,1.45,0,0,1,.9,1.24,6.15,6.15,0,0,1-.17,1.72l-.66,3.21c-.12.58-.25,1.08-.38,1.5a2.82,2.82,0,0,1-3,1.92c-1.17,0-1.88-.3-2.16-.89a4.76,4.76,0,0,1,.09-2.53Zm.66,3.2a5.77,5.77,0,0,0-.18,1.57.8.8,0,0,0,.4.57,1.32,1.32,0,0,0,.72.21,1.8,1.8,0,0,0,.73-.17,1.64,1.64,0,0,0,.91-1.1c.09-.3.17-.66.26-1.08l.66-3.21a3.46,3.46,0,0,0,.11-1.46c-.11-.45-.47-.68-1.09-.68a1.72,1.72,0,0,0-.69.15,1.58,1.58,0,0,0-.95,1.11c-.08.26-.15.55-.22.88Z" fill="#fff"/>
    <path id="Trazado_9" data-name="Trazado 9" d="M160.23,79.65l-.11.53A3.06,3.06,0,0,0,160,81c0,.65.36,1,1.09,1a2,2,0,0,0,.76-.14,1.7,1.7,0,0,0,1.05-1.37,1.18,1.18,0,0,0-.26-1.14,4.881,4.881,0,0,0-.71-.56l-.84-.53a3.79,3.79,0,0,1-.82-.65,2,2,0,0,1-.39-2,2.85,2.85,0,0,1,1.29-2,3.72,3.72,0,0,1,1.89-.45,2.24,2.24,0,0,1,1.88.64,2.89,2.89,0,0,1,.06,2.06v.19h-1.32v-.23l.08-.5c.07-.74-.25-1.1-.95-1.09a1.52,1.52,0,0,0-1.62,1.32,1.25,1.25,0,0,0,.56,1.36,10.238,10.238,0,0,0,1,.67,6.389,6.389,0,0,1,.93.64,2.12,2.12,0,0,1,.51,2.16A3.07,3.07,0,0,1,160.91,83a2.56,2.56,0,0,1-1.75-.49,1.85,1.85,0,0,1-.47-1.71l.14-.77.08-.38Z" fill="#fff"/>
    <path id="Trazado_10" data-name="Trazado 10" d="M173.39,73.28h4.31l-.22,1.08h-3l-.62,3h2.81l-.22,1.08h-2.82l-.68,3.3H176l-.22,1.08h-4.41Z" fill="#fff"/>
    <path id="Trazado_11" data-name="Trazado 11" d="M179.32,73.28h1.32l-1.75,8.5h2.79l-.22,1.08h-4.12Z" fill="#fff"/>
    <path id="Trazado_12" data-name="Trazado 12" d="M184.72,73.28H189l-.22,1.08h-3l-.63,3H188l-.22,1.08H185l-.68,3.3h3.08l-.22,1.08h-4.4Z" fill="#fff"/>
    <path id="Trazado_13" data-name="Trazado 13" d="M194,75.82l.09-.45c.12-.77-.17-1.15-.88-1.15a1.56,1.56,0,0,0-1.36.61,1.75,1.75,0,0,0-.29.58l-.17.79-.75,3.8a3.22,3.22,0,0,0-.11,1.32.93.93,0,0,0,1,.62A1.5,1.5,0,0,0,193,80.69l.18-.62.07-.32h1.32l-.07.33-.14.6a3.17,3.17,0,0,1-.93,1.64,2.4,2.4,0,0,1-.87.5,3.88,3.88,0,0,1-1.18.18,3.839,3.839,0,0,1-1-.12c-1-.25-1.4-1.14-1.09-2.68l.79-3.82a9.34,9.34,0,0,1,.3-1.16,2.93,2.93,0,0,1,.58-1.08,3.1,3.1,0,0,1,2.47-1c1.52,0,2.22.6,2.09,1.78a2.765,2.765,0,0,1-.12.75l-.08.38H194Z" fill="#fff"/>
    <path id="Trazado_14" data-name="Trazado 14" d="M202.92,73.28l-.22,1.08h-2.21l-1.76,8.5h-1.31l1.75-8.5H197l.23-1.08Z" fill="#fff"/>
    <path id="Trazado_15" data-name="Trazado 15" d="M206.5,73.28h.79a4,4,0,0,1,.82.09c.93.19,1.27,1,1,2.3a3.49,3.49,0,0,1-.72,1.61,2.78,2.78,0,0,1-1.6.7,2.08,2.08,0,0,1,.91.25.92.92,0,0,1,.36.84A8.47,8.47,0,0,1,208,80l-.18,1.13a6.612,6.612,0,0,0-.1,1,5.732,5.732,0,0,0,0,.77h-1.37v-.61a3.619,3.619,0,0,1,.07-.66l.13-.86.13-.9c.09-.69-.09-1.1-.54-1.24a2.76,2.76,0,0,0-.68-.08h-.91l-.9,4.35h-1.31l2-9.58Zm-1.1,1.08-.63,3.07h.95a4.181,4.181,0,0,0,.74-.06,1.4,1.4,0,0,0,1-.6,2.88,2.88,0,0,0,.37-1.06,1.073,1.073,0,0,0-.21-1.11,2,2,0,0,0-1.16-.24Z" fill="#fff"/>
    <path id="Trazado_16" data-name="Trazado 16" d="M210.59,76.37a6.929,6.929,0,0,1,.53-1.72,2.56,2.56,0,0,1,1.42-1.24,4,4,0,0,1,1.45-.26,3.28,3.28,0,0,1,1.35.26,1.47,1.47,0,0,1,.9,1.24,6.559,6.559,0,0,1-.17,1.72l-.67,3.21a11.634,11.634,0,0,1-.38,1.5A2.82,2.82,0,0,1,212,83c-1.16,0-1.88-.3-2.15-.89a4.63,4.63,0,0,1,.08-2.53Zm.66,3.2a5.77,5.77,0,0,0-.18,1.57.81.81,0,0,0,.39.57,1.32,1.32,0,0,0,.72.21,1.77,1.77,0,0,0,.73-.17,1.65,1.65,0,0,0,.92-1.1c.08-.3.17-.66.26-1.08l.66-3.21a3.64,3.64,0,0,0,.11-1.46c-.11-.45-.48-.68-1.09-.68a1.73,1.73,0,0,0-.7.15,1.61,1.61,0,0,0-.95,1.11,7.628,7.628,0,0,0-.21.88Z" fill="#fff"/>
    <path id="Trazado_17" data-name="Trazado 17" d="M220.64,73.28l.13,7.62L224,73.28h2.15l-2,9.58H223l1.72-8.35L221,82.86h-1.29l-.25-8.35-1.73,8.35H216.5l2-9.58Z" fill="#fff"/>
    <path id="Trazado_18" data-name="Trazado 18" d="M228,73.28h4.31l-.22,1.08h-3l-.62,3h2.81l-.22,1.08h-2.81l-.68,3.3h3.08l-.22,1.08H226Z" fill="#fff"/>
    <path id="Trazado_19" data-name="Trazado 19" d="M237.32,75.82l.08-.45c.13-.77-.16-1.15-.88-1.15a1.54,1.54,0,0,0-1.35.61,1.751,1.751,0,0,0-.29.58l-.18.79-.77,3.8a3.22,3.22,0,0,0-.11,1.32.92.92,0,0,0,1,.62,1.5,1.5,0,0,0,1.44-1.23l.18-.62.07-.32h1.32l-.07.33-.14.6a3.19,3.19,0,0,1-.94,1.64,2.25,2.25,0,0,1-.87.5,3.77,3.77,0,0,1-1.17.18,3.839,3.839,0,0,1-1-.12c-1-.25-1.4-1.14-1.09-2.68l.79-3.82a9.34,9.34,0,0,1,.3-1.16,2.79,2.79,0,0,1,.58-1.08,3.08,3.08,0,0,1,2.46-1c1.52,0,2.22.6,2.09,1.78a6.374,6.374,0,0,1-.12.75l-.07.38h-1.32Z" fill="#fff"/>
    <path id="Trazado_20" data-name="Trazado 20" d="M242.72,73.28h1.74l.23,9.58h-1.38V80.67h-2.56l-.92,2.19h-1.28Zm-1.53,6.31h2.09v-5.1Zm3-9.22h1.49L244,72.46h-1Z" fill="#fff"/>
    <path id="Trazado_21" data-name="Trazado 21" d="M250.11,73.28l.79,8.25,1.7-8.25h1.23l-2,9.58H249.8l-.8-8.17-1.68,8.17h-1.24l2-9.58Z" fill="#fff"/>
    <path id="Trazado_22" data-name="Trazado 22" d="M256.88,73.28l-2,9.58h-1.31l2-9.58Z" fill="#fff"/>
    <path id="Trazado_23" data-name="Trazado 23" d="M262.06,75.82l.08-.45c.13-.77-.16-1.15-.88-1.15a1.54,1.54,0,0,0-1.35.61,1.751,1.751,0,0,0-.29.58l-.18.79-.78,3.8a3.651,3.651,0,0,0-.11,1.32.94.94,0,0,0,1,.62A1.5,1.5,0,0,0,261,80.69l.18-.62.07-.32h1.31l-.07.33-.13.6a3.19,3.19,0,0,1-.94,1.64,2.25,2.25,0,0,1-.87.5,4,4,0,0,1-2.16.06c-1-.25-1.4-1.14-1.09-2.68l.79-3.82a9.34,9.34,0,0,1,.3-1.16,2.91,2.91,0,0,1,.57-1.08,3.12,3.12,0,0,1,2.47-1c1.52,0,2.22.6,2.09,1.78a6.381,6.381,0,0,1-.12.75l-.07.38H262Z" fill="#fff"/>
    <path id="Trazado_24" data-name="Trazado 24" d="M265,76.37a7.38,7.38,0,0,1,.53-1.72,2.56,2.56,0,0,1,1.42-1.24,4,4,0,0,1,1.45-.26,3.28,3.28,0,0,1,1.35.26,1.47,1.47,0,0,1,.9,1.24,6.561,6.561,0,0,1-.17,1.72l-.66,3.21a13.369,13.369,0,0,1-.39,1.5,2.82,2.82,0,0,1-3,1.92c-1.16,0-1.88-.3-2.15-.89a4.63,4.63,0,0,1,.08-2.53Zm.66,3.2a5.77,5.77,0,0,0-.18,1.57.81.81,0,0,0,.39.57,1.32,1.32,0,0,0,.72.21,1.73,1.73,0,0,0,.73-.17,1.65,1.65,0,0,0,.92-1.1c.08-.3.17-.66.26-1.08l.66-3.21a3.64,3.64,0,0,0,.11-1.46c-.11-.45-.48-.68-1.09-.68a1.76,1.76,0,0,0-.7.15,1.57,1.57,0,0,0-.94,1.11,7.523,7.523,0,0,0-.22.88Z" fill="#fff"/>
    <path id="Trazado_25" data-name="Trazado 25" d="M272.54,79.65l-.11.53a3.059,3.059,0,0,0-.08.77c0,.65.36,1,1.09,1a2,2,0,0,0,.77-.14,1.69,1.69,0,0,0,1-1.37,1.18,1.18,0,0,0-.25-1.14,5.5,5.5,0,0,0-.71-.56l-.85-.53a3.789,3.789,0,0,1-.82-.65,2,2,0,0,1-.39-2,2.83,2.83,0,0,1,1.3-2,3.66,3.66,0,0,1,1.88-.45,2.24,2.24,0,0,1,1.88.64,2.82,2.82,0,0,1,.07,2.06V76H276l.05-.23.07-.5c.07-.74-.24-1.1-.95-1.09a1.52,1.52,0,0,0-1.62,1.32,1.27,1.27,0,0,0,.56,1.36,10.239,10.239,0,0,0,1,.67,6.391,6.391,0,0,1,.93.64,2.12,2.12,0,0,1,.51,2.16A3.07,3.07,0,0,1,273.22,83a2.56,2.56,0,0,1-1.75-.49A1.85,1.85,0,0,1,271,80.8l.14-.77.08-.38Z" fill="#fff"/>
    <path id="Trazado_26" data-name="Trazado 26" d="M143.37,64.31h-35a1.13,1.13,0,0,1-1-.43,1.2,1.2,0,0,1-.22-1.05l1.44-6.91a4.18,4.18,0,0,1,.59-1.36,7.589,7.589,0,0,1,.94-1.23l23.32-21.17a1.47,1.47,0,0,0,.46-1c0-.38-.23-.56-.68-.56H115.4a1.16,1.16,0,0,1-1-.44,1.19,1.19,0,0,1-.21-1.05L116,20.55a1.81,1.81,0,0,1,.65-1.05,1.76,1.76,0,0,1,1.14-.44h35a1.16,1.16,0,0,1,1,.43,1.29,1.29,0,0,1,.19,1.05l-1.46,7a4.51,4.51,0,0,1-.56,1.36,6.231,6.231,0,0,1-.91,1.23L127.69,51.39a1.44,1.44,0,0,0-.46,1c0,.35.22.52.64.52h17.86a1.13,1.13,0,0,1,1,.44,1.29,1.29,0,0,1,.19,1.05l-1.75,8.4a2,2,0,0,1-.62,1.06A1.71,1.71,0,0,1,143.37,64.31Z" fill="#fff"/>
    <path id="Trazado_27" data-name="Trazado 27" d="M170.14,31.92l-.55,2.6a1.23,1.23,0,0,0,.22,1,1.18,1.18,0,0,0,1,.43h16.75a1.14,1.14,0,0,1,1,.43,1.23,1.23,0,0,1,.22,1L186.92,46a1.9,1.9,0,0,1-1.79,1.48H168.38a1.76,1.76,0,0,0-1.15.44,1.89,1.89,0,0,0-.65,1l-.48,2.35a1.19,1.19,0,0,0,.21,1.05,1.15,1.15,0,0,0,1,.43H186.5a1.18,1.18,0,0,1,1,.43,1.25,1.25,0,0,1,.21,1.06l-1.77,8.52a1.85,1.85,0,0,1-.66,1.06,1.71,1.71,0,0,1-1.14.43h-31.5a1.15,1.15,0,0,1-1-.43,1.24,1.24,0,0,1-.22-1.06l8.8-42.28a1.89,1.89,0,0,1,.65-1.05,1.8,1.8,0,0,1,1.14-.43h31.47a1.18,1.18,0,0,1,1,.43,1.23,1.23,0,0,1,.22,1.05L193,29a1.86,1.86,0,0,1-.66,1.05,1.75,1.75,0,0,1-1.14.43H171.93a1.74,1.74,0,0,0-1.14.44A1.79,1.79,0,0,0,170.14,31.92Z" fill="#fff"/>
    <path id="Trazado_28" data-name="Trazado 28" d="M199.1,20.6a1.74,1.74,0,0,1,.65-1,1.71,1.71,0,0,1,1.13-.44h9.29a1.16,1.16,0,0,1,1,.44,1.23,1.23,0,0,1,.21,1l-5.21,25a8.43,8.43,0,0,0-.06,4,5.28,5.28,0,0,0,1.41,2.47,5.51,5.51,0,0,0,2.19,1.27,7.84,7.84,0,0,0,2.28.37,9.4,9.4,0,0,0,2.44-.37,8.63,8.63,0,0,0,2.68-1.27,9.629,9.629,0,0,0,2.41-2.47,10.7,10.7,0,0,0,1.61-4l5.21-25a1.74,1.74,0,0,1,.65-1,1.71,1.71,0,0,1,1.13-.44h9.29a1.16,1.16,0,0,1,1,.44,1.23,1.23,0,0,1,.21,1l-5.21,25a25.789,25.789,0,0,1-3.05,8A22.83,22.83,0,0,1,225,59.74a23.58,23.58,0,0,1-7,3.92,24.94,24.94,0,0,1-8.38,1.39,20.23,20.23,0,0,1-7.8-1.39,12.95,12.95,0,0,1-8.15-10,20.5,20.5,0,0,1,.24-8Z" fill="#fff"/>
    <path id="Trazado_29" data-name="Trazado 29" d="M243.64,48.8a27,27,0,0,0,5.9,3.4,15.54,15.54,0,0,0,5.87,1.23,10,10,0,0,0,4.3-.77,3.26,3.26,0,0,0,1.9-2.32,1.22,1.22,0,0,0-.35-1.27,4.34,4.34,0,0,0-1.48-.77,13.74,13.74,0,0,0-2.28-.5c-.88-.12-1.77-.28-2.67-.49l-3.07-.58a24.32,24.32,0,0,1-3.53-1,22.282,22.282,0,0,1-3.46-1.64,9.6,9.6,0,0,1-2.84-2.54,9.08,9.08,0,0,1-1.62-3.68,12.38,12.38,0,0,1,.15-5,16.34,16.34,0,0,1,3.14-7,18.07,18.07,0,0,1,5.15-4.42,21,21,0,0,1,6.2-2.29,32.57,32.57,0,0,1,6.26-.65,24,24,0,0,1,9,1.52,22.62,22.62,0,0,1,7,4.42,1.24,1.24,0,0,1,.34,1.05,1.82,1.82,0,0,1-.54,1.11L270.7,33.4a2,2,0,0,1-1.12.62,1.18,1.18,0,0,1-1.06-.25A20,20,0,0,0,263.24,31a15.46,15.46,0,0,0-4.84-.84h-1.58a8.39,8.39,0,0,0-1.75.24,3.86,3.86,0,0,0-1.48.72,2.21,2.21,0,0,0-.81,1.35c-.12.58.21,1.1,1,1.55a12.939,12.939,0,0,0,2.72,1.17,26.815,26.815,0,0,0,3,.78l1.91.34a37.689,37.689,0,0,1,4.62,1.26,13.64,13.64,0,0,1,4.46,2.48,10.29,10.29,0,0,1,3,4.26,11.57,11.57,0,0,1,.21,6.59,17.36,17.36,0,0,1-2.63,6.39,16.081,16.081,0,0,1-4.54,4.43,19.9,19.9,0,0,1-6.1,2.56,33.35,33.35,0,0,1-13.26.31,25.24,25.24,0,0,1-4.89-1.45,20.88,20.88,0,0,1-4-2.2,24.34,24.34,0,0,1-3.25-2.69,1.12,1.12,0,0,1-.34-1,1.92,1.92,0,0,1,.55-1.14l6.18-6.86a2.06,2.06,0,0,1,1.12-.62A1.35,1.35,0,0,1,243.64,48.8Z" fill="#fff"/>
    <path id="Trazado_30" data-name="Trazado 30" d="M5.68,63.17,9.97,42.42l5.66-4.65L36.05,20.99H14.53L19.84,0H77.9L70.1,17.89,40,43.63l12.5.03L32.89,63.17H0" fill="url(#linear-gradient)"/>
    <path id="Trazado_31" data-name="Trazado 31" d="M100.86,18.59l-4.3,20.75-5.65,4.65L70.49,60.77H92.01L86.7,81.76H28.64l7.8-17.89,30.1-25.74-12.5-.03L73.08,18.59h33.46" fill="url(#linear-gradient-2)"/>
  </g>
</svg>
