<svg id="color_line" data-name="color line" xmlns="http://www.w3.org/2000/svg" xmlns:xlink="http://www.w3.org/1999/xlink" width="75.231" height="88.818" viewBox="0 0 75.231 88.818">
  <defs>
    <linearGradient id="linear-gradient" x1="0.5" x2="0.5" y2="1" gradientUnits="objectBoundingBox">
      <stop offset="0" stop-color="#e0062c"/>
      <stop offset="0.358" stop-color="#e22223"/>
      <stop offset="1" stop-color="#e8630d"/>
    </linearGradient>
  </defs>
  <path id="Trazado_60" data-name="Trazado 60" d="M152.173,123.418a35.656,35.656,0,0,1,7.349-14.4,28.925,28.925,0,1,0-44.357.143,35.265,35.265,0,0,1,7.592,14.253Z" transform="translate(-99.668 -52.922)" fill="url(#linear-gradient)"/>
  <path id="Trazado_61" data-name="Trazado 61" d="M178.9,382.539a.679.679,0,0,1-.067-1.356l29.511-2.978a.682.682,0,0,1,.135,1.356l-29.509,2.982Z" transform="translate(-155.815 -307.497)" fill="url(#linear-gradient)"/>
  <path id="Trazado_62" data-name="Trazado 62" d="M178.9,404.469a.679.679,0,0,1-.067-1.356l29.511-2.978a.682.682,0,0,1,.135,1.356l-29.509,2.982Z" transform="translate(-155.815 -325.131)" fill="url(#linear-gradient)"/>
  <path id="Trazado_63" data-name="Trazado 63" d="M182.078,426.367a.679.679,0,1,1-.067-1.356l28.874-2.9a.688.688,0,0,1,.741.607.68.68,0,0,1-.607.743l-28.872,2.9Z" transform="translate(-158.372 -342.8)" fill="url(#linear-gradient)"/>
  <path id="Trazado_64" data-name="Trazado 64" d="M199.078,448.521a.679.679,0,1,1-.067-1.356l24.129-2.425a.686.686,0,0,1,.741.607.676.676,0,0,1-.605.741l-24.123,2.423Z" transform="translate(-172.042 -360.996)" fill="url(#linear-gradient)"/>
  <path id="Trazado_65" data-name="Trazado 65" d="M253.218,23.223a.678.678,0,0,1-.678-.678V17.978a.678.678,0,1,1,1.356,0v4.567A.678.678,0,0,1,253.218,23.223Z" transform="translate(-215.602 -17.3)" fill="url(#linear-gradient)"/>
  <path id="Trazado_66" data-name="Trazado 66" d="M161.229,47.86a.676.676,0,0,1-.588-.339l-2.284-3.957a.678.678,0,1,1,1.175-.678l2.284,3.956a.678.678,0,0,1-.588,1.017Z" transform="translate(-139.798 -37.6)" fill="url(#linear-gradient)"/>
  <path id="Trazado_67" data-name="Trazado 67" d="M93.9,115.181a.691.691,0,0,1-.339-.09L89.606,112.8a.678.678,0,0,1,.678-1.175l3.956,2.284a.678.678,0,0,1-.339,1.264Z" transform="translate(-84.316 -93.074)" fill="url(#linear-gradient)"/>
  <path id="Trazado_68" data-name="Trazado 68" d="M69.245,207.2H64.678a.678.678,0,0,1,0-1.356h4.569a.678.678,0,0,1,0,1.356Z" transform="translate(-64 -168.902)" fill="url(#linear-gradient)"/>
  <path id="Trazado_69" data-name="Trazado 69" d="M89.992,292.089a.678.678,0,0,1-.335-1.258l3.956-2.284a.678.678,0,1,1,.678,1.175l-3.959,2.282a.679.679,0,0,1-.339.09Z" transform="translate(-84.367 -235.333)" fill="url(#linear-gradient)"/>
  <path id="Trazado_70" data-name="Trazado 70" d="M335.828,47.86a.678.678,0,0,1-.678-.678.662.662,0,0,1,.092-.339l2.282-3.957a.678.678,0,1,1,1.175.678l-2.284,3.957A.676.676,0,0,1,335.828,47.86Z" transform="translate(-282.028 -37.6)" fill="url(#linear-gradient)"/>
  <path id="Trazado_71" data-name="Trazado 71" d="M396.327,115.181a.678.678,0,0,1-.339-1.264l3.956-2.29a.678.678,0,1,1,.678,1.175l-3.956,2.284a.692.692,0,0,1-.339.09Z" transform="translate(-330.676 -93.074)" fill="url(#linear-gradient)"/>
  <path id="Trazado_72" data-name="Trazado 72" d="M423.007,207.2h-4.569a.678.678,0,0,1,0-1.356h4.569a.678.678,0,1,1,0,1.356Z" transform="translate(-348.453 -168.902)" fill="url(#linear-gradient)"/>
  <path id="Trazado_73" data-name="Trazado 73" d="M400.27,292.057a.68.68,0,0,1-.339-.09l-3.956-2.284a.678.678,0,0,1,.678-1.176l3.952,2.292a.678.678,0,0,1-.339,1.264Z" transform="translate(-330.664 -235.301)" fill="url(#linear-gradient)"/>
  <path id="Trazado_74" data-name="Trazado 74" d="M174.1,150.407l-6.33-.039a.68.68,0,0,1-.67-.6l-.588-5.19a15.127,15.127,0,0,1-2.915-1.23l-4.114,3.205a.678.678,0,0,1-.9-.059l-4.461-4.506a.68.68,0,0,1-.047-.9L157.333,137a15.087,15.087,0,0,1-1.187-2.939l-5.188-.65a.676.676,0,0,1-.588-.678l.039-6.33a.678.678,0,0,1,.605-.668l5.2-.588a15.107,15.107,0,0,1,1.221-2.911l-3.215-4.124a.68.68,0,0,1,.059-.9l4.506-4.455a.676.676,0,0,1,.9-.047l4.089,3.252a15.3,15.3,0,0,1,2.927-1.187l.648-5.188a.694.694,0,0,1,.678-.588l6.332.039a.676.676,0,0,1,.668.6l.588,5.2a15.086,15.086,0,0,1,2.9,1.215l4.136-3.193a.678.678,0,0,1,.9.059L188,117.424a.68.68,0,0,1,.047.9l-3.254,4.089a15.035,15.035,0,0,1,1.187,2.925l5.188.65a.676.676,0,0,1,.588.678l-.039,6.33a.68.68,0,0,1-.6.67l-5.2.588a15.143,15.143,0,0,1-1.221,2.915l3.213,4.12a.68.68,0,0,1-.059.9l-4.506,4.455a.678.678,0,0,1-.9.047l-4.083-3.252a15.068,15.068,0,0,1-2.939,1.191l-.641,5.184a.68.68,0,0,1-.684.588Zm-5.723-1.4,5.127.031.631-5.035a.678.678,0,0,1,.505-.572,13.76,13.76,0,0,0,3.444-1.4.678.678,0,0,1,.762.057l3.969,3.166,3.66-3.609-3.117-4.006a.672.672,0,0,1-.049-.76,13.806,13.806,0,0,0,1.44-3.429.676.676,0,0,1,.578-.5l5.049-.568.031-5.127-5.045-.625a.678.678,0,0,1-.572-.505,13.749,13.749,0,0,0-1.387-3.446.678.678,0,0,1,.057-.76l3.166-3.973-3.615-3.658L179,117.4a.678.678,0,0,1-.762.049,13.73,13.73,0,0,0-3.423-1.44.674.674,0,0,1-.5-.588l-.57-5.035-5.123-.033-.633,5.041a.678.678,0,0,1-.5.572,13.715,13.715,0,0,0-3.44,1.395.676.676,0,0,1-.76-.057l-3.979-3.164-3.66,3.611,3.117,4.01a.678.678,0,0,1,.047.762,13.761,13.761,0,0,0-1.44,3.423.68.68,0,0,1-.588.5l-5.033.576-.031,5.127,5.041.623a.678.678,0,0,1,.572.505,13.775,13.775,0,0,0,1.387,3.444.682.682,0,0,1-.057.762l-3.156,3.967,3.6,3.66,4.006-3.119a.682.682,0,0,1,.762-.049,13.643,13.643,0,0,0,3.428,1.446.674.674,0,0,1,.5.578Zm2.684-10.383h-.057a8.926,8.926,0,0,1,.057-17.852h.057a8.926,8.926,0,1,1-.057,17.852Zm-8.252-8.977h.678a7.572,7.572,0,1,0,7.625-7.523h0a7.584,7.584,0,0,0-7.621,7.519Z" transform="translate(-133.449 -91.035)" fill="#fff"/>
  <path id="Trazado_75" data-name="Trazado 75" d="M200.158,392.67H187.474a9.1,9.1,0,0,1-9.094-9.092v-9.229a.678.678,0,0,1,.678-.678H208.57a.678.678,0,0,1,.678.678v9.229A9.1,9.1,0,0,1,200.158,392.67Zm-20.422-17.644v8.552a7.748,7.748,0,0,0,7.739,7.737h12.684a7.745,7.745,0,0,0,7.731-7.737v-8.552Z" transform="translate(-155.971 -303.852)" fill="url(#linear-gradient)"/>
</svg>
