<svg xmlns="http://www.w3.org/2000/svg" xmlns:xlink="http://www.w3.org/1999/xlink" width="63.164" height="77" viewBox="0 0 63.164 77">
  <defs>
    <linearGradient id="linear-gradient" x1="0.5" x2="0.5" y2="1" gradientUnits="objectBoundingBox">
      <stop offset="0" stop-color="#e0062c"/>
      <stop offset="0.311" stop-color="#e22223"/>
      <stop offset="0.726" stop-color="#ff2e0d"/>
      <stop offset="1" stop-color="#e8630d"/>
    </linearGradient>
  </defs>
  <g id="electricista" transform="translate(-46)">
    <g id="Grupo_50" data-name="Grupo 50" transform="translate(55.023 0)">
      <g id="Grupo_49" data-name="Grupo 49" transform="translate(0)">
        <path id="Trazado_754" data-name="Trazado 754" d="M146.605,18.348h-.57A18.1,18.1,0,0,0,135.326,6.125V2.256A2.257,2.257,0,0,0,133.07,0h-9.023a2.257,2.257,0,0,0-2.256,2.256v3.87a18.1,18.1,0,0,0-10.777,12.491A6.938,6.938,0,0,0,106,25.275v4.352a2.257,2.257,0,0,0,2.256,2.256h40.605a2.257,2.257,0,0,0,2.256-2.256V22.859A4.517,4.517,0,0,0,146.605,18.348ZM134.666,22.2l-4.512,4.512a2.257,2.257,0,0,1-3.191-3.191l2.3-2.3-6.225-3.112a2.259,2.259,0,0,1-.587-3.614l4.512-4.512a2.257,2.257,0,0,1,3.191,3.191l-2.3,2.3,6.225,3.112A2.259,2.259,0,0,1,134.666,22.2Z" transform="translate(-106 0)" fill="url(#linear-gradient)"/>
      </g>
    </g>
    <g id="Grupo_51" data-name="Grupo 51" transform="translate(59.535 36.395)">
      <path id="Trazado_755" data-name="Trazado 755" d="M172.094,242A18.047,18.047,0,0,1,136,242Z" transform="translate(-136 -242)" fill="url(#linear-gradient)"/>
    </g>
    <g id="Grupo_53" data-name="Grupo 53" transform="translate(46 54.441)">
      <g id="Grupo_52" data-name="Grupo 52">
        <path id="Trazado_756" data-name="Trazado 756" d="M46,382.3a2.257,2.257,0,0,0,2.256,2.256H59.535V373.279a2.257,2.257,0,0,1,2.256-2.256h2.256v-8.9A20.331,20.331,0,0,0,46,382.3Zm18.047-6.768v9.023h27.07v-9.023ZM68.559,362v9.023H86.605V362Zm22.559.125v8.9h2.256a2.257,2.257,0,0,1,2.256,2.256v11.279h11.279a2.257,2.257,0,0,0,2.256-2.256A20.331,20.331,0,0,0,91.117,362.125Z" transform="translate(-46 -362)" fill="url(#linear-gradient)"/>
      </g>
    </g>
  </g>
</svg>
