<svg xmlns="http://www.w3.org/2000/svg" width="41.231" height="30.923" viewBox="0 0 41.231 30.923">
  <g id="email" transform="translate(0 -64)">
    <g id="Grupo_2" data-name="Grupo 2" transform="translate(0 64)">
      <g id="Grupo_1" data-name="Grupo 1" transform="translate(0 0)">
        <path id="Trazado_32" data-name="Trazado 32" d="M7.218,66.509C12.876,71.3,22.806,79.733,25.724,82.361a1.724,1.724,0,0,0,2.494,0c2.921-2.631,12.85-11.064,18.509-15.856a.858.858,0,0,0,.121-1.185A3.411,3.411,0,0,0,44.152,64H9.793a3.411,3.411,0,0,0-2.7,1.324A.858.858,0,0,0,7.218,66.509Z" transform="translate(-6.357 -64)" fill="#fff"/>
        <path id="Trazado_33" data-name="Trazado 33" d="M40.733,126.492a.855.855,0,0,0-.916.124c-6.275,5.32-14.285,12.139-16.8,14.41a3.478,3.478,0,0,1-4.795,0c-2.686-2.42-11.68-10.066-16.8-14.408A.859.859,0,0,0,0,127.271v21.6a3.439,3.439,0,0,0,3.436,3.436H37.8a3.439,3.439,0,0,0,3.436-3.436v-21.6A.858.858,0,0,0,40.733,126.492Z" transform="translate(0 -121.386)" fill="#fff"/>
      </g>
    </g>
  </g>
</svg>
