<svg id="engranaje" xmlns="http://www.w3.org/2000/svg" xmlns:xlink="http://www.w3.org/1999/xlink" width="72.507" height="72.507" viewBox="0 0 72.507 72.507">
  <defs>
    <linearGradient id="linear-gradient" x1="0.5" x2="0.5" y2="1" gradientUnits="objectBoundingBox">
      <stop offset="0" stop-color="#e0062c"/>
      <stop offset="0.435" stop-color="#e22223"/>
      <stop offset="1" stop-color="#e8630d"/>
    </linearGradient>
  </defs>
  <g id="Grupo_17" data-name="Grupo 17">
    <path id="Trazado_96" data-name="Trazado 96" d="M70.382,28.465h-6.01a28.864,28.864,0,0,0-2.729-6.586l4.251-4.251a2.124,2.124,0,0,0,0-3L57.883,6.613a2.124,2.124,0,0,0-3,0l-4.251,4.251a28.87,28.87,0,0,0-6.586-2.73V2.124A2.124,2.124,0,0,0,41.918,0H30.589a2.124,2.124,0,0,0-2.124,2.124v6.01a28.87,28.87,0,0,0-6.586,2.73L17.628,6.613a2.124,2.124,0,0,0-3,0L6.613,14.624a2.124,2.124,0,0,0,0,3l4.251,4.251a28.857,28.857,0,0,0-2.729,6.586H2.124A2.124,2.124,0,0,0,0,30.589V41.918a2.124,2.124,0,0,0,2.124,2.124h6.01a28.863,28.863,0,0,0,2.729,6.586L6.613,54.879a2.124,2.124,0,0,0,0,3l8.011,8.011a2.124,2.124,0,0,0,3,0l4.251-4.251a28.87,28.87,0,0,0,6.586,2.73v6.01a2.124,2.124,0,0,0,2.124,2.124H41.918a2.124,2.124,0,0,0,2.124-2.124v-6.01a28.87,28.87,0,0,0,6.586-2.73l4.251,4.251a2.124,2.124,0,0,0,3,0l8.011-8.011a2.124,2.124,0,0,0,0-3l-4.251-4.251a28.857,28.857,0,0,0,2.729-6.586h6.01a2.124,2.124,0,0,0,2.124-2.124V30.589A2.124,2.124,0,0,0,70.382,28.465ZM36.253,52.539A16.286,16.286,0,1,1,52.539,36.253,16.3,16.3,0,0,1,36.253,52.539Z" fill="url(#linear-gradient)"/>
  </g>
</svg>
