<svg xmlns="http://www.w3.org/2000/svg" width="36.487" height="36.564" viewBox="0 0 36.487 36.564">
  <g id="phone-call" transform="translate(-0.539)">
    <g id="Grupo_3" data-name="Grupo 3" transform="translate(0.539 0)">
      <path id="Trazado_34" data-name="Trazado 34" d="M36.07,26.834l-5.1-5.1a3.394,3.394,0,0,0-5.649,1.276,3.473,3.473,0,0,1-4.009,2.187c-3.645-.911-8.565-5.649-9.476-9.476a3.3,3.3,0,0,1,2.187-4.009,3.394,3.394,0,0,0,1.276-5.649l-5.1-5.1a3.64,3.64,0,0,0-4.92,0L1.809,4.419c-3.462,3.645.364,13.3,8.93,21.868s18.224,12.574,21.868,8.93l3.462-3.462A3.64,3.64,0,0,0,36.07,26.834Z" transform="translate(-0.539 0)" fill="#fff"/>
    </g>
  </g>
</svg>
