<svg xmlns="http://www.w3.org/2000/svg" width="944.047" height="714.735" viewBox="0 0 944.047 714.735">
  <g id="_30074_Convertido_" data-name="30074 [Convertido]" transform="translate(-0.002)">
    <g id="Layer_1" data-name="Layer 1" transform="translate(0.002)">
      <path id="Trazado_142" data-name="Trazado 142" d="M588.611,367.811l-4.2.87,4.553-5.568c3.1-3.509-.783-6.148-3.364-3.567l-5.075,3.683,2.291-5.8c1.711-3.074-2.552-5.307-5.075-2.552l-2.668,2.262V199.3L457.971,57.61,438.513,263.5c-2.465.522-4.988,1.16-7.6,1.943a48.582,48.582,0,0,0-9.425-2.552c-15.369-.551-25.026,3.683-31.522,11.02a24.1,24.1,0,0,0-4.611,6.612,58.387,58.387,0,0,0-3.074,6.5c-1.392,7.482-1.769,13.659,1.74,18.53a65.724,65.724,0,0,0,2.059,8.9,18.788,18.788,0,0,0,2.639,5.423l.232.232-5.278,7.482-1.682-.435c-4.031-1.334-8.149-2.668-12.44-3.973-19.632-1.972-30.507,12.035-31.174,30.3,2.726,40.25,11.8,80.269,16.761,92.158a101.153,101.153,0,0,0-6.5,22.01,102.726,102.726,0,0,0-1.421,10.382,28.776,28.776,0,0,0,.2,6.351c0,1.131,0,1.885.377,2.03-2.088,21.6-6.351,45.615-5.8,65.566l105,58.868a9.575,9.575,0,0,1,.493-1.8,459.053,459.053,0,0,0,12.615-56.113v-1.189c2.2-20.067-2.9-60.347-4.872-73.57-.377-2.726-.638-4.321-.638-4.321,5.191-14.963,5.8-35.176,6.583-55.939,20.444,8.7,49.733,12.586,57.534,13.368l3.712-1.45,52.633,44.542V397.419a19.843,19.843,0,0,0,1.769-1.392c5.945-6.061,9.135-10.092,9.773-17.805l5.017-6.525C594.092,369.7,591.8,366.129,588.611,367.811Zm-156.855-33.03-.522,5.6v-5.539Z" transform="translate(351.381 7.521)" fill="#223457" opacity="0.4"/>
      <path id="Trazado_143" data-name="Trazado 143" d="M171.737,459.643A140.13,140.13,0,0,1,185.28,474.9l115.473-66.7a13.8,13.8,0,0,0,0-3.944c-3.451-12.818-15.978-18.878-27.723-29.927-4.06-3.828,11.6-27.984,6.67-35.031,4.843-18.153,167.294-115.763,175.124-134.845a3.158,3.158,0,0,0,0-.522,36.539,36.539,0,0,0,18.994-6.873c3.625-2.9,5.133-6.09,4.611-8.9l-2.059-11.281a7.453,7.453,0,0,0-3.219-4.611l-2-10.759a7.888,7.888,0,0,0,1.392-5.8,3.77,3.77,0,0,0-2.9-2.9l-2.9-15.224a8.351,8.351,0,0,0,1.421-5.8l-1.247-6.815a11.31,11.31,0,0,0-7.076-7.511,1.8,1.8,0,0,0,.29-1.392L456.68,97.679l.174-2.175c-.319-.812-.7-1.566-1.044-2.32a10.092,10.092,0,0,0-3.48-6.09c-.464-.551-.9-1.131-1.421-1.711s-.986-1.16-1.508-1.653l-.609-.464-.493-.522c-.754-.522-1.421-1.131-2.146-1.595l-9.338.957-7.946,2.7-6.438,4.437-7.685,5.51L412.921,117.8l8.178,8.323a7.888,7.888,0,0,0-.783,5.423l1.653,7.047a8.148,8.148,0,0,0,1.856,3.335l-95.406,99.147c-16.558,9.135-67.6,49.849-80.907,59.854-4.118-3.886-15.137-11.6-13.658-11.774,3.393-44.542-28.825-42.425-38.771-39.09V234.989a54.518,54.518,0,0,0-34.161-.638c-29,4.147-44.455,22.387-43.5,44.629-13.339,9.28-20.3,20.937-15.253,36.307,10,30.188,37,21.256,59.245,50.951-8.352,10.092-35.466,38.307-41.265,49.3v.174c-9.222,31.609,2.755,56.142,14.76,84.329.261.928.986,2.349,1.3,3.306L174.869,480.9ZM450.271,111.657l1.769-6.119,1.8-1.247,2.088,10.9a19.371,19.371,0,0,0-5.655-3.422Z" transform="translate(-100.522 52.245)" fill="#223457" opacity="0.4"/>
      <path id="Trazado_144" data-name="Trazado 144" d="M420.79,228.09c-3.77,3.161-77.92,30.71-104.947,55.794,0,0-5.974,7.163-5.8,7.308-8.381,3.277-11.194,12.615-13.224,16.123,3.161,2.9,3.741,6.293,10.672,7.163l32.073-1.943,3.335-.986a161.144,161.144,0,0,0,31.9.638c-3.393,3.451-6.728,6.989-9.976,10.527l.232.261c-8.7,3.19-9.106,12.963-11.107,16.558,3.335,2.9,3.132,5.423,10.962,6.061l30.391-5.365,3.393-.928c19.748,2.9,44.89,3.6,52.981-2.465,5.191-3.886-.812-6.9-12.064-9.657-5.22-.986,41.294-3.248,33.32-3.944l24.5-50.284.783-.377Z" transform="translate(272.422 331.414)" fill="#223457" opacity="0.4"/>
      <path id="Trazado_145" data-name="Trazado 145" d="M423.408,357.329c6.061,3.161,37.959,6.96,53.619,6.873V332.129a23.2,23.2,0,0,0-4.263-.957c0-.2-9.309-2.9-9.512-3.132-21.2-13.368-40.6-12.991-55.446-27.375-7.54-16.471-48.66-44.774-109.21-67.654v-.145l-7.772-2.9-1.392-.522a40.6,40.6,0,0,1-7.627-4c-4.872-3.393-8.845-7.743-17.4-13.832l-.87-.638h-.2c14.992-3.451,18.675-10.875,14.122-17.051l-115.473,66.7c10.208,4.147,25.78,5.133,31.435,9.541-4.321,8.323-4.35,15.369,1.363,22.01s18.1,13.253,37.844,19.806l7.888,3.074-10.846,1.595c-25.432-15.4-51.328-31.638-73.193-38.336l-4.9-11.6L112.83,289.094c21.111,14.209,67.915,31.9,101.177,36.6a97.406,97.406,0,0,0,24.069,8.062l2.9.348a135.386,135.386,0,0,0,20.589.7l11.049.145c2.407.29,6.264-.812,4.785-1.943h5.394a11.6,11.6,0,0,0,2.407-.319l14.7,5.8,19.719,7.685a14.671,14.671,0,0,0,.464,3.567c4.408,16.993,36.915,26.969,67.6,41.468a14.5,14.5,0,0,0,2,.377c2.465,2.581,35.031,3.857,37.38,3.857,4.582-6.583,9.918-17.544-1.479-18.53a3.168,3.168,0,0,0,.145-.493c-20.908-6.873-38.279-21.227-54-38.742,1.566-7.656-10.556-17.4-27.636-28.593l20.734,8.091C371.964,326.706,407.748,341.292,423.408,357.329Z" transform="translate(-77.138 266.495)" fill="#223457" opacity="0.4"/>
      <path id="Trazado_146" data-name="Trazado 146" d="M226.51,141.324c17.747-6.554,34.364-19.255,55.939-27.143l15.63-43.7H313.1c7.54,27.056-1.3,42.483-5.394,62.116-10.237,16.964-52.546,29.463-53.01,47.355Z" transform="translate(138.841 31.973)" fill="#f73b46"/>
      <path id="Trazado_147" data-name="Trazado 147" d="M253.536,95.957l1.1-5.394-5.568-9.019,4.785-15.775,5.8-3.161,4.93-2.552,5.8-1.276h6.525a17.676,17.676,0,0,1,1.885,2,21.923,21.923,0,0,1,3.654,8.7l-1.421,5.249-3.335,1.682-2.378,4.814-1.856,4.988a6.931,6.931,0,0,1-2.233,3.074l-2.9,2.349-2.9,5.626Z" transform="translate(181.702 9.744)" fill="#fcaf75"/>
      <path id="Trazado_148" data-name="Trazado 148" d="M225.164,80c-12.034,4.553-21.053,12.064-22.735,25.925-3.045,25,15.688,21.024,18.849,54.141l24.533-17.95-1.3-49.5Z" transform="translate(92.455 50.06)"/>
      <path id="Trazado_149" data-name="Trazado 149" d="M226.212,240.475c-1.653,4.35-.812,9.86,0,17.4,1.653,4.93,5.8,9.57,13.716,12.267,9.251,7.047,12.934,19.023,24.62,22.474,13.4,3.973,21.517-1.218,20.444-9.222-1.827-13.745-17.4-19.835-24.794-35.727l-6.7-15.746H229.518Z" transform="translate(136.47 338.691)" fill="#1d1d1b"/>
      <path id="Trazado_150" data-name="Trazado 150" d="M219.58,218.629l16.384,87.2c-4.872,19.777,3.161,69.6-2.9,110.2,1.16,17.4,38.482,18.24,39.032,4.756-1.566-41.874,2.552-78.3,6.206-111.994,10.933-33.2,8.033-106.426-13.136-167.816l-43.034,22.271Z" transform="translate(125.674 165.896)" fill="#0e586b"/>
      <path id="Trazado_151" data-name="Trazado 151" d="M207.783,247.989c-3.77,5.249-4.292,21.72-2.291,24.707,9.57,10.585,22.735,31.9,48.95,30.3,10.614-1.972,13.571-7.134,9.57-15.2s-17.4-16.587-23.2-31.9l-6.641-13.456Z" transform="translate(96.728 358.696)" fill="#1d1d1b"/>
      <path id="Trazado_152" data-name="Trazado 152" d="M303,150.347c-3.161,31.2-12.18,56.432-38.133,66.7-1.334,50.081,2.581,101.5-11.223,119.91-7.859,40.25-11.919,79.08-6,109.993-6.322,10.353-30.217,9.135-37.321-2.755a13.86,13.86,0,0,1-1.682-4.35c-2.2-53.648-10.266-95.435,7.946-124.7l-11.773-95.232c-6.351-33.668-.812-51.067,16.674-67.335,2.117-1.943,4.379-3.886,6.844-5.8l72.5-2.9Z" transform="translate(92.774 171.425)" fill="#21758a"/>
      <path id="Trazado_153" data-name="Trazado 153" d="M324.69,188.765a19.11,19.11,0,0,1-22.068,18.124v1.276c-.2,6.815-1.537,15.253-1.363,22.677a35.413,35.413,0,0,0,1.015,7.946,3.86,3.86,0,0,0,.377,1.16,47.558,47.558,0,0,1-11.4,17.4,24.624,24.624,0,0,1-1.943,1.595,30.971,30.971,0,0,1-10.266,5.1l-.812.232h-.406c-.754.174-1.566.348-2.436.493a43.5,43.5,0,0,1-5.8.638h-3.77c-13.687,0-31.348-4.756-42.657-16.964,2.494-18.5-3.77-42.193-10.266-62.087-5.046-15.369-10.237-28.448-11.6-35.031a196.584,196.584,0,0,1,42.048-38.511c15.456-10.759,22.59-24.475,40.221-17.863s19.69,41.729,26.1,55.591S324.632,174.324,324.69,188.765Z" transform="translate(90.945 75.183)" fill="#f73b46"/>
      <path id="Trazado_154" data-name="Trazado 154" d="M232.288,216.749c-10.5,38.887-6.438,58.549,3.886,101.931-21.865,29.55-22.59,67.016-21.865,121.128l-4.031-1.3a13.457,13.457,0,0,1-1.682-4.35c-2.2-53.648-10.266-95.435,7.946-124.7l-11.8-95.2c-6.351-33.668-.754-51.067,16.732-67.335,11.31,12.209,29,16.848,42.657,16.964C232.288,168.35,223.85,186.1,232.288,216.749Z" transform="translate(92.667 177.2)" opacity="0.25"/>
      <path id="Trazado_155" data-name="Trazado 155" d="M294.7,180.373a3.863,3.863,0,0,0,.377,1.16,50.2,50.2,0,0,1-11.4,17.4,24.628,24.628,0,0,1-1.943,1.6,28.679,28.679,0,0,1-10.266,5.1l-.812.232c-.928.232-1.856.435-2.9.609a51.13,51.13,0,0,1-5.8.638h-3.77c-13.687,0-31.348-4.756-42.657-16.964,2.494-18.5-3.77-42.193-10.266-62.087l15.978-4.089,17.4,27.781c13.484,22.706,48.486,18.24,49.965-4.988l6.409,1.769v1.044c0,10.179-1.334,16.819-1.363,22.677a28.189,28.189,0,0,0,1.044,8.12Z" transform="translate(98.487 133.598)" fill="#ab2930" opacity="0.5"/>
      <path id="Trazado_156" data-name="Trazado 156" d="M218.792,117.016A203.2,203.2,0,0,0,193.5,202.447c-4.031,23.054.319,65.015,10.759,87.171,2.61-3.19,7.25-4.64,14.5-3.77,1.711-30.826,3.77-60.724,0-76.7l23.2-50.864C258.027,123.4,231.87,100.429,218.792,117.016Z" transform="translate(73.308 109.929)" fill="#f73b46"/>
      <path id="Trazado_157" data-name="Trazado 157" d="M239.062,196.866a4.234,4.234,0,0,1-4.93-.638c-3.886-4.06-7.975-7.25-13.223-5.452a9.773,9.773,0,0,0-.435,6.641V198a100.516,100.516,0,0,0,9.251,20.56,2.262,2.262,0,0,1-.551,2.755,3.074,3.074,0,0,1-3.6,0c.2,2.088-2.494,2.9-4.292.986l-2.7-2.9c-.29,2.407-3.161,1.74-4.031,0l-5.1-6.322a47.993,47.993,0,0,1-8.7-11.948c-.319-.667-.667-1.3-.986-2a70.5,70.5,0,0,1-3.538-22.474c1.74-6.235,7.308-7.134,14.5-3.77l8.7,4.466c8.033,3.944,12.093,9.57,20.705,16.558C240.8,194.894,240.222,196.17,239.062,196.866Z" transform="translate(81.311 222.863)" fill="#fcaf75"/>
      <path id="Trazado_158" data-name="Trazado 158" d="M226.259,202.7a3.074,3.074,0,0,1-3.6,0c.2,2.088-2.494,2.9-4.292.986l-2.7-2.9c-.29,2.407-3.161,1.74-4.031,0l-5.1-6.322a47.994,47.994,0,0,1-8.7-11.947,15.021,15.021,0,0,0,12.876-1.769C214.34,189.421,221.01,201.107,226.259,202.7Z" transform="translate(84.371 241.473)" fill="#ab2930" opacity="0.2"/>
      <path id="Trazado_159" data-name="Trazado 159" d="M224.565,185.764a4.2,4.2,0,0,1-4.9-.638c-3.886-4.06-7.975-7.25-13.223-5.452a9.772,9.772,0,0,0-.435,6.641l-2.146-9.164C213.372,174.918,220.012,183.937,224.565,185.764Z" transform="translate(95.808 233.965)" fill="#ab2930" opacity="0.2"/>
      <path id="Trazado_160" data-name="Trazado 160" d="M216.485,93.32l-3.915,26.418c5.945,6.293,35.031,32.682,40.424,13.281,0-12.412-3.886-24.33-3.161-35.176Z" transform="translate(112.356 75.366)" fill="#fcaf75"/>
      <path id="Trazado_161" data-name="Trazado 161" d="M219.17,91.9c0,27.433,12.818,66.7,29.55,60,11.89-4.756,0-24.794,0-43.5Z" transform="translate(124.895 72.669)" fill="#ab2930" opacity="0.2"/>
      <path id="Trazado_162" data-name="Trazado 162" d="M220.976,133.894A33.117,33.117,0,0,1,210.16,107.1c1.972-18.1,12.383-35.379,29.521-34.277,20.067,1.769,33.581,12.238,34.8,30.536a39.555,39.555,0,0,1-1.276,13.687c-1.073,0,3.973,7.018,5.6,10.7,1.3,2.9-4.089,5.22-4.089,5.22-1.218,7.395-1.247,15.775-7.221,17.66-8.265,2.639-16.123,1.682-25.026,0S220.976,133.894,220.976,133.894Z" transform="translate(107.633 36.329)" fill="#fcaf75"/>
      <path id="Trazado_163" data-name="Trazado 163" d="M225.757,138.809s12.237-.493,19.255-6.757,9.28-7.337,13.745-19.661,17.2-17.95,17.4-20.966-5.394-9.048-10.672-12.933c-8.7-6.322-23.373-6.322-23.373-6.322-16.3,0-28.332,10.469-33,25.722C204.066,114.45,209.373,129.675,225.757,138.809Z" transform="translate(102.301 35.184)" fill="#1d1d1b"/>
      <path id="Trazado_164" data-name="Trazado 164" d="M219.957,90.223c-4.93.7-5.974,4.64-5.017,9.077a9.541,9.541,0,0,0,9.135,8.12c4.408-.551,4.988-4.756,5.365-8.7C226.047,96.777,225.264,89.5,219.957,90.223Z" transform="translate(116.25 69.387)" fill="#fcaf75"/>
      <path id="Trazado_165" data-name="Trazado 165" d="M250,85v9.976a8.41,8.41,0,0,0,4.988,6.931,26.476,26.476,0,0,0,23.982,0,8.41,8.41,0,0,0,4.959-6.931V85Z" transform="translate(183.469 59.559)"/>
      <ellipse id="Elipse_1" data-name="Elipse 1" cx="16.964" cy="9.802" rx="16.964" ry="9.802" transform="translate(433.527 134.816)" fill="#575756"/>
      <path id="Trazado_166" data-name="Trazado 166" d="M250.66,71.77v37.293a7.54,7.54,0,0,0,4.437,6.177,23.663,23.663,0,0,0,21.343,0,7.539,7.539,0,0,0,4.437-6.177V71.77Z" transform="translate(184.723 34.424)" fill="#fff3cc"/>
      <path id="Trazado_167" data-name="Trazado 167" d="M276.383,71.332c5.8,3.393,5.8,8.9,0,12.325a23.663,23.663,0,0,1-21.343,0c-5.8-3.422-5.8-8.932,0-12.324A23.46,23.46,0,0,1,276.383,71.332Z" transform="translate(184.78 28.714)" fill="#575756"/>
      <path id="Trazado_168" data-name="Trazado 168" d="M267.024,90.368a25.229,25.229,0,0,1-11.774-2.639A8.381,8.381,0,0,1,250,80.74a3.045,3.045,0,0,1,1.827-2.9v2.9c0,1.972,1.479,3.857,4.2,5.336a25.287,25.287,0,0,0,21.749,0c2.726-1.479,4.2-3.364,4.2-5.336v-2.9a2.9,2.9,0,0,1,1.856,2.9,8.41,8.41,0,0,1-5.191,6.989,25.228,25.228,0,0,1-11.629,2.639Z" transform="translate(183.468 45.956)"/>
      <path id="Trazado_169" data-name="Trazado 169" d="M250,70.27v5.336a8.41,8.41,0,0,0,4.988,6.931,26.476,26.476,0,0,0,23.982,0,8.41,8.41,0,0,0,4.959-6.931V70.27Z" transform="translate(183.469 31.574)"/>
      <ellipse id="Elipse_2" data-name="Elipse 2" cx="16.964" cy="9.802" rx="16.964" ry="9.802" transform="translate(433.527 92.042)" fill="#575756"/>
      <path id="Trazado_170" data-name="Trazado 170" d="M277.687,75.271a6.612,6.612,0,0,1-3.886,5.423,20.705,20.705,0,0,1-18.733,0,5.8,5.8,0,0,1,0-10.817,20.705,20.705,0,0,1,18.733,0A6.612,6.612,0,0,1,277.687,75.271Z" transform="translate(186.057 26.573)" fill="#3c3c3b"/>
      <path id="Trazado_171" data-name="Trazado 171" d="M277.786,78.547a6.612,6.612,0,0,1-3.886,5.423,20.705,20.705,0,0,1-18.733,0,6.583,6.583,0,0,1-3.857-5.423,13.252,13.252,0,0,1,26.476,0Z" transform="translate(185.958 23.297)"/>
      <path id="Trazado_172" data-name="Trazado 172" d="M256.478,114.362a.928.928,0,0,1-.928-.928V75.388a.928.928,0,1,1,1.856,0v38.047A.928.928,0,0,1,256.478,114.362Z" transform="translate(194.013 39.534)"/>
      <path id="Trazado_173" data-name="Trazado 173" d="M260.858,113.123a.928.928,0,0,1-.928-.928V74.207a.928.928,0,0,1,.928-.957.957.957,0,0,1,.928.957v38.046A.928.928,0,0,1,260.858,113.123Z" transform="translate(202.335 37.236)"/>
      <path id="Trazado_174" data-name="Trazado 174" d="M252.108,113.123a.928.928,0,0,1-.928-.928V74.207a.928.928,0,0,1,.928-.957.957.957,0,0,1,.928.957v38.046A.928.928,0,0,1,252.108,113.123Z" transform="translate(185.711 37.236)"/>
      <path id="Trazado_175" data-name="Trazado 175" d="M252.77,97.757a1.45,1.45,0,0,1-1.45-1.45V79.633a16.008,16.008,0,0,1,7.308-12.7l10.324-5.974a5.452,5.452,0,0,1,8.7,5.075v16.7a1.45,1.45,0,0,1-2.9,0V66.09a2.615,2.615,0,0,0-4.437-2.436l-10.324,5.8a13.252,13.252,0,0,0-5.8,10.208V96.336A1.45,1.45,0,0,1,252.77,97.757Z" transform="translate(185.977 11.772)"/>
      <path id="Trazado_176" data-name="Trazado 176" d="M252.77,93.244a1.45,1.45,0,0,1-1.45-1.45V75.119a16.008,16.008,0,0,1,7.308-12.7,1.479,1.479,0,0,1,2,.522,1.45,1.45,0,0,1-.551,1.972,13.252,13.252,0,0,0-5.8,10.208V91.794a1.45,1.45,0,0,1-1.508,1.45Z" transform="translate(185.977 16.285)"/>
      <path id="Trazado_177" data-name="Trazado 177" d="M271.135,59.21a21.375,21.375,0,0,1,3.132,5.017,5.365,5.365,0,0,1-1.421,6.061l-.812.725-.9,1.8-3.973,1.45h-3.509l-2.407,1.45-4.35,1.566L252.75,67.3Z" transform="translate(188.694 10.561)" fill="#fcaf75"/>
      <path id="Trazado_178" data-name="Trazado 178" d="M260.96,333.884l146.212-34.161V241.754l-17.66-26.65L311.795,200.46,301.993,239Z" transform="translate(495.788 380.851)" fill="#223457" opacity="0.4"/>
      <path id="Trazado_179" data-name="Trazado 179" d="M370.807,141.531,351.436,152.7l-7.8,4.524-2.929-1.711L230.83,92.088l27.2-15.688,82.676,47.732,10.73,6.206Z" transform="translate(438.545 145.151)" fill="#c6c6c6"/>
      <path id="Trazado_180" data-name="Trazado 180" d="M353.006,286.683,240.2,221.522V0L353.035,65.131Z" transform="translate(456.347)" fill="#9d9d9c"/>
      <path id="Trazado_181" data-name="Trazado 181" d="M230.83,237.24,258,221.522V0L230.83,15.688Z" transform="translate(438.545)" fill="#706f6f"/>
      <path id="Trazado_182" data-name="Trazado 182" d="M381.479,157.033a4.756,4.756,0,0,1-2.32-.58l-31.116-17.4a9.57,9.57,0,0,1-4.872-8.236l-.232-37.7h2.7l.232,37.7a6.873,6.873,0,0,0,3.48,5.8l31.087,17.4a2.291,2.291,0,0,0,2.233,0,2.2,2.2,0,0,0,1.131-1.972V99.355h2.813v52.662a4.988,4.988,0,0,1-5.017,5.017Z" transform="translate(360.044 74.986)" fill="#fff"/>
      <path id="Trazado_183" data-name="Trazado 183" d="M372.418,146.713a4.756,4.756,0,0,1-2.233-.58l-21.053-12.615a11.194,11.194,0,0,1-5.452-9.512l-.29-31.667h2.668l.29,31.667a8.7,8.7,0,0,0,4.176,7.25l21.024,12.557a1.8,1.8,0,0,0,1.827,0,1.885,1.885,0,0,0,.928-1.624l-.9-46.4h2.7l.9,46.4a4.524,4.524,0,0,1-2.233,4A4.582,4.582,0,0,1,372.418,146.713Z" transform="translate(360.899 73.504)" fill="#fff"/>
      <path id="Trazado_184" data-name="Trazado 184" d="M359.992,135.346a3.973,3.973,0,0,1-2.03-.551l-9.8-5.945a6.177,6.177,0,0,1-2.9-5.191L345,96.633h2.7l.319,27.027a3.422,3.422,0,0,0,1.682,2.9l9.744,5.8a1.363,1.363,0,0,0,1.363,0,1.334,1.334,0,0,0,.7-1.189V91.79h2.668v39.5a4.089,4.089,0,0,1-4.06,4.06Z" transform="translate(363.958 72.46)" fill="#e30613"/>
      <path id="Trazado_185" data-name="Trazado 185" d="M348.1,203.661a5.394,5.394,0,0,1-5.394-5.394V48.343a5.394,5.394,0,1,1,10.759,0V198.267a5.365,5.365,0,0,1-5.365,5.394Z" transform="translate(359.579 -21.084)" fill="#dadada"/>
      <path id="Trazado_186" data-name="Trazado 186" d="M388.968,139.661a7.278,7.278,0,0,1-3.654-.986l-17.4-10.034a20.908,20.908,0,0,1-9.425-16.326V72.5h2.7v39.815a18.066,18.066,0,0,0,8.062,13.977l17.4,10.034a4.611,4.611,0,0,0,6.9-3.973V107.27h2.7v25.084a7.337,7.337,0,0,1-7.279,7.308Z" transform="translate(389.588 35.811)" fill="#e30613"/>
      <path id="Trazado_187" data-name="Trazado 187" d="M379.269,129.195a4.9,4.9,0,0,1-2.436-.667l-11.976-7.047a10.411,10.411,0,0,1-4.727-8.236V73.43h2.7v39.815a7.858,7.858,0,0,0,3.393,5.8l11.947,7.047a2.146,2.146,0,0,0,2.2,0,2.262,2.262,0,0,0,1.073-1.943l-.348-22.59h2.7l.348,22.59a4.872,4.872,0,0,1-2.407,4.292,5.075,5.075,0,0,1-2.465.754Z" transform="translate(392.703 37.578)" fill="#fff"/>
      <rect id="Rect치ngulo_415" data-name="Rect치ngulo 415" width="2.697" height="72.7" transform="translate(726.966 90.94)" fill="#e30613"/>
      <rect id="Rect치ngulo_416" data-name="Rect치ngulo 416" width="2.697" height="68.495" transform="translate(737.116 101.931)" fill="#fff"/>
      <path id="Trazado_188" data-name="Trazado 188" d="M373.534,159.648a5.8,5.8,0,0,1-2.9-.841l-7.395-4.466a6,6,0,0,1-2.9-5.162V98.75h2.7v50.429a3.392,3.392,0,0,0,1.595,2.9l7.395,4.437a3.074,3.074,0,0,0,4.669-2.61l.2-16.123h2.7l-.2,16.094a5.814,5.814,0,0,1-5.858,5.771Z" transform="translate(393.102 85.683)" fill="#e30613"/>
      <g id="Grupo_22" data-name="Grupo 22" transform="translate(722.327 75.02)">
        <path id="Trazado_189" data-name="Trazado 189" d="M278.553,44.138,249.09,27l.116,42.773,29.463,17.138Z" transform="translate(-249.09 -23.723)" fill="#565656"/>
        <path id="Trazado_190" data-name="Trazado 190" d="M284.237,42.979,254.774,25.87l-5.684,3.277,29.463,17.138Z" transform="translate(-249.09 -25.87)" fill="#616060"/>
        <path id="Trazado_191" data-name="Trazado 191" d="M259.25,35.076l.116,42.773,5.684-3.306-.116-42.773Z" transform="translate(-229.787 -14.661)" fill="#3c3c3c"/>
      </g>
      <path id="Trazado_192" data-name="Trazado 192" d="M348.279,65.6l18.936-10.991c3.77-2.2,8.99-1.885,14.789,1.45a45.528,45.528,0,0,1,20.589,35.872c0,6.554-2.32,11.194-6.061,13.339l-18.849,11.136.667-.493c-3.8,2.668-9.309,2.581-15.456-.986A45.644,45.644,0,0,1,342.16,79.057C342.189,72.387,344.6,67.776,348.279,65.6Z" transform="translate(358.563 -0.847)" fill="#3c3c3b"/>
      <path id="Trazado_193" data-name="Trazado 193" d="M363.01,59.871c-11.6-6.641-20.792-1.3-20.85,11.89a45.644,45.644,0,0,0,20.734,35.872c11.6,6.641,20.821,1.334,20.85-11.89A45.644,45.644,0,0,0,363.01,59.871Z" transform="translate(358.562 6.391)" fill="#706f6f"/>
      <path id="Trazado_194" data-name="Trazado 194" d="M343.433,68.322a40.889,40.889,0,0,0,8.062,22.416l21.14,12.122c3.277-1.3,5.191-5.1,5.22-10.672a39,39,0,0,0-5.626-18.617L346.623,58.81a12.5,12.5,0,0,0-3.19,9.512Z" transform="translate(360.885 9.801)" fill="#fff"/>
      <path id="Trazado_195" data-name="Trazado 195" d="M346.532,68.269l21.314,12.3a1.236,1.236,0,0,0,2-1.131V77.142a4.321,4.321,0,0,0-2-3.422L346.532,61.4a1.217,1.217,0,0,0-1.972,1.131v2.32a4.379,4.379,0,0,0,1.972,3.422Z" transform="translate(363.122 14.233)" fill="#3c3c3b"/>
      <path id="Trazado_196" data-name="Trazado 196" d="M245.48,31.957l15.746,9.106V38.917L245.48,29.84Z" transform="translate(466.378 56.693)" fill="#3c3c3b"/>
      <path id="Trazado_197" data-name="Trazado 197" d="M246.22,33.267l11.426,6.612V38.313L246.22,31.73Z" transform="translate(467.784 60.283)" fill="#3c3c3b"/>
      <g id="Grupo_23" data-name="Grupo 23" transform="translate(719.224 158.624)">
        <path id="Trazado_198" data-name="Trazado 198" d="M255.473,60.34l-7.453-4.35.087,34.1,7.482,4.35Z" transform="translate(-248.02 -52.249)" fill="#a8a8a8"/>
        <path id="Trazado_199" data-name="Trazado 199" d="M251.969,61.965,248.75,60.08l.087,11.832,3.219,1.885Z" transform="translate(-246.633 -44.479)" fill="#3c3c3b"/>
        <path id="Trazado_200" data-name="Trazado 200" d="M262,59.021,254.516,54.7l-6.5,3.741,7.453,4.35Z" transform="translate(-248.02 -54.7)" fill="#bcbcbc"/>
        <path id="Trazado_201" data-name="Trazado 201" d="M250.59,59.96l.116,34.1,6.5-3.77-.087-34.1Z" transform="translate(-243.137 -51.869)" fill="#757575"/>
      </g>
      <path id="Trazado_202" data-name="Trazado 202" d="M349.32,93.76a3.335,3.335,0,0,0,1.508,2.61.94.94,0,0,0,1.508-.87,3.422,3.422,0,0,0-1.508-2.61C349.987,92.281,349.32,92.658,349.32,93.76Z" transform="translate(372.166 73.998)" fill="#fff"/>
      <path id="Trazado_203" data-name="Trazado 203" d="M349.32,102.674a3.335,3.335,0,0,0,1.508,2.61.94.94,0,0,0,1.508-.87,3.422,3.422,0,0,0-1.508-2.61C349.987,101.4,349.32,101.8,349.32,102.674Z" transform="translate(372.166 91.184)" fill="#fff"/>
      <g id="Grupo_24" data-name="Grupo 24" transform="translate(719.064 176.762)">
        <path id="Trazado_204" data-name="Trazado 204" d="M349.52,96.8h.174l2.378,1.363H351.9L349.52,96.77Z" transform="translate(-346.518 -94.841)" fill="#e05a00"/>
        <path id="Trazado_205" data-name="Trazado 205" d="M348.79,96.5a.957.957,0,0,1,.377-.319.406.406,0,0,1,.464,0l2.378,1.392h-.493a1.975,1.975,0,0,0-.348.348,1.073,1.073,0,0,0-.2,1.189l1.653,1.943a2.146,2.146,0,0,0,0,2.059.608.608,0,0,0,.232.174l-2.378-1.363a.668.668,0,0,1-.2-.2,2,2,0,0,1,0-2.03l-1.653-1.972C348.384,97.454,348.471,96.932,348.79,96.5Z" transform="translate(-348.485 -96.105)" fill="#e05a00"/>
        <path id="Trazado_206" data-name="Trazado 206" d="M349.954,96.752a1.975,1.975,0,0,0-.348.348,1.073,1.073,0,0,0-.2,1.189l1.653,1.943a2.146,2.146,0,0,0,0,2.059,1.044,1.044,0,0,0,1.392,0v-3.8h-.174L350.65,96.52A4.558,4.558,0,0,0,349.954,96.752Z" transform="translate(-346.923 -95.316)" fill="#ff8521"/>
      </g>
      <g id="Grupo_25" data-name="Grupo 25" transform="translate(728.097 163.525)">
        <path id="Trazado_207" data-name="Trazado 207" d="M258.533,62.011,251.08,57.69l.087,34.1,7.482,4.321Z" transform="translate(-251.08 -53.92)" fill="#a8a8a8"/>
        <path id="Trazado_208" data-name="Trazado 208" d="M255.029,63.655,251.81,61.77l.087,11.861,3.219,1.856Z" transform="translate(-249.693 -46.169)" fill="#3c3c3b"/>
        <path id="Trazado_209" data-name="Trazado 209" d="M265.057,60.711l-7.482-4.321-6.5,3.77,7.453,4.321Z" transform="translate(-251.08 -56.39)" fill="#bcbcbc"/>
        <path id="Trazado_210" data-name="Trazado 210" d="M253.65,61.65l.116,34.1,6.5-3.77-.087-34.1Z" transform="translate(-246.197 -53.559)" fill="#757575"/>
      </g>
      <path id="Trazado_211" data-name="Trazado 211" d="M352.38,95.358a3.248,3.248,0,0,0,1.508,2.581.931.931,0,0,0,1.508-.87,3.248,3.248,0,0,0-1.508-2.581C353.047,94,352.38,94.4,352.38,95.358Z" transform="translate(377.979 77.185)" fill="#fff"/>
      <path id="Trazado_212" data-name="Trazado 212" d="M352.38,104.42a3.335,3.335,0,0,0,1.508,2.61.936.936,0,0,0,1.508-.87,3.335,3.335,0,0,0-1.508-2.61C353.047,103.086,352.38,103.463,352.38,104.42Z" transform="translate(377.979 94.426)" fill="#fff"/>
      <g id="Grupo_26" data-name="Grupo 26" transform="translate(727.604 183.534)">
        <path id="Trazado_213" data-name="Trazado 213" d="M351.6,105.69l1.943-3.741a2.407,2.407,0,0,1,.232-2.175,3.507,3.507,0,0,1,1.16-1.334l2.378,1.392a3.132,3.132,0,0,0-1.16,1.334,2.406,2.406,0,0,0-.232,2.175l-1.943,3.741c-.232.435-.232.87,0,1.015L351.6,106.7C351.372,106.589,351.372,106.125,351.6,105.69Z" transform="translate(-351.43 -98.44)" fill="#e05a00"/>
        <path id="Trazado_214" data-name="Trazado 214" d="M355.766,98.92a3.132,3.132,0,0,0-1.16,1.334,2.407,2.407,0,0,0-.232,2.175l-1.943,3.741c-.261.464-.232.928,0,1.044a.464.464,0,0,0,.435,0,1.479,1.479,0,0,0,.522-.58l1.943-3.741a1.219,1.219,0,0,0,.406-.174Z" transform="translate(-349.879 -97.528)" fill="#ff8521"/>
      </g>
      <g id="Grupo_27" data-name="Grupo 27" transform="translate(736.797 169.295)">
        <path id="Trazado_215" data-name="Trazado 215" d="M261.562,64.02l-7.482-4.35.087,34.132,7.482,4.321Z" transform="translate(-254.08 -55.929)" fill="#a8a8a8"/>
        <path id="Trazado_216" data-name="Trazado 216" d="M258.058,65.645,254.81,63.76l.087,11.832,3.248,1.885Z" transform="translate(-252.693 -48.159)" fill="#3c3c3b"/>
        <path id="Trazado_217" data-name="Trazado 217" d="M268.057,62.7,260.6,58.38l-6.525,3.741,7.482,4.35Z" transform="translate(-254.08 -58.38)" fill="#bcbcbc"/>
        <path id="Trazado_218" data-name="Trazado 218" d="M256.66,63.64l.087,34.1,6.525-3.77-.116-34.1Z" transform="translate(-249.178 -55.549)" fill="#757575"/>
      </g>
      <path id="Trazado_219" data-name="Trazado 219" d="M355.39,97.323a3.335,3.335,0,0,0,1.479,2.61.931.931,0,0,0,1.508-.87,3.248,3.248,0,0,0-1.508-2.581C356.057,95.989,355.39,96.366,355.39,97.323Z" transform="translate(383.698 80.962)" fill="#fff"/>
      <path id="Trazado_220" data-name="Trazado 220" d="M355.39,106.41a3.393,3.393,0,0,0,1.479,2.61.936.936,0,0,0,1.508-.87,3.335,3.335,0,0,0-1.508-2.61C356.057,105.076,355.39,105.453,355.39,106.41Z" transform="translate(383.698 98.206)" fill="#fff"/>
      <g id="Grupo_28" data-name="Grupo 28" transform="translate(736.658 187.445)">
        <path id="Trazado_221" data-name="Trazado 221" d="M355.58,100.46h.2l2.378,1.392h-.2l-2.378-1.363Z" transform="translate(-352.599 -98.513)" fill="#e05a00"/>
        <path id="Trazado_222" data-name="Trazado 222" d="M354.865,100.17a.9.9,0,0,1,.348-.319.522.522,0,0,1,.493,0l2.349,1.392a.464.464,0,0,0-.464,0,1.333,1.333,0,0,0-.348.348c-.319.406-.435.928-.232,1.189l1.653,1.943a2.059,2.059,0,0,0,0,2.059,1.336,1.336,0,0,0,.2.2l-2.378-1.392-.2-.174a2.059,2.059,0,0,1,0-2.059l-1.653-1.972a1.16,1.16,0,0,1,.232-1.218Z" transform="translate(-354.552 -99.789)" fill="#e05a00"/>
        <path id="Trazado_223" data-name="Trazado 223" d="M356.046,100.449a1.333,1.333,0,0,0-.348.348c-.319.406-.435.928-.232,1.189l1.653,1.943a2.059,2.059,0,0,0,0,2.059c.319.377.841.377,1.392,0v-3.77h-.2l-1.653-1.972a.435.435,0,0,0-.609.2Z" transform="translate(-353.007 -99.024)" fill="#ff8521"/>
      </g>
      <g id="Grupo_29" data-name="Grupo 29" transform="translate(745.671 174.196)">
        <path id="Trazado_224" data-name="Trazado 224" d="M264.622,65.691,257.14,61.37l.116,34.1,7.453,4.321Z" transform="translate(-257.14 -57.6)" fill="#a8a8a8"/>
        <path id="Trazado_225" data-name="Trazado 225" d="M261.1,67.335,257.88,65.45l.058,11.861,3.248,1.856Z" transform="translate(-255.734 -49.849)" fill="#3c3c3b"/>
        <path id="Trazado_226" data-name="Trazado 226" d="M271.117,64.42l-7.453-4.35-6.525,3.77,7.482,4.321Z" transform="translate(-257.14 -60.07)" fill="#bcbcbc"/>
        <path id="Trazado_227" data-name="Trazado 227" d="M259.72,65.311l.087,34.1,6.525-3.741-.116-34.1Z" transform="translate(-252.238 -57.22)" fill="#757575"/>
      </g>
      <path id="Trazado_228" data-name="Trazado 228" d="M358.45,99.06a3.277,3.277,0,0,0,1.479,2.581.931.931,0,0,0,1.508-.87,3.248,3.248,0,0,0-1.392-2.668C359.117,97.7,358.45,98.1,358.45,99.06Z" transform="translate(389.512 84.155)" fill="#fff"/>
      <path id="Trazado_229" data-name="Trazado 229" d="M358.45,108.1a3.393,3.393,0,0,0,1.479,2.61.936.936,0,0,0,1.508-.87,3.335,3.335,0,0,0-1.508-2.61C359.117,106.766,358.45,107.143,358.45,108.1Z" transform="translate(389.512 101.417)" fill="#fff"/>
      <g id="Grupo_30" data-name="Grupo 30" transform="translate(745.188 194.205)">
        <path id="Trazado_230" data-name="Trazado 230" d="M357.657,109.37l1.943-3.741a2.523,2.523,0,0,1,.232-2.175,3.86,3.86,0,0,1,1.189-1.334l2.378,1.392a3.393,3.393,0,0,0-1.189,1.334,2.522,2.522,0,0,0-.232,2.175l-1.943,3.741c-.232.435-.2.87,0,1.015l-2.378-1.363C357.454,110.269,357.425,109.8,357.657,109.37Z" transform="translate(-357.494 -102.12)" fill="#e05a00"/>
        <path id="Trazado_231" data-name="Trazado 231" d="M361.841,102.6a3.393,3.393,0,0,0-1.189,1.334,2.523,2.523,0,0,0-.232,2.175l-1.943,3.741c-.232.464-.2.928,0,1.044a.551.551,0,0,0,.464,0,1.421,1.421,0,0,0,.493-.58l1.943-3.741h.406Z" transform="translate(-355.936 -101.208)" fill="#ff8521"/>
      </g>
      <g id="Grupo_31" data-name="Grupo 31" transform="translate(766.55 84.329)">
        <path id="Trazado_232" data-name="Trazado 232" d="M289.917,46.056,264.34,31.18l.174,62.2,25.606,14.876Z" transform="translate(-264.34 -25.09)" fill="#dadada"/>
        <path id="Trazado_233" data-name="Trazado 233" d="M300.5,43.956,274.9,29.08,264.34,35.17l25.577,14.876Z" transform="translate(-264.34 -29.08)" fill="#bcbcbc"/>
        <path id="Trazado_234" data-name="Trazado 234" d="M273.16,40.3l.2,62.2,10.556-6.119-.174-62.174Z" transform="translate(-247.583 -19.334)" fill="#757575"/>
      </g>
      <g id="Grupo_32" data-name="Grupo 32" transform="translate(764.839 132.815)">
        <path id="Trazado_235" data-name="Trazado 235" d="M289.327,61.016,263.75,46.14v3.683L289.356,64.7Z" transform="translate(-263.75 -45.154)" fill="#fff"/>
        <path id="Trazado_236" data-name="Trazado 236" d="M291.067,60.676,265.461,45.8l-1.711.986,25.577,14.876Z" transform="translate(-263.75 -45.8)" fill="#bcbcbc"/>
        <path id="Trazado_237" data-name="Trazado 237" d="M272.57,51.916,272.6,55.6l1.711-.986V50.93Z" transform="translate(-246.993 -36.054)" fill="#757575"/>
      </g>
      <path id="Trazado_238" data-name="Trazado 238" d="M276.6,46.964,269.76,43.02l.029,15.543,6.815,3.973Z" transform="translate(512.507 81.733)" fill="#1d1d1b"/>
      <g id="Grupo_33" data-name="Grupo 33" transform="translate(778.584 119.272)">
        <path id="Trazado_239" data-name="Trazado 239" d="M275.334,45.843,268.49,41.87v5.916l6.844,3.973Z" transform="translate(-268.49 -39.724)" fill="#ff8521"/>
        <path id="Trazado_240" data-name="Trazado 240" d="M279.017,45.1l-6.844-3.973-3.683,2.146,6.844,3.973Z" transform="translate(-268.49 -41.13)" fill="#ff8521"/>
        <path id="Trazado_241" data-name="Trazado 241" d="M270.85,44.646v5.916l3.683-2.117V42.5Z" transform="translate(-264.006 -38.527)" fill="#e05a00"/>
      </g>
      <path id="Trazado_242" data-name="Trazado 242" d="M272.274,44.433,265.43,40.46,265.459,56l6.815,3.973Z" transform="translate(504.281 76.869)" fill="#1d1d1b"/>
      <g id="Grupo_34" data-name="Grupo 34" transform="translate(766.028 127.073)">
        <path id="Trazado_243" data-name="Trazado 243" d="M270.975,48.533,264.16,44.56v5.916L271,54.449Z" transform="translate(-264.16 -42.414)" fill="#ff8521"/>
        <path id="Trazado_244" data-name="Trazado 244" d="M274.687,47.793l-6.844-3.973-3.683,2.146,6.815,3.973Z" transform="translate(-264.16 -43.82)" fill="#ff8521"/>
        <path id="Trazado_245" data-name="Trazado 245" d="M266.51,47.336l.029,5.916,3.683-2.117V45.19Z" transform="translate(-259.695 -41.217)" fill="#e05a00"/>
      </g>
      <g id="Grupo_35" data-name="Grupo 35" transform="translate(764.839 106.571)">
        <path id="Trazado_246" data-name="Trazado 246" d="M289.327,51.966,263.75,37.09V40.8l25.606,14.876Z" transform="translate(-263.75 -36.104)" fill="#fff"/>
        <path id="Trazado_247" data-name="Trazado 247" d="M291.067,51.626,265.461,36.75l-1.711.986,25.577,14.876Z" transform="translate(-263.75 -36.75)" fill="#bcbcbc"/>
        <path id="Trazado_248" data-name="Trazado 248" d="M272.57,42.866l.029,3.712,1.711-.986V41.88Z" transform="translate(-246.993 -27.004)" fill="#757575"/>
      </g>
      <path id="Trazado_249" data-name="Trazado 249" d="M370.63,73.389a4.988,4.988,0,0,0,2.262,3.886,1.383,1.383,0,0,0,2.233-1.3,4.959,4.959,0,0,0-2.233-3.886C371.7,71.359,370.63,71.939,370.63,73.389Z" transform="translate(412.652 34.428)" fill="#fff"/>
      <path id="Trazado_250" data-name="Trazado 250" d="M366.21,70.786a5.046,5.046,0,0,0,2.233,3.915c1.247.725,2.262.145,2.262-1.3a4.93,4.93,0,0,0-2.262-3.886C367.225,68.7,366.21,69.365,366.21,70.786Z" transform="translate(404.255 29.463)" fill="#fff"/>
      <path id="Trazado_251" data-name="Trazado 251" d="M370.63,89.878a4.988,4.988,0,0,0,2.262,3.915,1.388,1.388,0,0,0,2.233-1.3,4.959,4.959,0,0,0-2.233-3.915A1.391,1.391,0,0,0,370.63,89.878Z" transform="translate(412.652 65.788)" fill="#fff"/>
      <path id="Trazado_252" data-name="Trazado 252" d="M366.21,87.289a4.988,4.988,0,0,0,2.233,3.886c1.247.725,2.262.145,2.262-1.276a4.988,4.988,0,0,0-2.262-3.915C367.225,85.26,366.21,85.839,366.21,87.289Z" transform="translate(404.255 60.837)" fill="#fff"/>
      <g id="Grupo_36" data-name="Grupo 36" transform="translate(763.012 181.794)">
        <path id="Trazado_253" data-name="Trazado 253" d="M282.085,75.27,263.12,64.25l.145,46.05L282.2,121.32Z" transform="translate(-263.12 -59.726)" fill="#fff"/>
        <path id="Trazado_254" data-name="Trazado 254" d="M276.144,73.244,264.37,66.4l.087,37.757,11.774,6.815Z" transform="translate(-260.745 -55.641)" fill="#bcbcbc"/>
        <path id="Trazado_255" data-name="Trazado 255" d="M289.915,73.71,270.95,62.69l-7.83,4.524,18.965,11.02Z" transform="translate(-263.12 -62.69)" fill="#bcbcbc"/>
        <path id="Trazado_256" data-name="Trazado 256" d="M269.66,71.014l.116,46.05,7.83-4.524-.116-46.05Z" transform="translate(-250.695 -55.47)" fill="#757575"/>
      </g>
      <g id="Grupo_37" data-name="Grupo 37" transform="translate(764.549 194.06)">
        <path id="Trazado_257" data-name="Trazado 257" d="M277.366,75.075,263.65,67.1v1.972l13.716,7.975Z" transform="translate(-263.65 -66.578)" fill="#ededed"/>
        <path id="Trazado_258" data-name="Trazado 258" d="M278.295,74.895,264.578,66.92l-.928.522,13.716,7.975Z" transform="translate(-263.65 -66.92)" fill="#fff"/>
        <path id="Trazado_259" data-name="Trazado 259" d="M268.38,70.192v1.972l.928-.522V69.67Z" transform="translate(-254.664 -61.695)" fill="#757575"/>
      </g>
      <g id="Grupo_38" data-name="Grupo 38" transform="translate(764.549 198.845)">
        <path id="Trazado_260" data-name="Trazado 260" d="M277.366,76.725,263.65,68.75v1.972L277.366,78.7Z" transform="translate(-263.65 -68.228)" fill="#ededed"/>
        <path id="Trazado_261" data-name="Trazado 261" d="M278.295,76.545,264.578,68.57l-.928.522,13.716,7.975Z" transform="translate(-263.65 -68.57)" fill="#fff"/>
        <path id="Trazado_262" data-name="Trazado 262" d="M268.38,71.842v1.972l.928-.522V71.32Z" transform="translate(-254.664 -63.345)" fill="#757575"/>
      </g>
      <g id="Grupo_39" data-name="Grupo 39" transform="translate(764.549 203.63)">
        <path id="Trazado_263" data-name="Trazado 263" d="M277.366,78.375,263.65,70.4v1.972l13.716,7.975Z" transform="translate(-263.65 -69.878)" fill="#ededed"/>
        <path id="Trazado_264" data-name="Trazado 264" d="M278.295,78.195,264.578,70.22l-.928.522,13.716,7.975Z" transform="translate(-263.65 -70.22)" fill="#fff"/>
        <path id="Trazado_265" data-name="Trazado 265" d="M268.38,73.492v1.972l.928-.522V72.97Z" transform="translate(-254.664 -64.995)" fill="#757575"/>
      </g>
      <g id="Grupo_40" data-name="Grupo 40" transform="translate(764.549 208.415)">
        <path id="Trazado_266" data-name="Trazado 266" d="M277.366,80.025,263.65,72.05v1.972L277.366,82Z" transform="translate(-263.65 -71.528)" fill="#ededed"/>
        <path id="Trazado_267" data-name="Trazado 267" d="M278.295,79.845,264.578,71.87l-.928.522,13.716,7.975Z" transform="translate(-263.65 -71.87)" fill="#fff"/>
        <path id="Trazado_268" data-name="Trazado 268" d="M268.38,75.142v1.972l.928-.522V74.62Z" transform="translate(-254.664 -66.645)" fill="#757575"/>
      </g>
      <g id="Grupo_41" data-name="Grupo 41" transform="translate(764.549 213.2)">
        <path id="Trazado_269" data-name="Trazado 269" d="M277.366,81.675,263.65,73.7v1.972l13.716,8Z" transform="translate(-263.65 -73.178)" fill="#ededed"/>
        <path id="Trazado_270" data-name="Trazado 270" d="M278.295,81.495,264.578,73.52l-.928.522,13.716,7.975Z" transform="translate(-263.65 -73.52)" fill="#fff"/>
        <path id="Trazado_271" data-name="Trazado 271" d="M268.38,76.792v2l.928-.551V76.27Z" transform="translate(-254.664 -68.295)" fill="#757575"/>
      </g>
      <g id="Grupo_42" data-name="Grupo 42" transform="translate(764.549 217.984)">
        <path id="Trazado_272" data-name="Trazado 272" d="M277.366,83.325,263.65,75.35v1.972L277.366,85.3Z" transform="translate(-263.65 -74.828)" fill="#ededed"/>
        <path id="Trazado_273" data-name="Trazado 273" d="M278.295,83.145,264.578,75.17l-.928.522,13.716,7.975Z" transform="translate(-263.65 -75.17)" fill="#fff"/>
        <path id="Trazado_274" data-name="Trazado 274" d="M268.38,78.442v1.972l.928-.522V77.92Z" transform="translate(-254.664 -69.945)" fill="#757575"/>
      </g>
      <g id="Grupo_43" data-name="Grupo 43" transform="translate(764.549 222.769)">
        <path id="Trazado_275" data-name="Trazado 275" d="M277.366,84.975,263.65,77v2l13.716,7.975Z" transform="translate(-263.65 -76.478)" fill="#ededed"/>
        <path id="Trazado_276" data-name="Trazado 276" d="M278.295,84.795,264.578,76.82l-.928.522,13.716,7.975Z" transform="translate(-263.65 -76.82)" fill="#fff"/>
        <path id="Trazado_277" data-name="Trazado 277" d="M268.38,80.092v2l.928-.551V79.57Z" transform="translate(-254.664 -71.595)" fill="#757575"/>
      </g>
      <g id="Grupo_44" data-name="Grupo 44" transform="translate(764.549 227.554)">
        <path id="Trazado_278" data-name="Trazado 278" d="M277.366,86.625,263.65,78.65v1.972L277.366,88.6Z" transform="translate(-263.65 -78.128)" fill="#ededed"/>
        <path id="Trazado_279" data-name="Trazado 279" d="M278.295,86.445,264.578,78.47l-.928.522,13.716,7.975Z" transform="translate(-263.65 -78.47)" fill="#fff"/>
        <path id="Trazado_280" data-name="Trazado 280" d="M268.38,81.742v1.972l.928-.522V81.22Z" transform="translate(-254.664 -73.245)" fill="#757575"/>
      </g>
      <path id="Trazado_281" data-name="Trazado 281" d="M379.97,57.816v39.09a5.365,5.365,0,1,1-10.73,0V51.61Z" transform="translate(410.011 -3.878)" fill="#c6c6c6"/>
      <path id="Trazado_282" data-name="Trazado 282" d="M269.73,259.7,296.9,244.011V22.46L269.73,38.148Z" transform="translate(512.45 42.671)" fill="#706f6f"/>
      <path id="Trazado_283" data-name="Trazado 283" d="M370.807,65.131,351.436,76.3l-7.8,4.524-2.929-1.682L230.83,15.688,258.031,0l82.676,47.732,10.73,6.206Z" transform="translate(438.545)" fill="#c6c6c6"/>
      <path id="Trazado_284" data-name="Trazado 284" d="M280.284,228.614,204.8,226.062V4.54l75.484,2.523Z" transform="translate(389.091 8.625)" fill="#575756"/>
      <path id="Trazado_285" data-name="Trazado 285" d="M206.5,218.011V6.29l65.624,2.2V220.215Z" transform="translate(392.32 11.95)" fill="#9d9d9c"/>
      <path id="Trazado_286" data-name="Trazado 286" d="M269.73,249.421l20.531,51.792V79.662L269.73,27.87Z" transform="translate(512.45 52.95)" fill="#575756"/>
      <path id="Trazado_287" data-name="Trazado 287" d="M271.42,231.612V36.74l10.7,27v194.9Z" transform="translate(515.661 69.802)" fill="#9d9d9c"/>
      <path id="Trazado_288" data-name="Trazado 288" d="M352.4,92.8h1.827l6.38,1.131,3.074.957,6.5,2.7,1.421,1.537,14.876-7.656c4.524-2.2,6.786,1.218,2.9,3.6a63.8,63.8,0,0,0-15.282,12.005c-2.9,4.553-5.191,9.628-3.306,12.9l10.208,1.711c5.1,1.508,2.378,5.655-.493,5.249a51.125,51.125,0,0,0-14.5,1.914,41.874,41.874,0,0,0-18.1-1.711l-13.021-9.106a34.8,34.8,0,0,0,4.756-9.28,31.9,31.9,0,0,1,5.423-10.875Z" transform="translate(344.731 70.494)" fill="#f9b233"/>
      <path id="Trazado_289" data-name="Trazado 289" d="M367.95,91.806l8,31.087a1.352,1.352,0,1,1-2.581.667L365.34,92.473C365.311,91.429,367.631,90.994,367.95,91.806Z" transform="translate(402.602 71.689)" fill="#fff"/>
      <path id="Trazado_290" data-name="Trazado 290" d="M368.045,103.133a2.058,2.058,0,0,0-.725,1.334v.29a.615.615,0,0,1,0,.174l1.189,4.611a1.971,1.971,0,0,1,.7-1.566,5.8,5.8,0,0,1,5.1-1.334,1.972,1.972,0,0,1,1.421,1.131l-1.189-4.64v-.261a.319.319,0,0,0,0-.2,2.059,2.059,0,0,0-1.3-.87A5.8,5.8,0,0,0,368.045,103.133Z" transform="translate(406.364 91.188)" fill="#e05a00"/>
      <path id="Trazado_291" data-name="Trazado 291" d="M378.669,107.206l4.756,18.443a5.855,5.855,0,0,1-11.339,2.929l-4.756-18.443a5.852,5.852,0,0,1,11.339-2.9Z" transform="translate(406.034 93.437)" fill="#e05a00"/>
      <path id="Trazado_292" data-name="Trazado 292" d="M374.37,102.974c1.914.551,2.349,2.117.9,3.509a6.931,6.931,0,0,1-6.09,1.595c-1.943-.551-2.349-2.117-.9-3.538A7.018,7.018,0,0,1,374.37,102.974Z" transform="translate(406.535 93.406)" fill="#e05a00"/>
      <path id="Trazado_293" data-name="Trazado 293" d="M369.256,104.281l4.785,18.5a2.233,2.233,0,0,1-.522,1.885c-.522.493-1.015.377-1.189-.232l-4.756-18.5a2.059,2.059,0,0,1,.522-1.885C368.618,103.528,369.111,103.673,369.256,104.281Z" transform="translate(406.747 95.144)" fill="#ff8521"/>
      <path id="Trazado_294" data-name="Trazado 294" d="M372.071,104.74l4.785,18.5c.145.58-.2.957-.812.783a2.262,2.262,0,0,1-1.479-1.421l-4.785-18.5c-.145-.609.232-.957.812-.783a2.146,2.146,0,0,1,1.479,1.421Z" transform="translate(410.979 94.279)" fill="#ff8521"/>
      <path id="Trazado_295" data-name="Trazado 295" d="M370.657,103.986l5.017,19.081a.87.87,0,0,1-.725,1.044,1.073,1.073,0,0,1-1.334-.609l-5.046-19.081a.9.9,0,0,1,.754-1.044,1.073,1.073,0,0,1,1.334.609Z" transform="translate(408.711 94.366)" fill="#ff8521"/>
      <path id="Trazado_296" data-name="Trazado 296" d="M268.133,62.979l-1.8-.522-1.885-4.118.116-3.8,1.8.522,1.624,4.263Z" transform="translate(502.419 103.62)" fill="#fff"/>
      <path id="Trazado_297" data-name="Trazado 297" d="M369.176,97.694c0,1.508-1.131,1.1-1.8-.522l-1.885-4.118L365,89.69l1.8.522,2.2,3.8Z" transform="translate(401.956 68.47)" fill="#565656"/>
      <path id="Trazado_298" data-name="Trazado 298" d="M377.871,123.825l6.351-19.661c1.508-3.944,5.8-3.219,4.756,1.131l-3.422,15.949,11.31-20.908c2.349-3.451,6.467-1.392,4.93,2.32l-8.7,19.835,13.658-17.631c2.378-3.248,6.148-.7,3.306,3.712l-9.222,17.4,10.324-10.237c2.9-2.407,5.278.493,2.9,3.045l-12.528,14.18a45.3,45.3,0,0,1-9.048,24.852c-4.263,5.075-15.4,13.281-16.7,12.412L363.14,157.638,373.7,153.52a12.121,12.121,0,0,1-2.32-6.177c0-.377,0-.754,0-1.16a25.778,25.778,0,0,1,0-2.61l.2-.638,1.363-19.284C373.348,118.663,377.407,119.62,377.871,123.825Z" transform="translate(398.422 85.344)" fill="#f9b233"/>
      <path id="Trazado_299" data-name="Trazado 299" d="M300.527,140.262c13.049,18.269,74.179,17.4,84.445,17.4,19.255-11.426,22.909-20.5,41.526-41.874,4.9-11.745-4.321-19.922-12.818-17.979-17.892,9.019-20.618,13.02-30.971,19.429-17.631-11.774-47.906-11.6-61.884-17.109C303.253,108.885,287.13,121.557,300.527,140.262Z" transform="translate(270.048 83.349)" fill="#0e586b"/>
      <path id="Trazado_300" data-name="Trazado 300" d="M391.784,265.317c0-9.106-7.018-12.585-17.4-13.687-9.106,0-21.314,4.06-37.351,7.743l-18.3,10a40.83,40.83,0,0,0-1.334,25.432c5.133,4.466,11.6,7.192,17.689,5.568l20.56-8.7,1.479-2.9C373.515,286.951,391.784,279.5,391.784,265.317Z" transform="translate(308.822 376.137)" fill="#1d1d1b"/>
      <path id="Trazado_301" data-name="Trazado 301" d="M365.123,249.974c0-7.395-6.641-8.7-16.558-9.454-17.921,0-18.675,8.961-35.176,8.7l-16.21,9.831a48.516,48.516,0,0,0-.7,27.259,23.2,23.2,0,0,0,18.037,4.379l16.645-9.773,1.421-2.9C348.217,275.464,365.123,263.835,365.123,249.974Z" transform="translate(268.699 355.03)" fill="#1d1d1b"/>
      <path id="Trazado_302" data-name="Trazado 302" d="M307.444,156.46l59.709,24.968a204.569,204.569,0,0,1-1.189,27.926c-3.77,27.52-14.876,69.1-14.876,69.1-8,35.35-11.194,79.2-13.078,125.449-.29,16.645-25.084,31.261-40.946,15.514-4.553-56.432-4.524-111.269,8.7-147.575-6.351-28.651-.377-60.666,1.421-93.7C305.675,177.513,309.126,157.156,307.444,156.46Z" transform="translate(267.685 195.325)" fill="#0e586b"/>
      <path id="Trazado_303" data-name="Trazado 303" d="M344.159,235.749c0,32.972-.348,59.622,7.627,88.244-11.281,36.278-8.236,90.244-.522,146.589a24.214,24.214,0,0,0,32.276,4.437,19.574,19.574,0,0,0,7.8-19.139L397.43,330.6s8.7-41.526,11.02-68.988-7.482-90.3-7.482-90.3a116.516,116.516,0,0,1-16.007,3.161c-35.524,4.466-68.176-8.207-78.3-28.535-.522,1.508-1.015,2.9-1.508,4.495a144.415,144.415,0,0,0-6.612,38.133C297.355,217.567,325.773,228.239,344.159,235.749Z" transform="translate(275.628 175.338)" fill="#21758a"/>
      <path id="Trazado_304" data-name="Trazado 304" d="M294.33,136.871c3.8,45.934,13.63,90.882,18.733,103.961,22.1,31.551,50.023,36.278,80.7,26.592a129.423,129.423,0,0,0,15.138-5.8c5.8-22.474,4-53.706,5.046-84.1a270.879,270.879,0,0,1,2.726-32.769c-29.376-25.809-55.446-37.322-93.463-46.4C304.422,98.447,294.446,115.788,294.33,136.871Z" transform="translate(267.691 84.942)" fill="#21758a"/>
      <path id="Trazado_305" data-name="Trazado 305" d="M328.62,217.456a129.419,129.419,0,0,0,15.137-5.8c5.8-22.474,4-53.706,5.046-84.1l-16.036-2.9C334.565,157.342,334.855,189.24,328.62,217.456Z" transform="translate(332.838 134.909)" fill="#21758a" opacity="0.5"/>
      <path id="Trazado_306" data-name="Trazado 306" d="M355.8,106.9l.319,22.793c-23.837,12.035-51.038-7.047-47.384-16.935L318.51,94Z" transform="translate(294.433 76.658)" fill="#fcaf75"/>
      <path id="Trazado_307" data-name="Trazado 307" d="M352.778,245c-2.2,27.491-11.02,68.988-11.02,68.988l-6.09,125.333a19.6,19.6,0,0,1-7.859,19.139c5.452-52.72,7.859-102.134,0-140.412,11.773-43.5,17.138-88.852,3.6-122.375.145-13.4,1.595-25.49-1.247-35.2a138.44,138.44,0,0,0,15.138-5.8S354.982,217.568,352.778,245Z" transform="translate(331.299 191.924)" opacity="0.25"/>
      <path id="Trazado_308" data-name="Trazado 308" d="M332.767,154.621c13.078,18.269,62.232,20.3,72.5,20.3,19.284-11.426,25.664-16.964,44.31-38.336,4.9-11.6-2.668-20.908-11.165-18.936-17.4,7.859-25.055,10.44-35.379,16.848-22.445-10.527-35.988-14.7-49.936-20.1C335.493,123.216,319.37,135.917,332.767,154.621Z" transform="translate(331.301 115.416)" fill="#21758a"/>
      <path id="Trazado_309" data-name="Trazado 309" d="M365.694,142.673c-7.395,8.41-18.385,7.308-29.985,4.408-16.587-7.656-28.506-18.994-26.882-40.6-1.3-15.659,5.8-32.073,32.479-31.232,16.993.551,31.493,6.728,32.508,24.881C373.929,100.015,374.828,134.292,365.694,142.673Z" transform="translate(294.952 40.977)" fill="#fcaf75"/>
      <path id="Trazado_310" data-name="Trazado 310" d="M309.174,120.116a85.956,85.956,0,0,0,2.9,13.8,19.4,19.4,0,0,0,2.668,5.8c5.8,8.294,24.649,15.282,37.321,6.148l3.8-10.672s7.366-6.38,8.12-6.612-.522-14.5-.522-14.5a25.606,25.606,0,0,0,10.875-15.137C376.1,84.737,363,72.441,341.914,73.34s-31.232,14.354-33.262,28.187a111.5,111.5,0,0,0,.522,18.588Z" transform="translate(294.576 37.319)"/>
      <path id="Trazado_311" data-name="Trazado 311" d="M332.56,98.643c2.059-2.291-1.073-7.569-3.364-8.294-3.19-1.044-4.93,3.567-5.249,6.09a11.6,11.6,0,0,0,1.856,8.7c2.175,3.219,5.568,0,6.641-2.523C333.169,100.847,331.284,100.093,332.56,98.643Z" transform="translate(323.591 69.435)" fill="#fcaf75"/>
      <path id="Trazado_312" data-name="Trazado 312" d="M322.992,96.545l-1.1,3.944A28.245,28.245,0,0,1,310,94.689l-.841-4.959A25.519,25.519,0,0,0,322.992,96.545Z" transform="translate(295.866 68.546)" fill="#fff"/>
      <path id="Trazado_313" data-name="Trazado 313" d="M343.1,115.3c13.688-11.136,25.49-19.081,25.809-26.679,0-10.469-11.6-18.356-21.459-17.718-7.714.638-16.529,4.495-25.867,9.8Z" transform="translate(319.463 32.709)" fill="#0e586b"/>
      <path id="Trazado_314" data-name="Trazado 314" d="M373.354,98.478c1.421,20.3-19.313,33.7-43.063,35.437a28.04,28.04,0,0,1-6-.406,10.527,10.527,0,0,0-6.5-12.267c-4.35-1.885-6.032.87-5.394,6.409-5.133-5.249-5.046-13.107-3.77-23.025,5.22-18.037,14.7-30.536,36.713-32.276C358.362,73.481,370.193,80.035,373.354,98.478Z" transform="translate(293.469 35.526)" fill="#21758a"/>
      <path id="Trazado_315" data-name="Trazado 315" d="M333.35,103.112a15.572,15.572,0,0,1,15.688,20.1l9.86-8.526L356,98.269,342.4,97.08Z" transform="translate(341.824 82.51)" fill="#f9b233"/>
      <path id="Trazado_316" data-name="Trazado 316" d="M363.21,119.875c10.7-1.073,17.109,12.035,13.89,21.343l7.83-7.83V116.54l-11.6-1.45Z" transform="translate(398.555 116.727)" fill="#f9b233"/>
      <path id="Trazado_317" data-name="Trazado 317" d="M389.984,237.738h-.261l-3.828,2.233,1.624,2.9c-.406,11.977-6.148,18.037-16.384,19.864l-4.2,2.407L370,270.449l1.943-1.131,4.582,38.1,33.726,24.3,4.2-2.407,5.365-38.482c-10.208-13.629-15.978-26.3-16.384-38.771a17.573,17.573,0,0,0-7.946-13.775,5.8,5.8,0,0,0-5.394-.7Z" transform="translate(405.623 348.764)" fill="#b83231"/>
      <path id="Trazado_318" data-name="Trazado 318" d="M391.289,239.156c-4.408-2.523-7.946-.464-7.946,4.611-.435,11.977-6.177,18.037-16.413,19.835l5.394,44.687,37.93,21.894,5.365-38.453c-10.208-13.629-15.949-26.331-16.384-38.8A17.631,17.631,0,0,0,391.289,239.156Z" transform="translate(405.623 350.391)" fill="#f94343"/>
      <path id="Trazado_319" data-name="Trazado 319" d="M382.453,247.583c0,2.755-1.914,3.857-4.292,2.494a9.6,9.6,0,0,1-4.321-7.453c0-2.9,1.943-3.857,4.321-2.494A9.453,9.453,0,0,1,382.453,247.583Z" transform="translate(418.751 353.129)" fill="#b83231"/>
      <path id="Trazado_320" data-name="Trazado 320" d="M325.454,221.43l-1.16,36.046L260.96,294.043l9.57-40.917Z" transform="translate(495.788 420.692)" fill="#b83231"/>
      <path id="Trazado_321" data-name="Trazado 321" d="M402.914,248.384c19.661-8.178,34.8,6.5,48.689,28.129l-54.924,31.7c-16.384-19.835-32.653-32.856-48.689-28.1Z" transform="translate(369.639 365.609)" fill="#e33d3d"/>
      <path id="Trazado_322" data-name="Trazado 322" d="M382.453,247.583c0,2.755-1.914,3.857-4.292,2.494a9.6,9.6,0,0,1-4.321-7.453c0-2.9,1.943-3.857,4.321-2.494A9.453,9.453,0,0,1,382.453,247.583Z" transform="translate(418.751 353.129)" fill="#b83231"/>
      <rect id="Rect치ngulo_417" data-name="Rect치ngulo 417" width="68.292" height="12.18" transform="translate(734.754 627.032) rotate(-30)" fill="#b83231"/>
      <path id="Trazado_323" data-name="Trazado 323" d="M369.594,249.52h-.261l-3.857,2.2,1.653,2.9c-.435,12.006-6.177,18.037-16.384,19.864l-4.2,2.436,2.9,5.278,1.943-1.1,4.582,38.076,33.755,24.33,4.176-2.436,5.394-38.481c-10.237-13.6-15.978-26.3-16.384-38.771a17.4,17.4,0,0,0-7.975-13.774,5.8,5.8,0,0,0-5.365-.667Z" transform="translate(366.884 371.142)" fill="#b83231"/>
      <path id="Trazado_324" data-name="Trazado 324" d="M370.9,250.948c-4.408-2.552-7.975-.493-7.975,4.582-.406,11.977-6.148,18.037-16.384,19.864l5.365,44.687,37.959,21.894,5.365-38.481c-10.237-13.63-15.978-26.3-16.384-38.771A17.573,17.573,0,0,0,370.9,250.948Z" transform="translate(366.884 372.76)" fill="#f94343"/>
      <path id="Trazado_325" data-name="Trazado 325" d="M362.063,259.382c0,2.726-1.914,3.857-4.321,2.465a9.54,9.54,0,0,1-4.292-7.453c0-2.9,1.943-3.857,4.321-2.494A9.57,9.57,0,0,1,362.063,259.382Z" transform="translate(380.012 375.49)" fill="#b83231"/>
      <path id="Trazado_326" data-name="Trazado 326" d="M272.96,224.22l7.482,6.757v-3.364Z" transform="translate(518.587 425.992)" fill="#a0a09f"/>
      <path id="Trazado_327" data-name="Trazado 327" d="M274.213,227.07l-1.363,8.613,3.335-8.178Z" transform="translate(518.378 431.407)" fill="#8a8a8a"/>
      <path id="Trazado_328" data-name="Trazado 328" d="M275.423,226.37l-1.363,8.642,3.306-8.178Z" transform="translate(520.677 430.077)" fill="#8a8a8a"/>
      <path id="Trazado_329" data-name="Trazado 329" d="M276.359,234.708l-3.509,2,3.335-8.178,3.48-2Z" transform="translate(518.378 430.381)" fill="#b5b5b5"/>
      <path id="Trazado_330" data-name="Trazado 330" d="M270.9,225.44l7.482,6.757V228.8Z" transform="translate(514.673 428.31)" fill="#a0a09f"/>
      <path id="Trazado_331" data-name="Trazado 331" d="M279.454,228.754l-5.974,3.538V228.9l5.974-3.509Z" transform="translate(519.575 428.215)" fill="#c9c9c9"/>
      <path id="Trazado_332" data-name="Trazado 332" d="M278.382,231.122l-7.482-3.364,5.974-3.538,7.482,3.393Z" transform="translate(514.673 425.992)" fill="#f0f0f0"/>
    </g>
  </g>
</svg>
