<svg xmlns="http://www.w3.org/2000/svg" xmlns:xlink="http://www.w3.org/1999/xlink" width="84.141" height="80.371" viewBox="0 0 84.141 80.371">
  <defs>
    <linearGradient id="linear-gradient" x1="-0.037" y1="0.084" x2="0.975" y2="0.994" gradientUnits="objectBoundingBox">
      <stop offset="0" stop-color="#e0062c"/>
      <stop offset="0.298" stop-color="#e22223"/>
      <stop offset="1" stop-color="#e8630d"/>
    </linearGradient>
  </defs>
  <g id="respetuoso-del-medio-ambiente" transform="translate(0 -36.129)">
    <path id="Trazado_76" data-name="Trazado 76" d="M26.7,213.691c-1.61,0-6.236-1.643-7.342-2.3-.026-.018-.052-.036-.079-.052-.115-.075-11.407-7.669-11.482-17.3a4.008,4.008,0,0,0-3.9-3.995,3.9,3.9,0,0,0-3.9,3.9c0,13.788,13.947,23.221,14.994,23.909a11.39,11.39,0,0,0,1.331.736l.125.077a17.885,17.885,0,0,1,8.493,15.221,1.532,1.532,0,0,0,1.532,1.532H38.557a2.228,2.228,0,0,0,2.227-2.227v-5.41A14.1,14.1,0,0,0,26.7,213.691Zm0,0" transform="translate(0 -127.919)" fill="url(#linear-gradient)"/>
    <path id="Trazado_77" data-name="Trazado 77" d="M88.55,270.315a3.906,3.906,0,0,1-.571-.042,17.921,17.921,0,0,1-15.295-17.726,3.9,3.9,0,1,1,7.8,0,10.17,10.17,0,0,0,8.632,10.013,3.9,3.9,0,0,1-.562,7.755Zm0,0" transform="translate(-60.408 -176.627)" fill="url(#linear-gradient)"/>
    <path id="Trazado_78" data-name="Trazado 78" d="M146.265,408.366v4.243a1.855,1.855,0,0,1-1.855,1.855H124.96a1.855,1.855,0,0,1-1.855-1.855v-4.243a1.854,1.854,0,0,1,1.855-1.854H144.41A1.854,1.854,0,0,1,146.265,408.366Zm0,0" transform="translate(-102.314 -307.828)" fill="url(#linear-gradient)"/>
    <path id="Trazado_79" data-name="Trazado 79" d="M136.384,436.3v9.244a1.934,1.934,0,0,1-1.934,1.934H110.117a1.934,1.934,0,0,1-1.934-1.934V436.3a1.934,1.934,0,0,1,1.934-1.934H134.45A1.933,1.933,0,0,1,136.384,436.3Zm0,0" transform="translate(-89.912 -330.979)" fill="url(#linear-gradient)"/>
    <path id="Trazado_80" data-name="Trazado 80" d="M270.8,213.691c1.61,0,6.236-1.643,7.342-2.3.026-.018.052-.036.079-.052.114-.075,11.407-7.669,11.482-17.3a4.008,4.008,0,0,1,3.9-3.995,3.9,3.9,0,0,1,3.9,3.9c0,13.788-13.947,23.221-14.994,23.909a11.4,11.4,0,0,1-1.332.736l-.124.077a17.886,17.886,0,0,0-8.494,15.221,1.532,1.532,0,0,1-1.531,1.532H258.938a2.227,2.227,0,0,1-2.227-2.227v-5.41A14.1,14.1,0,0,1,270.8,213.691Zm0,0" transform="translate(-213.354 -127.919)" fill="url(#linear-gradient)"/>
    <path id="Trazado_81" data-name="Trazado 81" d="M281.169,291.667a11.406,11.406,0,0,0,1.332-.736,41.73,41.73,0,0,0,8.2-7.409l-5.546-5.546a35.539,35.539,0,0,1-6.943,6.442c-.026.017-.053.034-.078.052-1.106.66-5.732,2.3-7.342,2.3a14.1,14.1,0,0,0-14.085,14.085v5.411a2.227,2.227,0,0,0,2.227,2.227H271.02a1.532,1.532,0,0,0,1.531-1.532,17.886,17.886,0,0,1,8.494-15.221Zm0,0" transform="translate(-213.354 -201.002)" fill="url(#linear-gradient)"/>
    <path id="Trazado_82" data-name="Trazado 82" d="M312.407,270.315a3.916,3.916,0,0,0,.572-.042,17.921,17.921,0,0,0,15.295-17.726,3.9,3.9,0,1,0-7.8,0,10.17,10.17,0,0,1-8.632,10.013,3.9,3.9,0,0,0,.561,7.755Zm0,0" transform="translate(-256.408 -176.627)" fill="url(#linear-gradient)"/>
    <path id="Trazado_83" data-name="Trazado 83" d="M237.961,408.366v4.243a1.855,1.855,0,0,0,1.855,1.855h19.451a1.855,1.855,0,0,0,1.855-1.855v-4.243a1.854,1.854,0,0,0-1.855-1.854H239.816A1.854,1.854,0,0,0,237.961,408.366Zm0,0" transform="translate(-197.771 -307.828)" fill="url(#linear-gradient)"/>
    <path id="Trazado_84" data-name="Trazado 84" d="M223.039,436.3v9.244a1.934,1.934,0,0,0,1.934,1.934h24.333a1.934,1.934,0,0,0,1.934-1.934V436.3a1.934,1.934,0,0,0-1.934-1.934H224.973A1.933,1.933,0,0,0,223.039,436.3Zm0,0" transform="translate(-185.37 -330.979)" fill="url(#linear-gradient)"/>
    <path id="Trazado_85" data-name="Trazado 85" d="M254.841,36.48a.51.51,0,0,0-.917-.111c-1.2,1.906-4.732,6.019-13.7,8.125a20.487,20.487,0,0,0-15.694,21.649.684.684,0,0,0,1.3.255,31.015,31.015,0,0,1,13.449-13.787.466.466,0,0,1,.5.782A39.19,39.19,0,0,0,224.026,80.64a1.685,1.685,0,0,0,.59,1.483c.761.633,1.98,1.365,2.651.281.527-.852.331-1.49.678-3.541a4.285,4.285,0,0,1,4.32-3.57c10.692.287,31.844-10.42,22.575-38.813Zm0,0" transform="translate(-186.181 0)" fill="url(#linear-gradient)"/>
    <path id="Trazado_86" data-name="Trazado 86" d="M135.277,98.952c-4.037-1.7-17.785-8.811-13.889-25.842a.506.506,0,0,1,.575-.385,27.474,27.474,0,0,1,5.727,1.647A14.488,14.488,0,0,1,136.5,90.19a30.168,30.168,0,0,0-.283,8.067.682.682,0,0,1-.943.7Zm0,0" transform="translate(-100.315 -30.41)" fill="url(#linear-gradient)"/>
    <path id="Trazado_87" data-name="Trazado 87" d="M254.208,36.175c-.623,2.522-3.3,9.7-14.422,17.238a39.19,39.19,0,0,0-15.76,27.246,1.685,1.685,0,0,0,.59,1.483c.761.634,1.979,1.365,2.651.281.528-.852.331-1.49.679-3.541a4.283,4.283,0,0,1,4.32-3.57c10.692.286,31.843-10.42,22.575-38.813a.506.506,0,0,0-.633-.325Zm0,0" transform="translate(-186.182 -0.02)" fill="url(#linear-gradient)"/>
    <path id="Trazado_88" data-name="Trazado 88" d="M135.277,99.073a.674.674,0,0,0,.6-.036c-2.271-3.976-4-9.78-5.485-15.209-1.668-6.118-7.163-10-8.663-10.963a.5.5,0,0,0-.343.367c-3.9,17.03,9.852,24.146,13.889,25.842Zm0,0" transform="translate(-100.315 -30.53)" fill="url(#linear-gradient)"/>
  </g>
</svg>
