<svg xmlns="http://www.w3.org/2000/svg" xmlns:xlink="http://www.w3.org/1999/xlink" width="1578" height="1080" viewBox="0 0 1578 1080">
  <defs>
    <linearGradient id="linear-gradient" x1="0.5" x2="0.5" y2="1" gradientUnits="objectBoundingBox">
      <stop offset="0" stop-color="#e8630d"/>
      <stop offset="0.408" stop-color="#ff2e0d"/>
      <stop offset="0.709" stop-color="#e22223"/>
      <stop offset="1" stop-color="#2d2d2e"/>
    </linearGradient>
  </defs>
  <path id="Sustracción_2" data-name="Sustracción 2" d="M2775,1527H1210.105c41.228,0,82.817-1.328,123.61-3.942,40.228-2.578,80.649-6.47,120.142-11.57,38.981-5.033,78-11.363,115.96-18.814,37.539-7.368,74.942-16.006,111.17-25.674,35.891-9.579,71.478-20.4,105.771-32.151,34.048-11.671,67.613-24.538,99.765-38.244,32-13.64,63.337-28.427,93.15-43.952,29.74-15.487,58.65-32.066,85.927-49.278s53.551-35.452,78.1-54.219c24.605-18.813,48.041-38.588,69.656-58.777a807.7,807.7,0,0,0,60.608-62.951c9.288-10.788,18.278-21.864,26.721-32.921,8.477-11.1,16.629-22.479,24.232-33.82,7.638-11.4,14.927-23.061,21.665-34.672,6.773-11.673,13.174-23.608,19.023-35.475,5.883-11.935,11.369-24.124,16.305-36.231,4.967-12.181,9.512-24.609,13.511-36.939,4.024-12.408,7.6-25.058,10.641-37.6,3.058-12.629,5.647-25.484,7.695-38.21,2.064-12.827,3.636-25.872,4.673-38.774,1.045-13.006,1.574-26.225,1.574-39.29,0-13.99-.607-28.141-1.8-42.061-1.188-13.81-2.989-27.76-5.352-41.464-2.345-13.6-5.307-27.331-8.805-40.809-3.473-13.379-7.566-26.869-12.166-40.095-4.568-13.134-9.761-26.364-15.434-39.323-5.635-12.873-11.9-25.824-18.608-38.492-6.672-12.593-13.97-25.244-21.689-37.6-7.677-12.289-15.979-24.621-24.678-36.654H2775V1527Zm-1567.747,0H1197v-.043c3.354.022,6.8.036,10.253.041Z" transform="translate(-1197 -447)" fill="url(#linear-gradient)"/>
</svg>
